<svg xmlns="http://www.w3.org/2000/svg" xmlns:xlink="http://www.w3.org/1999/xlink" width="108" height="108" viewBox="0 0 108 108">
  <defs>
    <filter id="Trazado_904820" x="0" y="0" width="108" height="108" filterUnits="userSpaceOnUse">
      <feOffset dy="3" input="SourceAlpha"/>
      <feGaussianBlur stdDeviation="3" result="blur"/>
      <feFlood flood-opacity="0.161"/>
      <feComposite operator="in" in2="blur"/>
      <feComposite in="SourceGraphic"/>
    </filter>
    <clipPath id="clip-path">
      <rect id="Rect치ngulo_408364" data-name="Rect치ngulo 408364" width="54" height="54" transform="translate(0 0.025)" fill="none"/>
    </clipPath>
  </defs>
  <g id="Grupo_1145529" data-name="Grupo 1145529" transform="translate(-1291 -1005)">
    <g id="Grupo_1145302" data-name="Grupo 1145302" transform="translate(1300 1011)">
      <g transform="matrix(1, 0, 0, 1, -9, -6)" filter="url(#Trazado_904820)">
        <g id="Trazado_904820-2" data-name="Trazado 904820" transform="translate(9 6)" fill="#ecf4fa">
          <path d="M 45 88.5 C 39.12687683105469 88.5 33.43022537231445 87.35007476806641 28.06830024719238 85.08217620849609 C 22.88852500915527 82.89131164550781 18.23629951477051 79.75458526611328 14.2408504486084 75.75914764404297 C 10.24541282653809 71.76370239257812 7.108687400817871 67.11147308349609 4.917825222015381 61.93170166015625 C 2.649924993515015 56.56977462768555 1.5 50.87312316894531 1.5 45 C 1.5 39.12687683105469 2.649924993515015 33.43022537231445 4.917825222015381 28.06830024719238 C 7.108687400817871 22.88852500915527 10.24541282653809 18.23629951477051 14.2408504486084 14.2408504486084 C 18.23629951477051 10.24541282653809 22.88852500915527 7.108687400817871 28.06830024719238 4.917825222015381 C 33.43022537231445 2.649924993515015 39.12687683105469 1.5 45 1.5 C 50.87312316894531 1.5 56.56977462768555 2.649924993515015 61.93170166015625 4.917825222015381 C 67.11147308349609 7.108687400817871 71.76370239257812 10.24541282653809 75.75914764404297 14.2408504486084 C 79.75458526611328 18.23629951477051 82.89131164550781 22.88852500915527 85.08217620849609 28.06830024719238 C 87.35007476806641 33.43022537231445 88.5 39.12687683105469 88.5 45 C 88.5 50.87312316894531 87.35007476806641 56.56977462768555 85.08217620849609 61.93170166015625 C 82.89131164550781 67.11147308349609 79.75458526611328 71.76370239257812 75.75914764404297 75.75914764404297 C 71.76370239257812 79.75458526611328 67.11147308349609 82.89131164550781 61.93170166015625 85.08217620849609 C 56.56977462768555 87.35007476806641 50.87312316894531 88.5 45 88.5 Z" stroke="none"/>
          <path d="M 45 3 C 39.32871246337891 3 33.82865524291992 4.110054016113281 28.65262985229492 6.299339294433594 C 23.65165710449219 8.414573669433594 19.15968322753906 11.44334411621094 15.301513671875 15.301513671875 C 11.44334411621094 19.15968322753906 8.414573669433594 23.65165710449219 6.299339294433594 28.65262985229492 C 4.110054016113281 33.82865524291992 3 39.32871246337891 3 45 C 3 50.67128753662109 4.110054016113281 56.17134475708008 6.299339294433594 61.34737396240234 C 8.414573669433594 66.34834289550781 11.44334411621094 70.84031677246094 15.301513671875 74.698486328125 C 19.15968322753906 78.55665588378906 23.65165710449219 81.58542633056641 28.65262985229492 83.70066070556641 C 33.82865524291992 85.88994598388672 39.32871246337891 87 45 87 C 50.67128753662109 87 56.17134475708008 85.88994598388672 61.34737396240234 83.70066070556641 C 66.34834289550781 81.58542633056641 70.84031677246094 78.55665588378906 74.698486328125 74.698486328125 C 78.55665588378906 70.84031677246094 81.58542633056641 66.34834289550781 83.70066070556641 61.34737396240234 C 85.88994598388672 56.17134475708008 87 50.67128753662109 87 45 C 87 39.32871246337891 85.88994598388672 33.82865524291992 83.70066070556641 28.65262985229492 C 81.58542633056641 23.65165710449219 78.55665588378906 19.15968322753906 74.698486328125 15.301513671875 C 70.84031677246094 11.44334411621094 66.34834289550781 8.414573669433594 61.34737396240234 6.299339294433594 C 56.17134475708008 4.110054016113281 50.67128753662109 3 45 3 M 45 0 C 69.85281372070312 0 90 20.14718627929688 90 45 C 90 69.85281372070312 69.85281372070312 90 45 90 C 20.14718627929688 90 0 69.85281372070312 0 45 C 0 20.14718627929688 20.14718627929688 0 45 0 Z" stroke="none" fill="#2a5673"/>
        </g>
      </g>
    </g>
    <g id="Grupo_1145470" data-name="Grupo 1145470" transform="translate(1318 1028.766)">
      <rect id="Rect치ngulo_408363" data-name="Rect치ngulo 408363" width="52.601" height="52.601" transform="translate(0.794 0.839)" fill="#fcdd2e"/>
      <g id="Grupo_1145467" data-name="Grupo 1145467" transform="translate(0 0.209)">
        <g id="Grupo_1145466" data-name="Grupo 1145466" clip-path="url(#clip-path)">
          <path id="Trazado_986799" data-name="Trazado 986799" d="M58.226,21.067A28.64,28.64,0,0,0,42.784,5.625H21.067A28.635,28.635,0,0,0,5.625,21.067V42.784A28.64,28.64,0,0,0,21.067,58.226H42.784A28.635,28.635,0,0,0,58.226,42.784Z" transform="translate(-4.831 -4.995)" fill="#f9c301"/>
          <path id="Trazado_986800" data-name="Trazado 986800" d="M51.192,13.789c10.126,10.126,9.953,26.717-.388,37.057s-26.931,10.513-37.056.388S3.8,24.517,14.135,14.177s26.931-10.513,37.056-.388" transform="translate(-5.381 -5.581)" fill="#6df3bf"/>
        </g>
      </g>
      <g id="Grupo_1145469" data-name="Grupo 1145469" transform="translate(0 0.209)">
        <g id="Grupo_1145468" data-name="Grupo 1145468" clip-path="url(#clip-path)">
          <path id="Trazado_986801" data-name="Trazado 986801" d="M26.944,47.749H68.961a26.276,26.276,0,0,0,2.659-4.341L50.473,5.746c-.83-.079-1.67-.121-2.52-.121s-1.691.042-2.52.121L24.285,43.408a26.275,26.275,0,0,0,2.659,4.341" transform="translate(-20.858 -4.995)" fill="#05e29a"/>
          <path id="Trazado_986802" data-name="Trazado 986802" d="M55.35,45.611H77.8L55.35,5.625,32.9,45.611Z" transform="translate(-28.256 -4.995)" fill="#fc8086"/>
          <path id="Trazado_986803" data-name="Trazado 986803" d="M53.4,0H44.549a.794.794,0,1,0,0,1.588H52.6V17.724A26.438,26.438,0,0,0,36.465,1.588H40.84A.794.794,0,1,0,40.84,0H.794A.794.794,0,0,0,0,.794V53.4a.794.794,0,0,0,.794.794H53.4a.794.794,0,0,0,.794-.794V.794A.794.794,0,0,0,53.4,0m-1.76,19.961a27.311,27.311,0,0,1,.948,6.392.793.793,0,0,0,0,1.482,25.409,25.409,0,0,1-3.02,11.351L43.125,27.722A.793.793,0,0,0,42.64,26.3h-.314L36.178,15.35a.794.794,0,1,0-1.384.777l13.4,23.858H6L26.3,3.829v1.25a.794.794,0,1,0,1.588,0V3.829l5.079,9.046a.794.794,0,0,0,1.385-.777L28.475,1.632a27.374,27.374,0,0,1,5.753.922A24.817,24.817,0,0,1,51.635,19.961M27.094,52.072a.793.793,0,0,0-.741.512,27.311,27.311,0,0,1-6.393-.948A24.812,24.812,0,0,1,5.92,41.573H26.3c0,.008,0,.016,0,.024v1.044a.794.794,0,1,0,1.588,0V41.6c0-.008,0-.016,0-.024H48.1a25.739,25.739,0,0,1-2.97,3.557,25.335,25.335,0,0,1-17.3,7.452.794.794,0,0,0-.741-.51M17.935,1.588A26.942,26.942,0,0,0,8,7.87.794.794,0,1,0,9.121,9,25.335,25.335,0,0,1,25.712,1.634L11.862,26.3h-.314a.793.793,0,0,0-.485,1.422l-6.5,11.584a24.54,24.54,0,0,1-2.006-5.079,27.191,27.191,0,0,1-.942-6.394.793.793,0,0,0,0-1.477,25.392,25.392,0,0,1,5.12-14.628.794.794,0,0,0-1.266-.957,27.188,27.188,0,0,0-3.88,7.18V1.588ZM1.588,36.465A26.438,26.438,0,0,0,17.724,52.6H1.588ZM36.259,52.6A27.184,27.184,0,0,0,52.6,36.259V52.6Z" transform="translate(0 -0.164)"/>
          <path id="Trazado_986804" data-name="Trazado 986804" d="M211.134,186.375h-1.043a.794.794,0,1,0,0,1.588h1.043a.794.794,0,1,0,0-1.588" transform="translate(-179.762 -160.238)"/>
          <path id="Trazado_986805" data-name="Trazado 986805" d="M24.81,186.375H23.767a.794.794,0,1,0,0,1.588H24.81a.794.794,0,1,0,0-1.588" transform="translate(-19.731 -160.238)"/>
          <path id="Trazado_986806" data-name="Trazado 986806" d="M343.177,187.963h1.043a.794.794,0,0,0,0-1.588h-1.043a.794.794,0,0,0,0,1.588" transform="translate(-294.067 -160.238)"/>
          <path id="Trazado_986807" data-name="Trazado 986807" d="M184.753,183.237a.794.794,0,1,0,.558.758.794.794,0,0,0-.558-.758" transform="translate(-156.901 -157.065)"/>
          <path id="Trazado_986808" data-name="Trazado 986808" d="M131.282,186.375h-1.043a.794.794,0,0,0,0,1.588h1.043a.794.794,0,1,0,0-1.588" transform="translate(-111.178 -160.238)"/>
          <path id="Trazado_986809" data-name="Trazado 986809" d="M157.9,186.375h-1.043a.794.794,0,1,0,0,1.588H157.9a.794.794,0,1,0,0-1.588" transform="translate(-134.039 -160.238)"/>
          <path id="Trazado_986810" data-name="Trazado 986810" d="M316.56,187.963H317.6a.794.794,0,1,0,0-1.588H316.56a.794.794,0,1,0,0,1.588" transform="translate(-271.206 -160.238)"/>
          <path id="Trazado_986811" data-name="Trazado 986811" d="M104.665,186.375h-1.043a.794.794,0,0,0,0,1.588h1.043a.794.794,0,0,0,0-1.588" transform="translate(-88.317 -160.238)"/>
          <path id="Trazado_986812" data-name="Trazado 986812" d="M50.384,187.963h1.043a.794.794,0,0,0,0-1.588H50.384a.794.794,0,1,0,0,1.588" transform="translate(-42.592 -160.238)"/>
          <path id="Trazado_986813" data-name="Trazado 986813" d="M263.325,187.963h1.044a.794.794,0,1,0,0-1.588h-1.044a.794.794,0,0,0,0,1.588" transform="translate(-225.484 -160.238)"/>
          <path id="Trazado_986814" data-name="Trazado 986814" d="M235.914,187.169a.794.794,0,0,0,.794.794h1.044a.794.794,0,1,0,0-1.588h-1.044a.794.794,0,0,0-.794.794" transform="translate(-202.623 -160.238)"/>
          <path id="Trazado_986815" data-name="Trazado 986815" d="M187.169,132.076a.794.794,0,0,0,.794-.794v-1.043a.794.794,0,0,0-1.588,0v1.043a.794.794,0,0,0,.794.794" transform="translate(-160.074 -111.342)"/>
          <path id="Trazado_986816" data-name="Trazado 986816" d="M187.169,105.459a.794.794,0,0,0,.794-.794v-1.043a.794.794,0,1,0-1.588,0v1.043a.794.794,0,0,0,.794.794" transform="translate(-160.074 -88.481)"/>
          <path id="Trazado_986817" data-name="Trazado 986817" d="M187.169,52.221a.794.794,0,0,0,.794-.794V50.384a.794.794,0,1,0-1.588,0v1.043a.794.794,0,0,0,.794.794" transform="translate(-160.074 -42.756)"/>
          <path id="Trazado_986818" data-name="Trazado 986818" d="M187.169,158.693a.794.794,0,0,0,.794-.794v-1.043a.794.794,0,1,0-1.588,0V157.9a.794.794,0,0,0,.794.794" transform="translate(-160.074 -134.203)"/>
          <path id="Trazado_986819" data-name="Trazado 986819" d="M187.169,78.842a.794.794,0,0,0,.794-.794V77a.794.794,0,0,0-1.588,0v1.043a.794.794,0,0,0,.794.794" transform="translate(-160.074 -65.62)"/>
          <path id="Trazado_986820" data-name="Trazado 986820" d="M187.169,342.383a.794.794,0,0,0-.794.794v1.043a.794.794,0,0,0,1.588,0v-1.043a.794.794,0,0,0-.794-.794" transform="translate(-160.074 -294.231)"/>
          <path id="Trazado_986821" data-name="Trazado 986821" d="M187.169,315.766a.794.794,0,0,0-.794.794V317.6a.794.794,0,1,0,1.588,0V316.56a.794.794,0,0,0-.794-.794" transform="translate(-160.074 -271.37)"/>
          <path id="Trazado_986822" data-name="Trazado 986822" d="M187.169,209.3a.794.794,0,0,0-.794.794v1.043a.794.794,0,1,0,1.588,0v-1.043a.794.794,0,0,0-.794-.794" transform="translate(-160.074 -179.926)"/>
          <path id="Trazado_986823" data-name="Trazado 986823" d="M187.169,235.914a.794.794,0,0,0-.794.794v1.044a.794.794,0,1,0,1.588,0v-1.044a.794.794,0,0,0-.794-.794" transform="translate(-160.074 -202.787)"/>
          <path id="Trazado_986824" data-name="Trazado 986824" d="M187.169,262.531a.794.794,0,0,0-.794.794v.247a.794.794,0,0,0,1.588,0v-.247a.794.794,0,0,0-.794-.794" transform="translate(-160.074 -225.648)"/>
        </g>
      </g>
    </g>
  </g>
</svg>
