<svg xmlns="http://www.w3.org/2000/svg" xmlns:xlink="http://www.w3.org/1999/xlink" width="108" height="108" viewBox="0 0 108 108">
  <defs>
    <filter id="Trazado_904820" x="0" y="0" width="108" height="108" filterUnits="userSpaceOnUse">
      <feOffset dy="3" input="SourceAlpha"/>
      <feGaussianBlur stdDeviation="3" result="blur"/>
      <feFlood flood-opacity="0.161"/>
      <feComposite operator="in" in2="blur"/>
      <feComposite in="SourceGraphic"/>
    </filter>
    <clipPath id="clip-path">
      <rect id="Rect치ngulo_408385" data-name="Rect치ngulo 408385" width="40.347" height="56.359" fill="none"/>
    </clipPath>
  </defs>
  <g id="Grupo_1145538" data-name="Grupo 1145538" transform="translate(-201 -4185)">
    <g id="Grupo_1145321" data-name="Grupo 1145321" transform="translate(210 4191)">
      <g transform="matrix(1, 0, 0, 1, -9, -6)" filter="url(#Trazado_904820)">
        <g id="Trazado_904820-2" data-name="Trazado 904820" transform="translate(9 6)" fill="#ecf4fa">
          <path d="M 45 88.5 C 39.12687683105469 88.5 33.43022537231445 87.35007476806641 28.06830024719238 85.08217620849609 C 22.88852500915527 82.89131164550781 18.23629951477051 79.75458526611328 14.2408504486084 75.75914764404297 C 10.24541282653809 71.76370239257812 7.108687400817871 67.11147308349609 4.917825222015381 61.93170166015625 C 2.649924993515015 56.56977462768555 1.5 50.87312316894531 1.5 45 C 1.5 39.12687683105469 2.649924993515015 33.43022537231445 4.917825222015381 28.06830024719238 C 7.108687400817871 22.88852500915527 10.24541282653809 18.23629951477051 14.2408504486084 14.2408504486084 C 18.23629951477051 10.24541282653809 22.88852500915527 7.108687400817871 28.06830024719238 4.917825222015381 C 33.43022537231445 2.649924993515015 39.12687683105469 1.5 45 1.5 C 50.87312316894531 1.5 56.56977462768555 2.649924993515015 61.93170166015625 4.917825222015381 C 67.11147308349609 7.108687400817871 71.76370239257812 10.24541282653809 75.75914764404297 14.2408504486084 C 79.75458526611328 18.23629951477051 82.89131164550781 22.88852500915527 85.08217620849609 28.06830024719238 C 87.35007476806641 33.43022537231445 88.5 39.12687683105469 88.5 45 C 88.5 50.87312316894531 87.35007476806641 56.56977462768555 85.08217620849609 61.93170166015625 C 82.89131164550781 67.11147308349609 79.75458526611328 71.76370239257812 75.75914764404297 75.75914764404297 C 71.76370239257812 79.75458526611328 67.11147308349609 82.89131164550781 61.93170166015625 85.08217620849609 C 56.56977462768555 87.35007476806641 50.87312316894531 88.5 45 88.5 Z" stroke="none"/>
          <path d="M 45 3 C 39.32871246337891 3 33.82865524291992 4.110054016113281 28.65262985229492 6.299339294433594 C 23.65165710449219 8.414573669433594 19.15968322753906 11.44334411621094 15.301513671875 15.301513671875 C 11.44334411621094 19.15968322753906 8.414573669433594 23.65165710449219 6.299339294433594 28.65262985229492 C 4.110054016113281 33.82865524291992 3 39.32871246337891 3 45 C 3 50.67128753662109 4.110054016113281 56.17134475708008 6.299339294433594 61.34737396240234 C 8.414573669433594 66.34834289550781 11.44334411621094 70.84031677246094 15.301513671875 74.698486328125 C 19.15968322753906 78.55665588378906 23.65165710449219 81.58542633056641 28.65262985229492 83.70066070556641 C 33.82865524291992 85.88994598388672 39.32871246337891 87 45 87 C 50.67128753662109 87 56.17134475708008 85.88994598388672 61.34737396240234 83.70066070556641 C 66.34834289550781 81.58542633056641 70.84031677246094 78.55665588378906 74.698486328125 74.698486328125 C 78.55665588378906 70.84031677246094 81.58542633056641 66.34834289550781 83.70066070556641 61.34737396240234 C 85.88994598388672 56.17134475708008 87 50.67128753662109 87 45 C 87 39.32871246337891 85.88994598388672 33.82865524291992 83.70066070556641 28.65262985229492 C 81.58542633056641 23.65165710449219 78.55665588378906 19.15968322753906 74.698486328125 15.301513671875 C 70.84031677246094 11.44334411621094 66.34834289550781 8.414573669433594 61.34737396240234 6.299339294433594 C 56.17134475708008 4.110054016113281 50.67128753662109 3 45 3 M 45 0 C 69.85281372070312 0 90 20.14718627929688 90 45 C 90 69.85281372070312 69.85281372070312 90 45 90 C 20.14718627929688 90 0 69.85281372070312 0 45 C 0 20.14718627929688 20.14718627929688 0 45 0 Z" stroke="none" fill="#2a5673"/>
        </g>
      </g>
    </g>
    <g id="Grupo_1145507" data-name="Grupo 1145507" transform="translate(235.024 4207.403)">
      <g id="Grupo_1145506" data-name="Grupo 1145506" clip-path="url(#clip-path)">
        <path id="Trazado_986949" data-name="Trazado 986949" d="M42.559,60.333H7.386a1.761,1.761,0,0,1-1.761-1.761V7.386A1.761,1.761,0,0,1,7.386,5.625H42.56a1.761,1.761,0,0,1,1.761,1.761V58.572a1.762,1.762,0,0,1-1.762,1.761" transform="translate(-4.799 -4.799)" fill="#8f818f"/>
        <path id="Trazado_986950" data-name="Trazado 986950" d="M242.93,5.625h-2.446a1.779,1.779,0,0,1,1.78,1.779v51.15a1.779,1.779,0,0,1-1.78,1.779h2.446a1.779,1.779,0,0,0,1.78-1.779V7.4a1.78,1.78,0,0,0-1.78-1.779" transform="translate(-205.189 -4.799)" fill="#786e79"/>
        <rect id="Rect치ngulo_408384" data-name="Rect치ngulo 408384" width="31.134" height="11.12" transform="translate(4.606 4.606)" fill="#97e4f9"/>
        <path id="Trazado_986951" data-name="Trazado 986951" d="M60.293,31.383v7.784a1.112,1.112,0,0,1-1.112,1.112h-27.8V42.5H62.517V31.383Z" transform="translate(-26.777 -26.777)" fill="#0acefa"/>
        <path id="Trazado_986952" data-name="Trazado 986952" d="M31.383,148.325v-4.47a1.1,1.1,0,0,1,1.1-1.1h4.47a1.1,1.1,0,0,1,1.1,1.1v4.47a1.1,1.1,0,0,1-1.1,1.1h-4.47a1.1,1.1,0,0,1-1.1-1.1" transform="translate(-26.777 -121.802)" fill="#d6e4ea"/>
        <path id="Trazado_986953" data-name="Trazado 986953" d="M57.626,142.754h-2a1.113,1.113,0,0,1,1.112,1.112v4.448a1.112,1.112,0,0,1-1.112,1.112h2a1.112,1.112,0,0,0,1.112-1.112v-4.448a1.113,1.113,0,0,0-1.112-1.112" transform="translate(-47.461 -121.802)" fill="#c2d0da"/>
        <path id="Trazado_986954" data-name="Trazado 986954" d="M114.719,148.325v-4.47a1.1,1.1,0,0,1,1.1-1.1h4.471a1.1,1.1,0,0,1,1.1,1.1v4.47a1.1,1.1,0,0,1-1.1,1.1H115.82a1.1,1.1,0,0,1-1.1-1.1" transform="translate(-97.882 -121.802)" fill="#d6e4ea"/>
        <path id="Trazado_986955" data-name="Trazado 986955" d="M140.966,142.754h-2a1.112,1.112,0,0,1,1.112,1.112v4.448a1.112,1.112,0,0,1-1.112,1.112h2a1.112,1.112,0,0,0,1.112-1.112v-4.448a1.112,1.112,0,0,0-1.112-1.112" transform="translate(-118.569 -121.802)" fill="#c2d0da"/>
        <path id="Trazado_986956" data-name="Trazado 986956" d="M31.383,226.36v-4.47a1.1,1.1,0,0,1,1.1-1.1h4.47a1.1,1.1,0,0,1,1.1,1.1v4.47a1.1,1.1,0,0,1-1.1,1.1h-4.47a1.1,1.1,0,0,1-1.1-1.1" transform="translate(-26.777 -188.384)" fill="#d6e4ea"/>
        <path id="Trazado_986957" data-name="Trazado 986957" d="M57.626,220.789h-2a1.113,1.113,0,0,1,1.112,1.112v4.448a1.112,1.112,0,0,1-1.112,1.112h2a1.112,1.112,0,0,0,1.112-1.112V221.9a1.113,1.113,0,0,0-1.112-1.112" transform="translate(-47.461 -188.384)" fill="#c2d0da"/>
        <path id="Trazado_986958" data-name="Trazado 986958" d="M114.719,226.36v-4.47a1.1,1.1,0,0,1,1.1-1.1h4.471a1.1,1.1,0,0,1,1.1,1.1v4.47a1.1,1.1,0,0,1-1.1,1.1H115.82a1.1,1.1,0,0,1-1.1-1.1" transform="translate(-97.882 -188.384)" fill="#d6e4ea"/>
        <path id="Trazado_986959" data-name="Trazado 986959" d="M140.966,220.789h-2a1.112,1.112,0,0,1,1.112,1.112v4.448a1.112,1.112,0,0,1-1.112,1.112h2a1.112,1.112,0,0,0,1.112-1.112V221.9a1.113,1.113,0,0,0-1.112-1.112" transform="translate(-118.569 -188.384)" fill="#c2d0da"/>
        <path id="Trazado_986960" data-name="Trazado 986960" d="M31.383,304.395v-4.47a1.1,1.1,0,0,1,1.1-1.1h4.47a1.1,1.1,0,0,1,1.1,1.1v4.47a1.1,1.1,0,0,1-1.1,1.1h-4.47a1.1,1.1,0,0,1-1.1-1.1" transform="translate(-26.777 -254.966)" fill="#d6e4ea"/>
        <path id="Trazado_986961" data-name="Trazado 986961" d="M57.626,298.824h-2a1.113,1.113,0,0,1,1.112,1.112v4.448a1.112,1.112,0,0,1-1.112,1.112h2a1.112,1.112,0,0,0,1.112-1.112v-4.448a1.113,1.113,0,0,0-1.112-1.112" transform="translate(-47.461 -254.966)" fill="#c2d0da"/>
        <path id="Trazado_986962" data-name="Trazado 986962" d="M114.719,304.395v-4.47a1.1,1.1,0,0,1,1.1-1.1h4.471a1.1,1.1,0,0,1,1.1,1.1v4.47a1.1,1.1,0,0,1-1.1,1.1H115.82a1.1,1.1,0,0,1-1.1-1.1" transform="translate(-97.882 -254.966)" fill="#d6e4ea"/>
        <path id="Trazado_986963" data-name="Trazado 986963" d="M140.966,298.824h-2a1.112,1.112,0,0,1,1.112,1.112v4.448a1.112,1.112,0,0,1-1.112,1.112h2a1.112,1.112,0,0,0,1.112-1.112v-4.448a1.113,1.113,0,0,0-1.112-1.112" transform="translate(-118.569 -254.966)" fill="#c2d0da"/>
        <path id="Trazado_986964" data-name="Trazado 986964" d="M198.058,148.325v-4.47a1.1,1.1,0,0,1,1.1-1.1h4.47a1.1,1.1,0,0,1,1.1,1.1v4.47a1.1,1.1,0,0,1-1.1,1.1h-4.47a1.1,1.1,0,0,1-1.1-1.1" transform="translate(-168.989 -121.802)" fill="#d6e4ea"/>
        <path id="Trazado_986965" data-name="Trazado 986965" d="M224.3,142.754h-2a1.112,1.112,0,0,1,1.112,1.112v4.448a1.112,1.112,0,0,1-1.112,1.112h2a1.112,1.112,0,0,0,1.112-1.112v-4.448a1.112,1.112,0,0,0-1.112-1.112" transform="translate(-189.674 -121.802)" fill="#c2d0da"/>
        <path id="Trazado_986966" data-name="Trazado 986966" d="M198.058,237.813V221.89a1.1,1.1,0,0,1,1.1-1.1h4.47a1.1,1.1,0,0,1,1.1,1.1v15.923a1.1,1.1,0,0,1-1.1,1.1h-4.47a1.1,1.1,0,0,1-1.1-1.1" transform="translate(-168.989 -188.384)" fill="#fba65c"/>
        <path id="Trazado_986967" data-name="Trazado 986967" d="M224.3,220.789h-2a1.112,1.112,0,0,1,1.112,1.112v15.9a1.112,1.112,0,0,1-1.112,1.112h2a1.111,1.111,0,0,0,1.112-1.112V221.9a1.112,1.112,0,0,0-1.112-1.112" transform="translate(-189.674 -188.384)" fill="#fb9538"/>
        <path id="Trazado_986968" data-name="Trazado 986968" d="M58.543,26.584a.826.826,0,0,0-.826-.826H26.584a.826.826,0,0,0-.826.826V37.7a.826.826,0,0,0,.826.826H57.718a.826.826,0,0,0,.826-.826ZM56.892,36.878H27.409V27.409H56.892Z" transform="translate(-21.978 -21.978)"/>
        <path id="Trazado_986969" data-name="Trazado 986969" d="M25.758,143.525a1.928,1.928,0,0,0,1.926,1.926h4.47a1.928,1.928,0,0,0,1.926-1.926v-4.47a1.928,1.928,0,0,0-1.926-1.926h-4.47a1.928,1.928,0,0,0-1.926,1.926Zm1.651-4.47a.276.276,0,0,1,.275-.275h4.47a.276.276,0,0,1,.275.275v4.47a.276.276,0,0,1-.275.275h-4.47a.275.275,0,0,1-.275-.275Z" transform="translate(-21.978 -117.003)"/>
        <path id="Trazado_986970" data-name="Trazado 986970" d="M117.42,139.055a1.929,1.929,0,0,0-1.926-1.926h-4.47a1.928,1.928,0,0,0-1.926,1.926v4.47a1.928,1.928,0,0,0,1.926,1.926h4.47a1.929,1.929,0,0,0,1.926-1.926Zm-1.651,4.47a.276.276,0,0,1-.275.275h-4.47a.275.275,0,0,1-.275-.275v-4.47a.276.276,0,0,1,.275-.275h4.47a.276.276,0,0,1,.275.275Z" transform="translate(-93.085 -117.003)"/>
        <path id="Trazado_986971" data-name="Trazado 986971" d="M25.758,221.56a1.928,1.928,0,0,0,1.926,1.926h4.47a1.928,1.928,0,0,0,1.926-1.926v-4.47a1.929,1.929,0,0,0-1.926-1.926h-4.47a1.929,1.929,0,0,0-1.926,1.926Zm1.651-4.47a.276.276,0,0,1,.275-.275h4.47a.276.276,0,0,1,.275.275v4.47a.276.276,0,0,1-.275.275h-4.47a.275.275,0,0,1-.275-.275Z" transform="translate(-21.978 -183.585)"/>
        <path id="Trazado_986972" data-name="Trazado 986972" d="M117.42,217.09a1.929,1.929,0,0,0-1.926-1.926h-4.47a1.929,1.929,0,0,0-1.926,1.926v4.47a1.928,1.928,0,0,0,1.926,1.926h4.47a1.929,1.929,0,0,0,1.926-1.926Zm-1.651,4.47a.276.276,0,0,1-.275.275h-4.47a.275.275,0,0,1-.275-.275v-4.47a.276.276,0,0,1,.275-.275h4.47a.276.276,0,0,1,.275.275Z" transform="translate(-93.085 -183.585)"/>
        <path id="Trazado_986973" data-name="Trazado 986973" d="M25.758,299.6a1.928,1.928,0,0,0,1.926,1.926h4.47a1.928,1.928,0,0,0,1.926-1.926v-4.47a1.929,1.929,0,0,0-1.926-1.926h-4.47a1.929,1.929,0,0,0-1.926,1.926Zm1.651-4.47a.276.276,0,0,1,.275-.275h4.47a.276.276,0,0,1,.275.275v4.47a.276.276,0,0,1-.275.275h-4.47a.275.275,0,0,1-.275-.275Z" transform="translate(-21.978 -250.167)"/>
        <path id="Trazado_986974" data-name="Trazado 986974" d="M115.493,293.2h-4.47a1.929,1.929,0,0,0-1.926,1.926v4.47a1.928,1.928,0,0,0,1.926,1.926h4.47a1.929,1.929,0,0,0,1.926-1.926v-4.47a1.929,1.929,0,0,0-1.926-1.926m.275,6.4a.276.276,0,0,1-.275.275h-4.47a.275.275,0,0,1-.275-.275v-4.47a.276.276,0,0,1,.275-.275h4.47a.276.276,0,0,1,.275.275Z" transform="translate(-93.085 -250.167)"/>
        <path id="Trazado_986975" data-name="Trazado 986975" d="M200.756,139.055a1.928,1.928,0,0,0-1.926-1.926h-4.47a1.928,1.928,0,0,0-1.926,1.926v4.47a1.928,1.928,0,0,0,1.926,1.926h4.47a1.928,1.928,0,0,0,1.926-1.926Zm-1.651,4.47a.275.275,0,0,1-.275.275h-4.47a.276.276,0,0,1-.275-.275v-4.47a.276.276,0,0,1,.275-.275h4.47a.276.276,0,0,1,.275.275Z" transform="translate(-164.19 -117.003)"/>
        <path id="Trazado_986976" data-name="Trazado 986976" d="M193.259,223.17a.825.825,0,0,0-.826.826V233a1.94,1.94,0,0,0,1.938,1.937h4.448A1.939,1.939,0,0,0,200.756,233V217.1a1.94,1.94,0,0,0-1.937-1.938h-4.448a1.94,1.94,0,0,0-1.938,1.938v3a.826.826,0,1,0,1.651,0v-3a.287.287,0,0,1,.287-.287h4.448a.287.287,0,0,1,.286.287V233a.287.287,0,0,1-.286.286h-4.448a.287.287,0,0,1-.287-.286V224a.825.825,0,0,0-.826-.826" transform="translate(-164.19 -183.585)"/>
        <path id="Trazado_986977" data-name="Trazado 986977" d="M37.742,0H2.6A2.608,2.608,0,0,0,0,2.6V31.293a.826.826,0,0,0,1.651,0V2.6A.954.954,0,0,1,2.6,1.651H37.742A.955.955,0,0,1,38.7,2.6V16.17a.826.826,0,1,0,1.651,0V2.6A2.608,2.608,0,0,0,37.742,0"/>
        <path id="Trazado_986978" data-name="Trazado 986978" d="M39.521,131.07a.826.826,0,0,0-.826.826v33.692a.954.954,0,0,1-.953.953H2.6a.954.954,0,0,1-.953-.953v-18.57a.826.826,0,0,0-1.651,0v18.57a2.608,2.608,0,0,0,2.6,2.6H37.742a2.608,2.608,0,0,0,2.605-2.6V131.9a.826.826,0,0,0-.826-.826" transform="translate(0 -111.833)"/>
      </g>
    </g>
  </g>
</svg>
