<svg xmlns="http://www.w3.org/2000/svg" width="244" height="76" viewBox="0 0 244 76">
  <g id="Grupo_1145549" data-name="Grupo 1145549" transform="translate(-4366.074 -5506.5)">
    <g id="Rectángulo_408399" data-name="Rectángulo 408399" transform="translate(4366.074 5506.5)" fill="#dbebf6" stroke="#4e9ed2" stroke-width="1">
      <rect width="244" height="76" rx="5" stroke="none"/>
      <rect x="0.5" y="0.5" width="243" height="75" rx="4.5" fill="none"/>
    </g>
    <g id="Grupo_1145548" data-name="Grupo 1145548">
      <g id="Grupo_1145546" data-name="Grupo 1145546" transform="translate(-53 -4.78)">
        <text id="Contenido" transform="translate(4550.074 5555.78)" fill="#212429" font-size="18" font-family="Helvetica" letter-spacing="0em"><tspan x="0" y="0">=</tspan></text>
        <path id="Contenido-2" data-name="Contenido" d="M4.869-12.586A3.719,3.719,0,0,1,8.4-10.573a9,9,0,0,1,.844,4.263,10.265,10.265,0,0,1-.765,4.245A3.744,3.744,0,0,1,4.86.343,3.626,3.626,0,0,1,1.485-1.626,9.014,9.014,0,0,1,.563-6.038a10.9,10.9,0,0,1,.554-3.683A3.789,3.789,0,0,1,4.869-12.586ZM4.852-1.1a2.251,2.251,0,0,0,1.96-1.09,7.891,7.891,0,0,0,.729-4.061,10.032,10.032,0,0,0-.527-3.529,2.007,2.007,0,0,0-2.048-1.384A2.141,2.141,0,0,0,2.922-9.848a9.073,9.073,0,0,0-.646,3.872,9.507,9.507,0,0,0,.413,3.094A2.252,2.252,0,0,0,4.852-1.1Zm6.7-.817h1.837V0H11.551ZM15.578,0a7.34,7.34,0,0,1,.672-2.83,5.443,5.443,0,0,1,2.281-2.188l1.688-.976a7.945,7.945,0,0,0,1.591-1.125,2.311,2.311,0,0,0,.721-1.67,2.331,2.331,0,0,0-.659-1.745,2.4,2.4,0,0,0-1.758-.646,2.3,2.3,0,0,0-2.25,1.23,4.405,4.405,0,0,0-.369,1.828H15.885a5.649,5.649,0,0,1,.606-2.681,3.806,3.806,0,0,1,3.63-1.828,3.934,3.934,0,0,1,3.16,1.169,3.911,3.911,0,0,1,1,2.6,3.537,3.537,0,0,1-1.063,2.584,10.412,10.412,0,0,1-2.206,1.512l-1.2.668a7.8,7.8,0,0,0-1.354.905,3.3,3.3,0,0,0-1.107,1.7h6.873V0ZM27.251-3.208a2.193,2.193,0,0,0,1.257,1.872,3.033,3.033,0,0,0,1.3.264,2.442,2.442,0,0,0,2.083-.9,3.22,3.22,0,0,0,.677-1.986,2.6,2.6,0,0,0-.8-2.039,2.791,2.791,0,0,0-1.929-.721,2.906,2.906,0,0,0-1.4.316,3,3,0,0,0-1,.879L26.065-5.6l.958-6.776h6.539v1.529H28.21l-.536,3.5a3.931,3.931,0,0,1,.835-.5,4.238,4.238,0,0,1,1.626-.29A4.16,4.16,0,0,1,33.07-7.022a3.692,3.692,0,0,1,1.2,2.83,4.856,4.856,0,0,1-1.1,3.146A4.266,4.266,0,0,1,29.651.316a4.483,4.483,0,0,1-2.72-.866,3.434,3.434,0,0,1-1.323-2.659ZM41.2-12.955h1.582v4.816a4.568,4.568,0,0,1,1.011-1,3.41,3.41,0,0,1,1.907-.5,2.821,2.821,0,0,1,2.777,1.433,4.885,4.885,0,0,1,.4,2.171V0H47.25V-5.933a3.318,3.318,0,0,0-.264-1.521,1.685,1.685,0,0,0-1.617-.773,2.694,2.694,0,0,0-1.784.677,3.254,3.254,0,0,0-.8,2.558V0H41.2ZM52.429-2.5a1.3,1.3,0,0,0,.5,1.081,1.857,1.857,0,0,0,1.187.4,3.608,3.608,0,0,0,1.617-.387,2.176,2.176,0,0,0,1.318-2.1V-4.79a2.707,2.707,0,0,1-.747.308,6.366,6.366,0,0,1-.9.176l-.958.123a3.664,3.664,0,0,0-1.292.36A1.4,1.4,0,0,0,52.429-2.5Zm3.832-3.2a.859.859,0,0,0,.729-.457,1.391,1.391,0,0,0,.105-.606,1.285,1.285,0,0,0-.576-1.173,3.089,3.089,0,0,0-1.648-.365,2.094,2.094,0,0,0-1.758.668,2.2,2.2,0,0,0-.378,1.1H51.26A2.718,2.718,0,0,1,52.389-8.96a4.637,4.637,0,0,1,2.518-.681,5.124,5.124,0,0,1,2.7.633A2.147,2.147,0,0,1,58.634-7.04v5.423a.694.694,0,0,0,.1.4.487.487,0,0,0,.426.149q.105,0,.237-.013t.281-.04V.044a4.406,4.406,0,0,1-.562.132A4.111,4.111,0,0,1,58.59.2,1.3,1.3,0,0,1,57.4-.378a2.239,2.239,0,0,1-.272-.87,4.025,4.025,0,0,1-1.389,1.1,4.3,4.3,0,0,1-2,.466,2.967,2.967,0,0,1-2.14-.8,2.642,2.642,0,0,1-.831-1.991,2.564,2.564,0,0,1,.817-2.03,3.889,3.889,0,0,1,2.145-.888Z" transform="translate(4567.074 5555.78)" fill="#212429"/>
      </g>
      <g id="Grupo_1145547" data-name="Grupo 1145547" transform="translate(-53 -4.78)">
        <path id="Contenido-3" data-name="Contenido" d="M.563,0a7.34,7.34,0,0,1,.672-2.83A5.443,5.443,0,0,1,3.516-5.019L5.2-5.994A7.945,7.945,0,0,0,6.794-7.119a2.311,2.311,0,0,0,.721-1.67,2.331,2.331,0,0,0-.659-1.745A2.4,2.4,0,0,0,5.1-11.18a2.3,2.3,0,0,0-2.25,1.23,4.405,4.405,0,0,0-.369,1.828H.87A5.649,5.649,0,0,1,1.477-10.8a3.806,3.806,0,0,1,3.63-1.828,3.934,3.934,0,0,1,3.16,1.169,3.911,3.911,0,0,1,1,2.6A3.537,3.537,0,0,1,8.2-6.275,10.412,10.412,0,0,1,5.994-4.764L4.79-4.1a7.8,7.8,0,0,0-1.354.905,3.3,3.3,0,0,0-1.107,1.7H9.2V0ZM12.236-3.208a2.193,2.193,0,0,0,1.257,1.872,3.033,3.033,0,0,0,1.3.264,2.442,2.442,0,0,0,2.083-.9,3.22,3.22,0,0,0,.677-1.986,2.6,2.6,0,0,0-.8-2.039,2.791,2.791,0,0,0-1.929-.721,2.906,2.906,0,0,0-1.4.316,3,3,0,0,0-1,.879L11.05-5.6l.958-6.776h6.539v1.529H13.194l-.536,3.5a3.931,3.931,0,0,1,.835-.5,4.238,4.238,0,0,1,1.626-.29,4.16,4.16,0,0,1,2.936,1.116,3.692,3.692,0,0,1,1.2,2.83,4.856,4.856,0,0,1-1.1,3.146A4.266,4.266,0,0,1,14.636.316a4.483,4.483,0,0,1-2.72-.866,3.434,3.434,0,0,1-1.323-2.659Zm12.658-9.378a3.719,3.719,0,0,1,3.533,2.013,9,9,0,0,1,.844,4.263,10.265,10.265,0,0,1-.765,4.245A3.744,3.744,0,0,1,24.885.343,3.626,3.626,0,0,1,21.51-1.626a9.014,9.014,0,0,1-.923-4.412,10.9,10.9,0,0,1,.554-3.683A3.789,3.789,0,0,1,24.894-12.586ZM24.877-1.1a2.251,2.251,0,0,0,1.96-1.09,7.891,7.891,0,0,0,.729-4.061,10.032,10.032,0,0,0-.527-3.529,2.007,2.007,0,0,0-2.048-1.384,2.141,2.141,0,0,0-2.043,1.314A9.073,9.073,0,0,0,22.3-5.977a9.507,9.507,0,0,0,.413,3.094A2.252,2.252,0,0,0,24.877-1.1Zm10.03-11.487a3.719,3.719,0,0,1,3.533,2.013,9,9,0,0,1,.844,4.263,10.265,10.265,0,0,1-.765,4.245A3.744,3.744,0,0,1,34.9.343a3.626,3.626,0,0,1-3.375-1.969A9.014,9.014,0,0,1,30.6-6.038a10.9,10.9,0,0,1,.554-3.683A3.789,3.789,0,0,1,34.907-12.586ZM34.889-1.1a2.251,2.251,0,0,0,1.96-1.09,7.891,7.891,0,0,0,.729-4.061,10.032,10.032,0,0,0-.527-3.529A2.007,2.007,0,0,0,35-11.162,2.141,2.141,0,0,0,32.96-9.848a9.073,9.073,0,0,0-.646,3.872,9.507,9.507,0,0,0,.413,3.094A2.252,2.252,0,0,0,34.889-1.1ZM46.213-9.413h1.564v1.336A5.258,5.258,0,0,1,48.8-9.088a3.066,3.066,0,0,1,1.775-.536,2.794,2.794,0,0,1,1.811.554,2.894,2.894,0,0,1,.7.932,3.419,3.419,0,0,1,1.239-1.121,3.457,3.457,0,0,1,1.6-.365,2.616,2.616,0,0,1,2.584,1.371,4.482,4.482,0,0,1,.369,1.986V0H57.235V-6.539a1.523,1.523,0,0,0-.47-1.292,1.861,1.861,0,0,0-1.147-.352,2.277,2.277,0,0,0-1.6.624,2.74,2.74,0,0,0-.672,2.083V0H51.733V-6.144a3.192,3.192,0,0,0-.229-1.4A1.394,1.394,0,0,0,50.159-8.2a2.32,2.32,0,0,0-1.63.694A3.4,3.4,0,0,0,47.8-4.992V0H46.213ZM60.377-6a4.282,4.282,0,0,1,.392-1.651A3.175,3.175,0,0,1,62.1-8.927l.984-.569a4.634,4.634,0,0,0,.928-.656,1.348,1.348,0,0,0,.42-.974,1.36,1.36,0,0,0-.384-1.018,1.4,1.4,0,0,0-1.025-.377,1.34,1.34,0,0,0-1.312.718,2.57,2.57,0,0,0-.215,1.066h-.938A3.3,3.3,0,0,1,60.91-12.3a2.22,2.22,0,0,1,2.117-1.066,2.3,2.3,0,0,1,1.843.682,2.281,2.281,0,0,1,.582,1.517,2.063,2.063,0,0,1-.62,1.507,6.073,6.073,0,0,1-1.287.882l-.7.39a4.549,4.549,0,0,0-.79.528,1.923,1.923,0,0,0-.646.989h4.009V-6Z" transform="translate(4456 5540.78)" fill="#212429"/>
        <path id="Contenido-4" data-name="Contenido" d="M1.723-8.912v-1.213a6.445,6.445,0,0,0,2.391-.558,2.751,2.751,0,0,0,1.011-1.85H6.372V0H4.685V-8.912Zm13.159-3.674a3.719,3.719,0,0,1,3.533,2.013,9,9,0,0,1,.844,4.263,10.265,10.265,0,0,1-.765,4.245A3.744,3.744,0,0,1,14.873.343,3.626,3.626,0,0,1,11.5-1.626a9.014,9.014,0,0,1-.923-4.412,10.9,10.9,0,0,1,.554-3.683A3.789,3.789,0,0,1,14.882-12.586ZM14.864-1.1a2.251,2.251,0,0,0,1.96-1.09,7.891,7.891,0,0,0,.729-4.061,10.032,10.032,0,0,0-.527-3.529,2.007,2.007,0,0,0-2.048-1.384,2.141,2.141,0,0,0-2.043,1.314,9.073,9.073,0,0,0-.646,3.872A9.507,9.507,0,0,0,12.7-2.883,2.252,2.252,0,0,0,14.864-1.1Zm6.655,2.936a1.109,1.109,0,0,0,.853-.853A2.413,2.413,0,0,0,22.5.22q0-.062,0-.11A.605.605,0,0,0,22.477,0h-.958V-1.916H23.4V-.141A3.846,3.846,0,0,1,22.978,1.7a1.922,1.922,0,0,1-1.459.976ZM29.9-12.586a3.719,3.719,0,0,1,3.533,2.013,9,9,0,0,1,.844,4.263,10.265,10.265,0,0,1-.765,4.245A3.744,3.744,0,0,1,29.888.343a3.626,3.626,0,0,1-3.375-1.969,9.014,9.014,0,0,1-.923-4.412,10.9,10.9,0,0,1,.554-3.683A3.789,3.789,0,0,1,29.9-12.586ZM29.879-1.1a2.251,2.251,0,0,0,1.96-1.09,7.891,7.891,0,0,0,.729-4.061,10.032,10.032,0,0,0-.527-3.529,2.007,2.007,0,0,0-2.048-1.384A2.141,2.141,0,0,0,27.95-9.848,9.073,9.073,0,0,0,27.3-5.977a9.507,9.507,0,0,0,.413,3.094A2.252,2.252,0,0,0,29.879-1.1ZM39.91-12.586a3.719,3.719,0,0,1,3.533,2.013,9,9,0,0,1,.844,4.263,10.265,10.265,0,0,1-.765,4.245A3.744,3.744,0,0,1,39.9.343a3.626,3.626,0,0,1-3.375-1.969A9.014,9.014,0,0,1,35.6-6.038a10.9,10.9,0,0,1,.554-3.683A3.789,3.789,0,0,1,39.91-12.586ZM39.892-1.1a2.251,2.251,0,0,0,1.96-1.09,7.891,7.891,0,0,0,.729-4.061,10.032,10.032,0,0,0-.527-3.529,2.007,2.007,0,0,0-2.048-1.384,2.141,2.141,0,0,0-2.043,1.314,9.073,9.073,0,0,0-.646,3.872,9.507,9.507,0,0,0,.413,3.094A2.252,2.252,0,0,0,39.892-1.1Zm10.03-11.487a3.719,3.719,0,0,1,3.533,2.013A9,9,0,0,1,54.3-6.311a10.265,10.265,0,0,1-.765,4.245A3.744,3.744,0,0,1,49.913.343a3.626,3.626,0,0,1-3.375-1.969,9.014,9.014,0,0,1-.923-4.412,10.9,10.9,0,0,1,.554-3.683A3.789,3.789,0,0,1,49.922-12.586ZM49.9-1.1a2.251,2.251,0,0,0,1.96-1.09,7.891,7.891,0,0,0,.729-4.061,10.032,10.032,0,0,0-.527-3.529,2.007,2.007,0,0,0-2.048-1.384,2.141,2.141,0,0,0-2.043,1.314,9.073,9.073,0,0,0-.646,3.872,9.507,9.507,0,0,0,.413,3.094A2.252,2.252,0,0,0,49.9-1.1Z" transform="translate(4462 5570.78)" fill="#212429"/>
        <path id="Trazado_987198" data-name="Trazado 987198" d="M4439.3,5550.28h102.1" transform="translate(0.197)" fill="none" stroke="#212429" stroke-width="1"/>
      </g>
    </g>
  </g>
</svg>
