<svg xmlns="http://www.w3.org/2000/svg" width="264" height="76" viewBox="0 0 264 76">
  <g id="Grupo_1145551" data-name="Grupo 1145551" transform="translate(-4366 -6097.394)">
    <g id="Rectángulo_408399" data-name="Rectángulo 408399" transform="translate(4366 6097.394)" fill="#dbebf6" stroke="#4e9ed2" stroke-width="1">
      <rect width="264" height="76" rx="5" stroke="none"/>
      <rect x="0.5" y="0.5" width="263" height="75" rx="4.5" fill="none"/>
    </g>
    <g id="Grupo_1145550" data-name="Grupo 1145550" transform="translate(-0.5)">
      <text id="Contenido" transform="translate(4497.074 6141.894)" fill="#212429" font-size="18" font-family="Helvetica" letter-spacing="0em"><tspan x="0" y="0">=</tspan></text>
      <path id="Contenido-2" data-name="Contenido" d="M4.869-12.586A3.719,3.719,0,0,1,8.4-10.573a9,9,0,0,1,.844,4.263,10.265,10.265,0,0,1-.765,4.245A3.744,3.744,0,0,1,4.86.343,3.626,3.626,0,0,1,1.485-1.626,9.014,9.014,0,0,1,.563-6.038a10.9,10.9,0,0,1,.554-3.683A3.789,3.789,0,0,1,4.869-12.586ZM4.852-1.1a2.251,2.251,0,0,0,1.96-1.09,7.891,7.891,0,0,0,.729-4.061,10.032,10.032,0,0,0-.527-3.529,2.007,2.007,0,0,0-2.048-1.384A2.141,2.141,0,0,0,2.922-9.848a9.073,9.073,0,0,0-.646,3.872,9.507,9.507,0,0,0,.413,3.094A2.252,2.252,0,0,0,4.852-1.1Zm6.7-.817h1.837V0H11.551Zm8.334-10.67a3.719,3.719,0,0,1,3.533,2.013,9,9,0,0,1,.844,4.263A10.265,10.265,0,0,1,23.5-2.065,3.744,3.744,0,0,1,19.876.343,3.626,3.626,0,0,1,16.5-1.626a9.014,9.014,0,0,1-.923-4.412,10.9,10.9,0,0,1,.554-3.683A3.789,3.789,0,0,1,19.884-12.586ZM19.867-1.1a2.251,2.251,0,0,0,1.96-1.09,7.891,7.891,0,0,0,.729-4.061,10.032,10.032,0,0,0-.527-3.529,2.007,2.007,0,0,0-2.048-1.384,2.141,2.141,0,0,0-2.043,1.314,9.073,9.073,0,0,0-.646,3.872A9.507,9.507,0,0,0,17.7-2.883,2.252,2.252,0,0,0,19.867-1.1ZM29.9-12.586a3.719,3.719,0,0,1,3.533,2.013,9,9,0,0,1,.844,4.263,10.265,10.265,0,0,1-.765,4.245A3.744,3.744,0,0,1,29.888.343a3.626,3.626,0,0,1-3.375-1.969,9.014,9.014,0,0,1-.923-4.412,10.9,10.9,0,0,1,.554-3.683A3.789,3.789,0,0,1,29.9-12.586ZM29.879-1.1a2.251,2.251,0,0,0,1.96-1.09,7.891,7.891,0,0,0,.729-4.061,10.032,10.032,0,0,0-.527-3.529,2.007,2.007,0,0,0-2.048-1.384A2.141,2.141,0,0,0,27.95-9.848,9.073,9.073,0,0,0,27.3-5.977a9.507,9.507,0,0,0,.413,3.094A2.252,2.252,0,0,0,29.879-1.1ZM39.91-12.586a3.719,3.719,0,0,1,3.533,2.013,9,9,0,0,1,.844,4.263,10.265,10.265,0,0,1-.765,4.245A3.744,3.744,0,0,1,39.9.343a3.626,3.626,0,0,1-3.375-1.969A9.014,9.014,0,0,1,35.6-6.038a10.9,10.9,0,0,1,.554-3.683A3.789,3.789,0,0,1,39.91-12.586ZM39.892-1.1a2.251,2.251,0,0,0,1.96-1.09,7.891,7.891,0,0,0,.729-4.061,10.032,10.032,0,0,0-.527-3.529,2.007,2.007,0,0,0-2.048-1.384,2.141,2.141,0,0,0-2.043,1.314,9.073,9.073,0,0,0-.646,3.872,9.507,9.507,0,0,0,.413,3.094A2.252,2.252,0,0,0,39.892-1.1ZM54.466-12.375V-11a14.7,14.7,0,0,0-1.613,2.048A20.764,20.764,0,0,0,51.073-5.8a21.5,21.5,0,0,0-1.16,3q-.255.87-.659,2.8H47.505a21.539,21.539,0,0,1,2.637-7.172,22.7,22.7,0,0,1,2.531-3.612H45.712v-1.591Zm2.823,9.167a2.193,2.193,0,0,0,1.257,1.872,3.033,3.033,0,0,0,1.3.264,2.442,2.442,0,0,0,2.083-.9,3.22,3.22,0,0,0,.677-1.986,2.6,2.6,0,0,0-.8-2.039,2.791,2.791,0,0,0-1.929-.721,2.906,2.906,0,0,0-1.4.316,3,3,0,0,0-1,.879L56.1-5.6l.958-6.776H63.6v1.529H58.247l-.536,3.5a3.931,3.931,0,0,1,.835-.5,4.238,4.238,0,0,1,1.626-.29,4.16,4.16,0,0,1,2.936,1.116,3.692,3.692,0,0,1,1.2,2.83,4.856,4.856,0,0,1-1.1,3.146A4.266,4.266,0,0,1,59.689.316a4.483,4.483,0,0,1-2.72-.866,3.434,3.434,0,0,1-1.323-2.659ZM71.241-9.413h1.564v1.336a5.258,5.258,0,0,1,1.02-1.011A3.066,3.066,0,0,1,75.6-9.624a2.794,2.794,0,0,1,1.811.554,2.894,2.894,0,0,1,.7.932,3.419,3.419,0,0,1,1.239-1.121,3.457,3.457,0,0,1,1.6-.365,2.616,2.616,0,0,1,2.584,1.371,4.482,4.482,0,0,1,.369,1.986V0H82.262V-6.539a1.523,1.523,0,0,0-.47-1.292,1.861,1.861,0,0,0-1.147-.352,2.277,2.277,0,0,0-1.6.624,2.74,2.74,0,0,0-.672,2.083V0H76.76V-6.144a3.192,3.192,0,0,0-.229-1.4A1.394,1.394,0,0,0,75.187-8.2a2.32,2.32,0,0,0-1.63.694,3.4,3.4,0,0,0-.734,2.514V0H71.241ZM87.8-5.8a2.307,2.307,0,0,1-1.889-.715,2.654,2.654,0,0,1-.587-1.741h.964a2.39,2.39,0,0,0,.267,1.036,1.4,1.4,0,0,0,1.3.579,1.7,1.7,0,0,0,1.169-.39,1.279,1.279,0,0,0,.441-1A1.17,1.17,0,0,0,89-9.1a2.348,2.348,0,0,0-1.289-.3l-.187,0-.192.008V-10.2q.144.015.241.021t.21.005a1.926,1.926,0,0,0,.851-.164,1.042,1.042,0,0,0,.584-1.025,1,1,0,0,0-.39-.846,1.454,1.454,0,0,0-.907-.3,1.345,1.345,0,0,0-1.277.615,2.132,2.132,0,0,0-.22.964h-.913a2.769,2.769,0,0,1,.328-1.394,2.069,2.069,0,0,1,1.984-1.025,2.689,2.689,0,0,1,1.738.5,1.758,1.758,0,0,1,.615,1.448,1.616,1.616,0,0,1-.364,1.1,1.529,1.529,0,0,1-.584.41,1.593,1.593,0,0,1,.9.613,1.854,1.854,0,0,1,.326,1.11,2.262,2.262,0,0,1-.692,1.712A2.73,2.73,0,0,1,87.8-5.8Z" transform="translate(4514.074 6141.894)" fill="#212429"/>
      <path id="Contenido-3" data-name="Contenido" d="M9.413-12.375V-11A14.7,14.7,0,0,0,7.8-8.947,20.764,20.764,0,0,0,6.021-5.8a21.5,21.5,0,0,0-1.16,3Q4.605-1.934,4.2,0H2.452A21.539,21.539,0,0,1,5.089-7.172,22.7,22.7,0,0,1,7.62-10.784H.659v-1.591Zm2.823,9.167a2.193,2.193,0,0,0,1.257,1.872,3.033,3.033,0,0,0,1.3.264,2.442,2.442,0,0,0,2.083-.9,3.22,3.22,0,0,0,.677-1.986,2.6,2.6,0,0,0-.8-2.039,2.791,2.791,0,0,0-1.929-.721,2.906,2.906,0,0,0-1.4.316,3,3,0,0,0-1,.879L11.05-5.6l.958-6.776h6.539v1.529H13.194l-.536,3.5a3.931,3.931,0,0,1,.835-.5,4.238,4.238,0,0,1,1.626-.29,4.16,4.16,0,0,1,2.936,1.116,3.692,3.692,0,0,1,1.2,2.83,4.856,4.856,0,0,1-1.1,3.146A4.266,4.266,0,0,1,14.636.316a4.483,4.483,0,0,1-2.72-.866,3.434,3.434,0,0,1-1.323-2.659Zm12.658-9.378a3.719,3.719,0,0,1,3.533,2.013,9,9,0,0,1,.844,4.263,10.265,10.265,0,0,1-.765,4.245A3.744,3.744,0,0,1,24.885.343,3.626,3.626,0,0,1,21.51-1.626a9.014,9.014,0,0,1-.923-4.412,10.9,10.9,0,0,1,.554-3.683A3.789,3.789,0,0,1,24.894-12.586ZM24.877-1.1a2.251,2.251,0,0,0,1.96-1.09,7.891,7.891,0,0,0,.729-4.061,10.032,10.032,0,0,0-.527-3.529,2.007,2.007,0,0,0-2.048-1.384,2.141,2.141,0,0,0-2.043,1.314A9.073,9.073,0,0,0,22.3-5.977a9.507,9.507,0,0,0,.413,3.094A2.252,2.252,0,0,0,24.877-1.1Zm10.03-11.487a3.719,3.719,0,0,1,3.533,2.013,9,9,0,0,1,.844,4.263,10.265,10.265,0,0,1-.765,4.245A3.744,3.744,0,0,1,34.9.343a3.626,3.626,0,0,1-3.375-1.969A9.014,9.014,0,0,1,30.6-6.038a10.9,10.9,0,0,1,.554-3.683A3.789,3.789,0,0,1,34.907-12.586ZM34.889-1.1a2.251,2.251,0,0,0,1.96-1.09,7.891,7.891,0,0,0,.729-4.061,10.032,10.032,0,0,0-.527-3.529A2.007,2.007,0,0,0,35-11.162,2.141,2.141,0,0,0,32.96-9.848a9.073,9.073,0,0,0-.646,3.872,9.507,9.507,0,0,0,.413,3.094A2.252,2.252,0,0,0,34.889-1.1ZM49.843-9.686a4.1,4.1,0,0,1,2.588.773,3.705,3.705,0,0,1,1.2,2.663H52.093a2.839,2.839,0,0,0-.642-1.446,2.027,2.027,0,0,0-1.608-.576,2.222,2.222,0,0,0-2.162,1.477,5.865,5.865,0,0,0-.422,2.364,4.449,4.449,0,0,0,.6,2.382,2.05,2.05,0,0,0,1.881.967,2.057,2.057,0,0,0,1.56-.6,3.311,3.311,0,0,0,.8-1.648h1.538A4.129,4.129,0,0,1,52.313-.593a4.113,4.113,0,0,1-2.7.866A3.6,3.6,0,0,1,46.67-1.077a5.164,5.164,0,0,1-1.1-3.371,5.678,5.678,0,0,1,1.2-3.858A3.891,3.891,0,0,1,49.843-9.686Zm5.372.272h1.564v1.336A5.258,5.258,0,0,1,57.8-9.088a3.066,3.066,0,0,1,1.775-.536,2.794,2.794,0,0,1,1.811.554,2.894,2.894,0,0,1,.7.932,3.419,3.419,0,0,1,1.239-1.121,3.457,3.457,0,0,1,1.6-.365,2.616,2.616,0,0,1,2.584,1.371,4.482,4.482,0,0,1,.369,1.986V0H66.236V-6.539a1.523,1.523,0,0,0-.47-1.292,1.861,1.861,0,0,0-1.147-.352,2.277,2.277,0,0,0-1.6.624,2.74,2.74,0,0,0-.672,2.083V0H60.734V-6.144a3.192,3.192,0,0,0-.229-1.4A1.394,1.394,0,0,0,59.161-8.2a2.32,2.32,0,0,0-1.63.694A3.4,3.4,0,0,0,56.8-4.992V0H55.215ZM71.778-5.8a2.307,2.307,0,0,1-1.889-.715A2.654,2.654,0,0,1,69.3-8.256h.964a2.39,2.39,0,0,0,.267,1.036,1.4,1.4,0,0,0,1.3.579A1.7,1.7,0,0,0,73-7.03a1.279,1.279,0,0,0,.441-1A1.17,1.17,0,0,0,72.975-9.1a2.348,2.348,0,0,0-1.289-.3l-.187,0-.192.008V-10.2q.144.015.241.021t.21.005a1.926,1.926,0,0,0,.851-.164,1.042,1.042,0,0,0,.584-1.025,1,1,0,0,0-.39-.846,1.454,1.454,0,0,0-.907-.3,1.345,1.345,0,0,0-1.277.615,2.132,2.132,0,0,0-.22.964h-.913a2.769,2.769,0,0,1,.328-1.394A2.069,2.069,0,0,1,71.8-13.352a2.689,2.689,0,0,1,1.738.5,1.758,1.758,0,0,1,.615,1.448,1.616,1.616,0,0,1-.364,1.1,1.529,1.529,0,0,1-.584.41,1.593,1.593,0,0,1,.9.613,1.854,1.854,0,0,1,.326,1.11,2.262,2.262,0,0,1-.692,1.712A2.73,2.73,0,0,1,71.778-5.8Z" transform="translate(4398.074 6126.894)" fill="#212429"/>
      <path id="Contenido-4" data-name="Contenido" d="M1.723-8.912v-1.213a6.445,6.445,0,0,0,2.391-.558,2.751,2.751,0,0,0,1.011-1.85H6.372V0H4.685V-8.912ZM11.507,1.837a1.109,1.109,0,0,0,.853-.853A2.413,2.413,0,0,0,12.491.22q0-.062,0-.11A.605.605,0,0,0,12.465,0h-.958V-1.916h1.881V-.141A3.846,3.846,0,0,1,12.966,1.7a1.922,1.922,0,0,1-1.459.976Zm8.378-14.423a3.719,3.719,0,0,1,3.533,2.013,9,9,0,0,1,.844,4.263A10.265,10.265,0,0,1,23.5-2.065,3.744,3.744,0,0,1,19.876.343,3.626,3.626,0,0,1,16.5-1.626a9.014,9.014,0,0,1-.923-4.412,10.9,10.9,0,0,1,.554-3.683A3.789,3.789,0,0,1,19.884-12.586ZM19.867-1.1a2.251,2.251,0,0,0,1.96-1.09,7.891,7.891,0,0,0,.729-4.061,10.032,10.032,0,0,0-.527-3.529,2.007,2.007,0,0,0-2.048-1.384,2.141,2.141,0,0,0-2.043,1.314,9.073,9.073,0,0,0-.646,3.872A9.507,9.507,0,0,0,17.7-2.883,2.252,2.252,0,0,0,19.867-1.1ZM29.9-12.586a3.719,3.719,0,0,1,3.533,2.013,9,9,0,0,1,.844,4.263,10.265,10.265,0,0,1-.765,4.245A3.744,3.744,0,0,1,29.888.343a3.626,3.626,0,0,1-3.375-1.969,9.014,9.014,0,0,1-.923-4.412,10.9,10.9,0,0,1,.554-3.683A3.789,3.789,0,0,1,29.9-12.586ZM29.879-1.1a2.251,2.251,0,0,0,1.96-1.09,7.891,7.891,0,0,0,.729-4.061,10.032,10.032,0,0,0-.527-3.529,2.007,2.007,0,0,0-2.048-1.384A2.141,2.141,0,0,0,27.95-9.848,9.073,9.073,0,0,0,27.3-5.977a9.507,9.507,0,0,0,.413,3.094A2.252,2.252,0,0,0,29.879-1.1ZM39.91-12.586a3.719,3.719,0,0,1,3.533,2.013,9,9,0,0,1,.844,4.263,10.265,10.265,0,0,1-.765,4.245A3.744,3.744,0,0,1,39.9.343a3.626,3.626,0,0,1-3.375-1.969A9.014,9.014,0,0,1,35.6-6.038a10.9,10.9,0,0,1,.554-3.683A3.789,3.789,0,0,1,39.91-12.586ZM39.892-1.1a2.251,2.251,0,0,0,1.96-1.09,7.891,7.891,0,0,0,.729-4.061,10.032,10.032,0,0,0-.527-3.529,2.007,2.007,0,0,0-2.048-1.384,2.141,2.141,0,0,0-2.043,1.314,9.073,9.073,0,0,0-.646,3.872,9.507,9.507,0,0,0,.413,3.094A2.252,2.252,0,0,0,39.892-1.1Zm6.655,2.936A1.109,1.109,0,0,0,47.4.984,2.413,2.413,0,0,0,47.531.22q0-.062,0-.11A.605.605,0,0,0,47.505,0h-.958V-1.916h1.881V-.141A3.846,3.846,0,0,1,48.006,1.7a1.922,1.922,0,0,1-1.459.976Zm8.378-14.423a3.719,3.719,0,0,1,3.533,2.013A9,9,0,0,1,59.3-6.311a10.265,10.265,0,0,1-.765,4.245A3.744,3.744,0,0,1,54.916.343a3.626,3.626,0,0,1-3.375-1.969,9.014,9.014,0,0,1-.923-4.412,10.9,10.9,0,0,1,.554-3.683A3.789,3.789,0,0,1,54.925-12.586ZM54.907-1.1a2.251,2.251,0,0,0,1.96-1.09A7.891,7.891,0,0,0,57.6-6.249a10.032,10.032,0,0,0-.527-3.529,2.007,2.007,0,0,0-2.048-1.384,2.141,2.141,0,0,0-2.043,1.314,9.073,9.073,0,0,0-.646,3.872,9.507,9.507,0,0,0,.413,3.094A2.252,2.252,0,0,0,54.907-1.1Zm10.03-11.487a3.719,3.719,0,0,1,3.533,2.013,9,9,0,0,1,.844,4.263,10.265,10.265,0,0,1-.765,4.245A3.744,3.744,0,0,1,64.929.343a3.626,3.626,0,0,1-3.375-1.969,9.014,9.014,0,0,1-.923-4.412,10.9,10.9,0,0,1,.554-3.683A3.789,3.789,0,0,1,64.937-12.586ZM64.92-1.1a2.251,2.251,0,0,0,1.96-1.09,7.891,7.891,0,0,0,.729-4.061,10.032,10.032,0,0,0-.527-3.529,2.007,2.007,0,0,0-2.048-1.384,2.141,2.141,0,0,0-2.043,1.314,9.073,9.073,0,0,0-.646,3.872,9.507,9.507,0,0,0,.413,3.094A2.252,2.252,0,0,0,64.92-1.1ZM74.95-12.586a3.719,3.719,0,0,1,3.533,2.013,9,9,0,0,1,.844,4.263,10.265,10.265,0,0,1-.765,4.245A3.744,3.744,0,0,1,74.941.343a3.626,3.626,0,0,1-3.375-1.969,9.014,9.014,0,0,1-.923-4.412A10.9,10.9,0,0,1,71.2-9.721,3.789,3.789,0,0,1,74.95-12.586ZM74.932-1.1a2.251,2.251,0,0,0,1.96-1.09,7.891,7.891,0,0,0,.729-4.061,10.032,10.032,0,0,0-.527-3.529,2.007,2.007,0,0,0-2.048-1.384A2.141,2.141,0,0,0,73-9.848a9.073,9.073,0,0,0-.646,3.872,9.507,9.507,0,0,0,.413,3.094A2.252,2.252,0,0,0,74.932-1.1Z" transform="translate(4395 6156.894)" fill="#212429"/>
      <path id="Trazado_987198" data-name="Trazado 987198" d="M4439.3,5550.28h102.1" transform="translate(-52.803 586.114)" fill="none" stroke="#212429" stroke-width="1"/>
    </g>
  </g>
</svg>
