<svg xmlns="http://www.w3.org/2000/svg" xmlns:xlink="http://www.w3.org/1999/xlink" width="108" height="108" viewBox="0 0 108 108">
  <defs>
    <filter id="Trazado_904820" x="0" y="0" width="108" height="108" filterUnits="userSpaceOnUse">
      <feOffset dy="3" input="SourceAlpha"/>
      <feGaussianBlur stdDeviation="3" result="blur"/>
      <feFlood flood-opacity="0.161"/>
      <feComposite operator="in" in2="blur"/>
      <feComposite in="SourceGraphic"/>
    </filter>
    <clipPath id="clip-path">
      <rect id="Rectángulo_408392" data-name="Rectángulo 408392" width="48" height="52" transform="translate(0 0.063)" fill="none"/>
    </clipPath>
  </defs>
  <g id="Grupo_1145540" data-name="Grupo 1145540" transform="translate(-201 -275)">
    <g id="Grupo_1145247" data-name="Grupo 1145247" transform="translate(210 281)">
      <g transform="matrix(1, 0, 0, 1, -9, -6)" filter="url(#Trazado_904820)">
        <g id="Trazado_904820-2" data-name="Trazado 904820" transform="translate(9 6)" fill="#ecf4fa">
          <path d="M 45 88.5 C 39.12687683105469 88.5 33.43022537231445 87.35007476806641 28.06830024719238 85.08217620849609 C 22.88852500915527 82.89131164550781 18.23629951477051 79.75458526611328 14.2408504486084 75.75914764404297 C 10.24541282653809 71.76370239257812 7.108687400817871 67.11147308349609 4.917825222015381 61.93170166015625 C 2.649924993515015 56.56977462768555 1.5 50.87312316894531 1.5 45 C 1.5 39.12687683105469 2.649924993515015 33.43022537231445 4.917825222015381 28.06830024719238 C 7.108687400817871 22.88852500915527 10.24541282653809 18.23629951477051 14.2408504486084 14.2408504486084 C 18.23629951477051 10.24541282653809 22.88852500915527 7.108687400817871 28.06830024719238 4.917825222015381 C 33.43022537231445 2.649924993515015 39.12687683105469 1.5 45 1.5 C 50.87312316894531 1.5 56.56977462768555 2.649924993515015 61.93170166015625 4.917825222015381 C 67.11147308349609 7.108687400817871 71.76370239257812 10.24541282653809 75.75914764404297 14.2408504486084 C 79.75458526611328 18.23629951477051 82.89131164550781 22.88852500915527 85.08217620849609 28.06830024719238 C 87.35007476806641 33.43022537231445 88.5 39.12687683105469 88.5 45 C 88.5 50.87312316894531 87.35007476806641 56.56977462768555 85.08217620849609 61.93170166015625 C 82.89131164550781 67.11147308349609 79.75458526611328 71.76370239257812 75.75914764404297 75.75914764404297 C 71.76370239257812 79.75458526611328 67.11147308349609 82.89131164550781 61.93170166015625 85.08217620849609 C 56.56977462768555 87.35007476806641 50.87312316894531 88.5 45 88.5 Z" stroke="none"/>
          <path d="M 45 3 C 39.32871246337891 3 33.82865524291992 4.110054016113281 28.65262985229492 6.299339294433594 C 23.65165710449219 8.414573669433594 19.15968322753906 11.44334411621094 15.301513671875 15.301513671875 C 11.44334411621094 19.15968322753906 8.414573669433594 23.65165710449219 6.299339294433594 28.65262985229492 C 4.110054016113281 33.82865524291992 3 39.32871246337891 3 45 C 3 50.67128753662109 4.110054016113281 56.17134475708008 6.299339294433594 61.34737396240234 C 8.414573669433594 66.34834289550781 11.44334411621094 70.84031677246094 15.301513671875 74.698486328125 C 19.15968322753906 78.55665588378906 23.65165710449219 81.58542633056641 28.65262985229492 83.70066070556641 C 33.82865524291992 85.88994598388672 39.32871246337891 87 45 87 C 50.67128753662109 87 56.17134475708008 85.88994598388672 61.34737396240234 83.70066070556641 C 66.34834289550781 81.58542633056641 70.84031677246094 78.55665588378906 74.698486328125 74.698486328125 C 78.55665588378906 70.84031677246094 81.58542633056641 66.34834289550781 83.70066070556641 61.34737396240234 C 85.88994598388672 56.17134475708008 87 50.67128753662109 87 45 C 87 39.32871246337891 85.88994598388672 33.82865524291992 83.70066070556641 28.65262985229492 C 81.58542633056641 23.65165710449219 78.55665588378906 19.15968322753906 74.698486328125 15.301513671875 C 70.84031677246094 11.44334411621094 66.34834289550781 8.414573669433594 61.34737396240234 6.299339294433594 C 56.17134475708008 4.110054016113281 50.67128753662109 3 45 3 M 45 0 C 69.85281372070312 0 90 20.14718627929688 90 45 C 90 69.85281372070312 69.85281372070312 90 45 90 C 20.14718627929688 90 0 69.85281372070312 0 45 C 0 20.14718627929688 20.14718627929688 0 45 0 Z" stroke="none" fill="#2a5673"/>
        </g>
      </g>
    </g>
    <g id="Grupo_1145521" data-name="Grupo 1145521" transform="translate(231 300)">
      <path id="Trazado_986985" data-name="Trazado 986985" d="M200.193,81.387v29.966L177,121.615V91.649Z" transform="translate(-153.024 -70.377)" fill="#0acefa"/>
      <path id="Trazado_986986" data-name="Trazado 986986" d="M5.777,81.387v29.966L28.97,121.615V91.649Z" transform="translate(-4.994 -70.377)" fill="#97e4f9"/>
      <path id="Trazado_986987" data-name="Trazado 986987" d="M28.97,26.15,5.777,15.887,28.97,5.625,52.163,15.887Z" transform="translate(-4.994 -4.878)" fill="#c7eefb"/>
      <g id="Grupo_1145516" data-name="Grupo 1145516" transform="translate(0 -0.063)">
        <g id="Grupo_1145515" data-name="Grupo 1145515" clip-path="url(#clip-path)">
          <path id="Trazado_986988" data-name="Trazado 986988" d="M119.252,243.2a.758.758,0,0,0,.308-.066l1.043-.461a.762.762,0,1,0-.616-1.394l-1.043.461a.762.762,0,0,0,.308,1.459" transform="translate(-102.44 -208.495)"/>
          <path id="Trazado_986989" data-name="Trazado 986989" d="M70.482,264.782a.757.757,0,0,0,.308-.066l1.043-.461a.762.762,0,1,0-.616-1.394l-1.043.462a.762.762,0,0,0,.309,1.459" transform="translate(-60.276 -227.151)"/>
          <path id="Trazado_986990" data-name="Trazado 986990" d="M46.1,275.573a.769.769,0,0,0,.308-.065l1.043-.462a.762.762,0,0,0-.616-1.393l-1.043.461a.762.762,0,0,0,.309,1.459" transform="translate(-39.193 -236.481)"/>
          <path id="Trazado_986991" data-name="Trazado 986991" d="M21.713,286.362a.756.756,0,0,0,.308-.065l1.043-.462a.762.762,0,1,0-.617-1.393L21.4,284.9a.762.762,0,0,0,.308,1.459" transform="translate(-18.113 -245.809)"/>
          <path id="Trazado_986992" data-name="Trazado 986992" d="M94.866,253.991a.759.759,0,0,0,.308-.066l1.043-.461a.762.762,0,0,0-.616-1.394l-1.043.462a.762.762,0,0,0,.309,1.459" transform="translate(-81.356 -217.822)"/>
          <path id="Trazado_986993" data-name="Trazado 986993" d="M143.635,232.413a.758.758,0,0,0,.308-.066l1.043-.461a.762.762,0,0,0-.616-1.394l-1.043.461a.762.762,0,0,0,.309,1.459" transform="translate(-123.52 -199.167)"/>
          <path id="Trazado_986994" data-name="Trazado 986994" d="M217.627,241.282a.762.762,0,0,0-.617,1.394l1.043.461a.762.762,0,0,0,.616-1.393Z" transform="translate(-187.223 -208.495)"/>
          <path id="Trazado_986995" data-name="Trazado 986995" d="M242.013,252.071a.762.762,0,0,0-.616,1.394l1.043.461a.762.762,0,1,0,.616-1.393Z" transform="translate(-208.306 -217.822)"/>
          <path id="Trazado_986996" data-name="Trazado 986996" d="M193.243,230.493a.762.762,0,0,0-.616,1.394l1.043.461a.762.762,0,1,0,.617-1.394Z" transform="translate(-166.142 -199.167)"/>
          <path id="Trazado_986997" data-name="Trazado 986997" d="M266.4,262.861a.762.762,0,0,0-.617,1.394l1.043.461a.762.762,0,0,0,.616-1.393Z" transform="translate(-229.388 -227.151)"/>
          <path id="Trazado_986998" data-name="Trazado 986998" d="M315.166,284.442a.762.762,0,1,0-.617,1.393l1.043.462a.762.762,0,0,0,.616-1.394Z" transform="translate(-271.549 -245.809)"/>
        </g>
      </g>
      <g id="Grupo_1145518" data-name="Grupo 1145518" transform="translate(0 -0.063)">
        <g id="Grupo_1145517" data-name="Grupo 1145517" clip-path="url(#clip-path)">
          <path id="Trazado_986999" data-name="Trazado 986999" d="M290.782,273.652a.762.762,0,0,0-.616,1.393l1.043.462a.762.762,0,0,0,.616-1.394Z" transform="translate(-250.469 -236.48)"/>
          <path id="Trazado_987000" data-name="Trazado 987000" d="M47.3,20.957a.762.762,0,0,0,.762-.762V11.024a.761.761,0,0,0-.454-.7L24.415.065a.764.764,0,0,0-.617,0L13.88,4.454A.762.762,0,0,0,14.5,5.847L23.419,1.9a.761.761,0,0,0,1.377,0l20.621,9.125L24.8,20.149a.761.761,0,0,0-1.377,0L2.8,11.024l8.366-3.7a.762.762,0,0,0-.616-1.394l-9.941,4.4a.762.762,0,0,0-.454.7V30.158a.762.762,0,0,0,1.524,0V12.195l21.669,9.588v8.449l-.1.046a.762.762,0,0,0,.1,1.431V50.082L1.676,40.494V33.72a.762.762,0,1,0-1.524,0V40.99a.761.761,0,0,0,.454.7L23.8,51.95a.764.764,0,0,0,.617,0L47.608,41.687a.761.761,0,0,0,.454-.7V23.772a.762.762,0,0,0-1.524,0V40.495L24.869,50.082V31.708a.762.762,0,0,0,.1-1.43l-.1-.046V21.783l21.669-9.588v8a.762.762,0,0,0,.762.762" transform="translate(-0.131 0.048)"/>
        </g>
      </g>
      <g id="Grupo_1145520" data-name="Grupo 1145520" transform="translate(0 -0.063)">
        <g id="Grupo_1145519" data-name="Grupo 1145519" clip-path="url(#clip-path)">
          <path id="Trazado_987001" data-name="Trazado 987001" d="M171.375,87.433a.762.762,0,0,0,1.524,0V85.875a.762.762,0,1,0-1.524,0Z" transform="translate(-148.161 -73.536)"/>
          <path id="Trazado_987002" data-name="Trazado 987002" d="M171.375,57.227a.762.762,0,0,0,1.524,0V55.668a.762.762,0,1,0-1.524,0Z" transform="translate(-148.161 -47.421)"/>
          <path id="Trazado_987003" data-name="Trazado 987003" d="M172.137,27.782a.762.762,0,0,0,.762-.762V25.461a.762.762,0,0,0-1.524,0V27.02a.762.762,0,0,0,.762.762" transform="translate(-148.161 -21.306)"/>
          <path id="Trazado_987004" data-name="Trazado 987004" d="M171.375,117.637a.762.762,0,0,0,1.524,0v-1.559a.762.762,0,1,0-1.524,0Z" transform="translate(-148.161 -99.648)"/>
        </g>
      </g>
    </g>
  </g>
</svg>
