<svg xmlns="http://www.w3.org/2000/svg" xmlns:xlink="http://www.w3.org/1999/xlink" width="108" height="108" viewBox="0 0 108 108">
  <defs>
    <filter id="Trazado_904820" x="0" y="0" width="108" height="108" filterUnits="userSpaceOnUse">
      <feOffset dy="3" input="SourceAlpha"/>
      <feGaussianBlur stdDeviation="3" result="blur"/>
      <feFlood flood-opacity="0.161"/>
      <feComposite operator="in" in2="blur"/>
      <feComposite in="SourceGraphic"/>
    </filter>
    <clipPath id="clip-path">
      <rect id="Rect치ngulo_408395" data-name="Rect치ngulo 408395" width="61" height="62" transform="translate(0 -0.195)" fill="none"/>
    </clipPath>
  </defs>
  <g id="Grupo_1145541" data-name="Grupo 1145541" transform="translate(-201 -939)">
    <g id="Grupo_1145312" data-name="Grupo 1145312" transform="translate(210 945)">
      <g transform="matrix(1, 0, 0, 1, -9, -6)" filter="url(#Trazado_904820)">
        <g id="Trazado_904820-2" data-name="Trazado 904820" transform="translate(9 6)" fill="#fef8e7">
          <path d="M 45 88.5 C 39.12687683105469 88.5 33.43022537231445 87.35007476806641 28.06830024719238 85.08217620849609 C 22.88852500915527 82.89131164550781 18.23629951477051 79.75458526611328 14.2408504486084 75.75914764404297 C 10.24541282653809 71.76370239257812 7.108687400817871 67.11147308349609 4.917825222015381 61.93170166015625 C 2.649924993515015 56.56977462768555 1.5 50.87312316894531 1.5 45 C 1.5 39.12687683105469 2.649924993515015 33.43022537231445 4.917825222015381 28.06830024719238 C 7.108687400817871 22.88852500915527 10.24541282653809 18.23629951477051 14.2408504486084 14.2408504486084 C 18.23629951477051 10.24541282653809 22.88852500915527 7.108687400817871 28.06830024719238 4.917825222015381 C 33.43022537231445 2.649924993515015 39.12687683105469 1.5 45 1.5 C 50.87312316894531 1.5 56.56977462768555 2.649924993515015 61.93170166015625 4.917825222015381 C 67.11147308349609 7.108687400817871 71.76370239257812 10.24541282653809 75.75914764404297 14.2408504486084 C 79.75458526611328 18.23629951477051 82.89131164550781 22.88852500915527 85.08217620849609 28.06830024719238 C 87.35007476806641 33.43022537231445 88.5 39.12687683105469 88.5 45 C 88.5 50.87312316894531 87.35007476806641 56.56977462768555 85.08217620849609 61.93170166015625 C 82.89131164550781 67.11147308349609 79.75458526611328 71.76370239257812 75.75914764404297 75.75914764404297 C 71.76370239257812 79.75458526611328 67.11147308349609 82.89131164550781 61.93170166015625 85.08217620849609 C 56.56977462768555 87.35007476806641 50.87312316894531 88.5 45 88.5 Z" stroke="none"/>
          <path d="M 45 3 C 39.32871246337891 3 33.82865524291992 4.110054016113281 28.65262985229492 6.299339294433594 C 23.65165710449219 8.414573669433594 19.15968322753906 11.44334411621094 15.301513671875 15.301513671875 C 11.44334411621094 19.15968322753906 8.414573669433594 23.65165710449219 6.299339294433594 28.65262985229492 C 4.110054016113281 33.82865524291992 3 39.32871246337891 3 45 C 3 50.67128753662109 4.110054016113281 56.17134475708008 6.299339294433594 61.34737396240234 C 8.414573669433594 66.34834289550781 11.44334411621094 70.84031677246094 15.301513671875 74.698486328125 C 19.15968322753906 78.55665588378906 23.65165710449219 81.58542633056641 28.65262985229492 83.70066070556641 C 33.82865524291992 85.88994598388672 39.32871246337891 87 45 87 C 50.67128753662109 87 56.17134475708008 85.88994598388672 61.34737396240234 83.70066070556641 C 66.34834289550781 81.58542633056641 70.84031677246094 78.55665588378906 74.698486328125 74.698486328125 C 78.55665588378906 70.84031677246094 81.58542633056641 66.34834289550781 83.70066070556641 61.34737396240234 C 85.88994598388672 56.17134475708008 87 50.67128753662109 87 45 C 87 39.32871246337891 85.88994598388672 33.82865524291992 83.70066070556641 28.65262985229492 C 81.58542633056641 23.65165710449219 78.55665588378906 19.15968322753906 74.698486328125 15.301513671875 C 70.84031677246094 11.44334411621094 66.34834289550781 8.414573669433594 61.34737396240234 6.299339294433594 C 56.17134475708008 4.110054016113281 50.67128753662109 3 45 3 M 45 0 C 69.85281372070312 0 90 20.14718627929688 90 45 C 90 69.85281372070312 69.85281372070312 90 45 90 C 20.14718627929688 90 0 69.85281372070312 0 45 C 0 20.14718627929688 20.14718627929688 0 45 0 Z" stroke="none" fill="#493a0a"/>
        </g>
      </g>
    </g>
    <g id="Grupo_1145528" data-name="Grupo 1145528" transform="translate(226 959.337)">
      <path id="Trazado_987005" data-name="Trazado 987005" d="M59.934,5.625,108.261,52.9H59.934Z" transform="translate(-50.305 -4.749)" fill="#fcdd2e"/>
      <path id="Trazado_987006" data-name="Trazado 987006" d="M104.215,52.9h4.046L59.934,5.625V9.583Z" transform="translate(-50.305 -4.749)" fill="#f9c301"/>
      <g id="Grupo_1145523" data-name="Grupo 1145523" transform="translate(0 -0.142)">
        <g id="Grupo_1145522" data-name="Grupo 1145522" clip-path="url(#clip-path)">
          <path id="Trazado_987007" data-name="Trazado 987007" d="M290.551,248.457a11.782,11.782,0,0,0-3.371,8.265H299Z" transform="translate(-241.043 -208.427)" fill="#fba65c"/>
          <path id="Trazado_987008" data-name="Trazado 987008" d="M299.1,248.457a11.874,11.874,0,0,0-1.734,2.262l6.136,6h4.047Z" transform="translate(-249.597 -208.427)" fill="#fb9538"/>
        </g>
      </g>
      <g id="Grupo_1145525" data-name="Grupo 1145525" transform="translate(0 -0.142)">
        <g id="Grupo_1145524" data-name="Grupo 1145524" clip-path="url(#clip-path)">
          <rect id="Rect치ngulo_408396" data-name="Rect치ngulo 408396" width="6.304" height="6.304" transform="translate(9.629 41.991)" fill="#d6e4ea"/>
          <path id="Trazado_987009" data-name="Trazado 987009" d="M283.351,159.225l-16.188-15.836a.9.9,0,0,0-1.264,1.292l16.188,15.837a.9.9,0,0,0,1.264-1.292" transform="translate(-222.953 -120.022)"/>
          <path id="Trazado_987010" data-name="Trazado 987010" d="M133.8,15.45a.9.9,0,1,0,1.264-1.291L120.942.346a.9.9,0,0,0-1.264,1.292Z" transform="translate(-100.223 0.04)"/>
          <path id="Trazado_987011" data-name="Trazado 987011" d="M86.664,187.914a.9.9,0,0,0-1.264,1.291l8.437,8.254a12.629,12.629,0,0,0-2.988,7.325H62.42v-5.4a.9.9,0,0,0-.9-.9h-5.4v-4.009a.9.9,0,1,0-1.807,0v11.216a.9.9,0,0,0,.9.9H103.54a.9.9,0,0,0,.632-1.549ZM56.116,200.289h4.5v4.5h-4.5Zm36.548,4.5a10.82,10.82,0,0,1,2.47-6.056l6.19,6.056Z" transform="translate(-45.584 -157.395)"/>
          <path id="Trazado_987012" data-name="Trazado 987012" d="M55.213,33.629a.9.9,0,0,0,.9-.9V3.052L82.381,28.745a.9.9,0,1,0,1.264-1.292L55.845.257A.9.9,0,0,0,54.309.9V32.726a.9.9,0,0,0,.9.9" transform="translate(-45.584 0.114)"/>
        </g>
      </g>
      <g id="Grupo_1145527" data-name="Grupo 1145527" transform="translate(0 -0.142)">
        <g id="Grupo_1145526" data-name="Grupo 1145526" clip-path="url(#clip-path)">
          <path id="Trazado_987013" data-name="Trazado 987013" d="M170.807,323.7a2.877,2.877,0,0,0-2.873,2.874v5.91a.9.9,0,1,0,1.807,0V329.45h2.132v3.036a.9.9,0,1,0,1.807,0v-5.91a2.877,2.877,0,0,0-2.874-2.874m-1.066,3.94v-1.066a1.066,1.066,0,1,1,2.132,0v1.066Z" transform="translate(-140.955 -271.585)"/>
          <path id="Trazado_987014" data-name="Trazado 987014" d="M3.233,122.617H1.263a.9.9,0,0,0-.9.9V131.4a.9.9,0,0,0,.9.9h1.97a2.871,2.871,0,0,0,2.089-4.843,2.871,2.871,0,0,0-2.089-4.843m-1.066,1.807H3.233a1.066,1.066,0,1,1,0,2.133H2.166ZM3.233,130.5H2.166v-2.132H3.233a1.066,1.066,0,1,1,0,2.132" transform="translate(-0.301 -102.804)"/>
          <path id="Trazado_987015" data-name="Trazado 987015" d="M232.932,90.613a2.877,2.877,0,0,0,2.874-2.874.9.9,0,0,0-1.807,0,1.066,1.066,0,1,1-2.132,0V83.8a1.066,1.066,0,0,1,2.132,0,.9.9,0,1,0,1.807,0,2.874,2.874,0,0,0-5.747,0v3.94a2.877,2.877,0,0,0,2.873,2.874" transform="translate(-193.099 -67.811)"/>
        </g>
      </g>
    </g>
  </g>
</svg>
