<svg xmlns="http://www.w3.org/2000/svg" xmlns:xlink="http://www.w3.org/1999/xlink" width="108" height="108" viewBox="0 0 108 108">
  <defs>
    <filter id="Trazado_904820" x="0" y="0" width="108" height="108" filterUnits="userSpaceOnUse">
      <feOffset dy="3" input="SourceAlpha"/>
      <feGaussianBlur stdDeviation="3" result="blur"/>
      <feFlood flood-opacity="0.161"/>
      <feComposite operator="in" in2="blur"/>
      <feComposite in="SourceGraphic"/>
    </filter>
    <clipPath id="clip-path">
      <rect id="Rectángulo_408389" data-name="Rectángulo 408389" width="52" height="52" transform="translate(0 0)" fill="none"/>
    </clipPath>
  </defs>
  <g id="Grupo_1145539" data-name="Grupo 1145539" transform="translate(-201 -4799)">
    <g id="Grupo_1145312" data-name="Grupo 1145312" transform="translate(210 4805)">
      <g transform="matrix(1, 0, 0, 1, -9, -6)" filter="url(#Trazado_904820)">
        <g id="Trazado_904820-2" data-name="Trazado 904820" transform="translate(9 6)" fill="#fef8e7">
          <path d="M 45 88.5 C 39.12687683105469 88.5 33.43022537231445 87.35007476806641 28.06830024719238 85.08217620849609 C 22.88852500915527 82.89131164550781 18.23629951477051 79.75458526611328 14.2408504486084 75.75914764404297 C 10.24541282653809 71.76370239257812 7.108687400817871 67.11147308349609 4.917825222015381 61.93170166015625 C 2.649924993515015 56.56977462768555 1.5 50.87312316894531 1.5 45 C 1.5 39.12687683105469 2.649924993515015 33.43022537231445 4.917825222015381 28.06830024719238 C 7.108687400817871 22.88852500915527 10.24541282653809 18.23629951477051 14.2408504486084 14.2408504486084 C 18.23629951477051 10.24541282653809 22.88852500915527 7.108687400817871 28.06830024719238 4.917825222015381 C 33.43022537231445 2.649924993515015 39.12687683105469 1.5 45 1.5 C 50.87312316894531 1.5 56.56977462768555 2.649924993515015 61.93170166015625 4.917825222015381 C 67.11147308349609 7.108687400817871 71.76370239257812 10.24541282653809 75.75914764404297 14.2408504486084 C 79.75458526611328 18.23629951477051 82.89131164550781 22.88852500915527 85.08217620849609 28.06830024719238 C 87.35007476806641 33.43022537231445 88.5 39.12687683105469 88.5 45 C 88.5 50.87312316894531 87.35007476806641 56.56977462768555 85.08217620849609 61.93170166015625 C 82.89131164550781 67.11147308349609 79.75458526611328 71.76370239257812 75.75914764404297 75.75914764404297 C 71.76370239257812 79.75458526611328 67.11147308349609 82.89131164550781 61.93170166015625 85.08217620849609 C 56.56977462768555 87.35007476806641 50.87312316894531 88.5 45 88.5 Z" stroke="none"/>
          <path d="M 45 3 C 39.32871246337891 3 33.82865524291992 4.110054016113281 28.65262985229492 6.299339294433594 C 23.65165710449219 8.414573669433594 19.15968322753906 11.44334411621094 15.301513671875 15.301513671875 C 11.44334411621094 19.15968322753906 8.414573669433594 23.65165710449219 6.299339294433594 28.65262985229492 C 4.110054016113281 33.82865524291992 3 39.32871246337891 3 45 C 3 50.67128753662109 4.110054016113281 56.17134475708008 6.299339294433594 61.34737396240234 C 8.414573669433594 66.34834289550781 11.44334411621094 70.84031677246094 15.301513671875 74.698486328125 C 19.15968322753906 78.55665588378906 23.65165710449219 81.58542633056641 28.65262985229492 83.70066070556641 C 33.82865524291992 85.88994598388672 39.32871246337891 87 45 87 C 50.67128753662109 87 56.17134475708008 85.88994598388672 61.34737396240234 83.70066070556641 C 66.34834289550781 81.58542633056641 70.84031677246094 78.55665588378906 74.698486328125 74.698486328125 C 78.55665588378906 70.84031677246094 81.58542633056641 66.34834289550781 83.70066070556641 61.34737396240234 C 85.88994598388672 56.17134475708008 87 50.67128753662109 87 45 C 87 39.32871246337891 85.88994598388672 33.82865524291992 83.70066070556641 28.65262985229492 C 81.58542633056641 23.65165710449219 78.55665588378906 19.15968322753906 74.698486328125 15.301513671875 C 70.84031677246094 11.44334411621094 66.34834289550781 8.414573669433594 61.34737396240234 6.299339294433594 C 56.17134475708008 4.110054016113281 50.67128753662109 3 45 3 M 45 0 C 69.85281372070312 0 90 20.14718627929688 90 45 C 90 69.85281372070312 69.85281372070312 90 45 90 C 20.14718627929688 90 0 69.85281372070312 0 45 C 0 20.14718627929688 20.14718627929688 0 45 0 Z" stroke="none" fill="#493a0a"/>
        </g>
      </g>
    </g>
    <g id="Grupo_1145514" data-name="Grupo 1145514" transform="translate(231 4824.13)">
      <path id="Trazado_986979" data-name="Trazado 986979" d="M99.57,5.625V56.039h37.708Zm8.2,24.645L120.91,47.841H107.767Z" transform="translate(-86.103 -4.929)" fill="#fcdd2e"/>
      <path id="Trazado_986980" data-name="Trazado 986980" d="M99.57,5.625V8.991l35.19,47.047h2.518Z" transform="translate(-86.103 -4.929)" fill="#f9c301"/>
      <rect id="Rectángulo_408386" data-name="Rectángulo 408386" width="8.197" height="50.414" transform="translate(0.761 0.696)" fill="#fba65c"/>
      <rect id="Rectángulo_408387" data-name="Rectángulo 408387" width="1.947" height="50.414" transform="translate(7.011 0.696)" fill="#fb9538"/>
      <g id="Grupo_1145509" data-name="Grupo 1145509" transform="translate(0 -0.13)">
        <g id="Grupo_1145508" data-name="Grupo 1145508" clip-path="url(#clip-path)">
          <path id="Trazado_986981" data-name="Trazado 986981" d="M5.625,5.625V9.314H8.187a1.537,1.537,0,1,0,3.074,0h2.562V5.625Z" transform="translate(-4.864 -4.799)" fill="#d6e4ea"/>
          <rect id="Rectángulo_408388" data-name="Rectángulo 408388" width="1.947" height="3.689" transform="translate(7.011 0.826)" fill="#c2d0da"/>
        </g>
      </g>
      <g id="Grupo_1145511" data-name="Grupo 1145511" transform="translate(0 -0.13)">
        <g id="Grupo_1145510" data-name="Grupo 1145510" clip-path="url(#clip-path)">
          <path id="Trazado_986982" data-name="Trazado 986982" d="M155.076,182.264a.761.761,0,0,0-.521.722v17.571a.761.761,0,0,0,.761.761h13.142a.761.761,0,0,0,.609-1.217L155.925,182.53a.761.761,0,0,0-.849-.266m1,3.009L166.939,199.8H156.077Z" transform="translate(-133.652 -157.514)"/>
          <path id="Trazado_986983" data-name="Trazado 986983" d="M133.023,50.719,95.315.306a.761.761,0,0,0-1.37.455V51.175a.761.761,0,0,0,.761.761h27.4a.761.761,0,1,0,0-1.522H95.467v-3.4h1.289a.761.761,0,1,0,0-1.522H95.467V42.508H97.78a.761.761,0,0,0,0-1.522H95.467V38h1.289a.761.761,0,1,0,0-1.522H95.467V33.492H97.78a.761.761,0,0,0,0-1.522H95.467V28.983h1.289a.761.761,0,1,0,0-1.522H95.467V24.474H97.78a.761.761,0,0,0,0-1.522H95.467V19.966h1.289a.761.761,0,1,0,0-1.522H95.467V15.458H97.78a.761.761,0,0,0,0-1.522H95.467V10.949h1.289a.761.761,0,1,0,0-1.522H95.467V3.048l35.428,47.366h-5.227a.761.761,0,0,0,0,1.522h6.745a.76.76,0,0,0,.609-1.216" transform="translate(-81.239 0.065)"/>
        </g>
      </g>
      <g id="Grupo_1145513" data-name="Grupo 1145513" transform="translate(0 -0.13)">
        <g id="Grupo_1145512" data-name="Grupo 1145512" clip-path="url(#clip-path)">
          <path id="Trazado_986984" data-name="Trazado 986984" d="M8.958,0H.761A.761.761,0,0,0,0,.761V51.174a.761.761,0,0,0,.761.761h8.2a.761.761,0,0,0,.761-.761v-7.7a.761.761,0,1,0-1.522,0v6.94H1.522v-3.4H2.81a.761.761,0,0,0,0-1.522H1.522V42.508H3.835a.761.761,0,1,0,0-1.522H1.522V38H2.81a.761.761,0,1,0,0-1.522H1.522V33.491H3.835a.761.761,0,0,0,0-1.522H1.522V28.983H2.81a.761.761,0,1,0,0-1.522H1.522V24.474H3.835a.761.761,0,1,0,0-1.522H1.522V19.965H2.81a.761.761,0,1,0,0-1.522H1.522V15.457H3.835a.761.761,0,0,0,0-1.522H1.522V10.949H2.81a.761.761,0,1,0,0-1.522H1.522V5.21h1.17a2.3,2.3,0,0,0,4.336,0H8.2V39.9a.761.761,0,1,0,1.522,0V.761A.761.761,0,0,0,8.958,0M6.4,3.689a.761.761,0,0,0-.761.761.776.776,0,1,1-1.552,0,.761.761,0,0,0-.761-.761h-1.8V1.522H8.2V3.689Z" transform="translate(0 0.065)"/>
        </g>
      </g>
    </g>
  </g>
</svg>
