<svg xmlns="http://www.w3.org/2000/svg" xmlns:xlink="http://www.w3.org/1999/xlink" width="108" height="108" viewBox="0 0 108 108">
  <defs>
    <filter id="Trazado_904820" x="0" y="0" width="108" height="108" filterUnits="userSpaceOnUse">
      <feOffset dy="3" input="SourceAlpha"/>
      <feGaussianBlur stdDeviation="3" result="blur"/>
      <feFlood flood-opacity="0.161"/>
      <feComposite operator="in" in2="blur"/>
      <feComposite in="SourceGraphic"/>
    </filter>
    <clipPath id="clip-path">
      <rect id="Rectángulo_408378" data-name="Rectángulo 408378" width="54" height="60" transform="translate(0 -0.324)" fill="none"/>
    </clipPath>
  </defs>
  <g id="Grupo_1145313" data-name="Grupo 1145313" transform="translate(9 6)">
    <g transform="matrix(1, 0, 0, 1, -9, -6)" filter="url(#Trazado_904820)">
      <g id="Trazado_904820-2" data-name="Trazado 904820" transform="translate(9 6)" fill="#fef8e7">
        <path d="M 45 88.5 C 39.12687683105469 88.5 33.43022537231445 87.35007476806641 28.06830024719238 85.08217620849609 C 22.88852500915527 82.89131164550781 18.23629951477051 79.75458526611328 14.2408504486084 75.75914764404297 C 10.24541282653809 71.76370239257812 7.108687400817871 67.11147308349609 4.917825222015381 61.93170166015625 C 2.649924993515015 56.56977462768555 1.5 50.87312316894531 1.5 45 C 1.5 39.12687683105469 2.649924993515015 33.43022537231445 4.917825222015381 28.06830024719238 C 7.108687400817871 22.88852500915527 10.24541282653809 18.23629951477051 14.2408504486084 14.2408504486084 C 18.23629951477051 10.24541282653809 22.88852500915527 7.108687400817871 28.06830024719238 4.917825222015381 C 33.43022537231445 2.649924993515015 39.12687683105469 1.5 45 1.5 C 50.87312316894531 1.5 56.56977462768555 2.649924993515015 61.93170166015625 4.917825222015381 C 67.11147308349609 7.108687400817871 71.76370239257812 10.24541282653809 75.75914764404297 14.2408504486084 C 79.75458526611328 18.23629951477051 82.89131164550781 22.88852500915527 85.08217620849609 28.06830024719238 C 87.35007476806641 33.43022537231445 88.5 39.12687683105469 88.5 45 C 88.5 50.87312316894531 87.35007476806641 56.56977462768555 85.08217620849609 61.93170166015625 C 82.89131164550781 67.11147308349609 79.75458526611328 71.76370239257812 75.75914764404297 75.75914764404297 C 71.76370239257812 79.75458526611328 67.11147308349609 82.89131164550781 61.93170166015625 85.08217620849609 C 56.56977462768555 87.35007476806641 50.87312316894531 88.5 45 88.5 Z" stroke="none"/>
        <path d="M 45 3 C 39.32871246337891 3 33.82865524291992 4.110054016113281 28.65262985229492 6.299339294433594 C 23.65165710449219 8.414573669433594 19.15968322753906 11.44334411621094 15.301513671875 15.301513671875 C 11.44334411621094 19.15968322753906 8.414573669433594 23.65165710449219 6.299339294433594 28.65262985229492 C 4.110054016113281 33.82865524291992 3 39.32871246337891 3 45 C 3 50.67128753662109 4.110054016113281 56.17134475708008 6.299339294433594 61.34737396240234 C 8.414573669433594 66.34834289550781 11.44334411621094 70.84031677246094 15.301513671875 74.698486328125 C 19.15968322753906 78.55665588378906 23.65165710449219 81.58542633056641 28.65262985229492 83.70066070556641 C 33.82865524291992 85.88994598388672 39.32871246337891 87 45 87 C 50.67128753662109 87 56.17134475708008 85.88994598388672 61.34737396240234 83.70066070556641 C 66.34834289550781 81.58542633056641 70.84031677246094 78.55665588378906 74.698486328125 74.698486328125 C 78.55665588378906 70.84031677246094 81.58542633056641 66.34834289550781 83.70066070556641 61.34737396240234 C 85.88994598388672 56.17134475708008 87 50.67128753662109 87 45 C 87 39.32871246337891 85.88994598388672 33.82865524291992 83.70066070556641 28.65262985229492 C 81.58542633056641 23.65165710449219 78.55665588378906 19.15968322753906 74.698486328125 15.301513671875 C 70.84031677246094 11.44334411621094 66.34834289550781 8.414573669433594 61.34737396240234 6.299339294433594 C 56.17134475708008 4.110054016113281 50.67128753662109 3 45 3 M 45 0 C 69.85281372070312 0 90 20.14718627929688 90 45 C 90 69.85281372070312 69.85281372070312 90 45 90 C 20.14718627929688 90 0 69.85281372070312 0 45 C 0 20.14718627929688 20.14718627929688 0 45 0 Z" stroke="none" fill="#493a0a"/>
      </g>
    </g>
    <g id="Grupo_1145536" data-name="Grupo 1145536" transform="translate(17.999 12.314)">
      <g id="Grupo_1145497" data-name="Grupo 1145497" transform="translate(0 0.01)">
        <g id="Grupo_1145496" data-name="Grupo 1145496" clip-path="url(#clip-path)">
          <path id="Trazado_986912" data-name="Trazado 986912" d="M33.328,5.561,7.824,56.8c1.686-2.877,12.461-5.1,25.5-5.1s23.818,2.219,25.5,5.1Z" transform="translate(-6.609 -4.673)" fill="#fc8086"/>
          <path id="Trazado_986913" data-name="Trazado 986913" d="M172,5.561l18.22,47.873c3.877.889,6.518,2.06,7.284,3.367Z" transform="translate(-145.281 -4.673)" fill="#fa4954"/>
          <path id="Trazado_986914" data-name="Trazado 986914" d="M57.806,308.486c0,3.25-11.522,5.886-25.735,5.886s-25.735-2.635-25.735-5.886S17.858,302.6,32.071,302.6s25.735,2.635,25.735,5.886" transform="translate(-5.352 -255.569)" fill="#f9c301"/>
        </g>
      </g>
      <g id="Grupo_1145499" data-name="Grupo 1145499" transform="translate(0 0.01)">
        <g id="Grupo_1145498" data-name="Grupo 1145498" transform="translate(0 0)" clip-path="url(#clip-path)">
          <path id="Trazado_986915" data-name="Trazado 986915" d="M53.606,187.724S40.558,161.51,40.558,161.51a.874.874,0,1,0-1.565.778l11.492,23.09a42.506,42.506,0,0,0-10.691-2.5.874.874,0,1,0-.218,1.734c9.182,1.153,12.6,3.247,12.6,4.3,0,.646-1.445,2.071-6.859,3.31a84.731,84.731,0,0,1-18,1.7,84.731,84.731,0,0,1-18-1.7c-5.414-1.239-6.859-2.663-6.859-3.31s1.445-2.072,6.859-3.31a83.212,83.212,0,0,1,17.129-1.7v1.343a.874.874,0,1,0,1.748,0V183.9c.75.006,1.5.019,2.242.039a.874.874,0,0,0,.048-1.747c-1.045-.029-2.109-.044-3.165-.044A86.523,86.523,0,0,0,8.927,183.89a27.192,27.192,0,0,0-4.773,1.487l4.978-10a.874.874,0,1,0-1.565-.779S.939,187.9.9,188l-.008.016h0a2.312,2.312,0,0,0-.181.892c0,2.08,2.764,3.766,8.216,5.014a86.521,86.521,0,0,0,18.392,1.746,86.513,86.513,0,0,0,18.392-1.746c5.452-1.247,8.217-2.934,8.217-5.014a2.363,2.363,0,0,0-.323-1.18" transform="translate(-0.601 -135.987)"/>
          <path id="Trazado_986916" data-name="Trazado 986916" d="M56.614,36.053a.874.874,0,0,0,1.172-.393L73.255,4.581V5.9A.874.874,0,1,0,75,5.9V4.581L83.973,22.6a.874.874,0,0,0,1.565-.779L74.911.474a.882.882,0,0,0-1.564,0L56.221,34.882a.874.874,0,0,0,.393,1.172h0" transform="translate(-47.41 0.024)"/>
        </g>
      </g>
      <g id="Grupo_1145501" data-name="Grupo 1145501" transform="translate(0 0.01)">
        <g id="Grupo_1145500" data-name="Grupo 1145500" clip-path="url(#clip-path)">
          <path id="Trazado_986917" data-name="Trazado 986917" d="M168.123,108.079a.874.874,0,1,0-1.748,0v1.368a.874.874,0,1,0,1.748,0Z" transform="translate(-140.53 -90.527)"/>
          <path id="Trazado_986918" data-name="Trazado 986918" d="M168.123,191.763a.874.874,0,1,0-1.748,0v1.368a.874.874,0,1,0,1.748,0Z" transform="translate(-140.53 -161.211)"/>
          <path id="Trazado_986919" data-name="Trazado 986919" d="M168.123,135.974a.874.874,0,1,0-1.748,0v1.368a.874.874,0,1,0,1.748,0Z" transform="translate(-140.53 -114.089)"/>
          <path id="Trazado_986920" data-name="Trazado 986920" d="M168.123,247.552a.874.874,0,0,0-1.748,0v1.368a.874.874,0,1,0,1.748,0Z" transform="translate(-140.53 -208.334)"/>
          <path id="Trazado_986921" data-name="Trazado 986921" d="M167.249,274.572a.874.874,0,0,0-.874.874v1.368a.874.874,0,1,0,1.748,0v-1.368a.874.874,0,0,0-.874-.874" transform="translate(-140.53 -231.895)"/>
          <path id="Trazado_986922" data-name="Trazado 986922" d="M168.123,219.657a.874.874,0,0,0-1.748,0v1.368a.874.874,0,1,0,1.748,0Z" transform="translate(-140.53 -184.772)"/>
          <path id="Trazado_986923" data-name="Trazado 986923" d="M168.123,163.868a.874.874,0,0,0-1.748,0v1.368a.874.874,0,1,0,1.748,0Z" transform="translate(-140.53 -137.65)"/>
          <path id="Trazado_986924" data-name="Trazado 986924" d="M168.123,52.29a.874.874,0,1,0-1.748,0v1.369a.874.874,0,1,0,1.748,0Z" transform="translate(-140.53 -43.405)"/>
          <path id="Trazado_986925" data-name="Trazado 986925" d="M168.123,80.185a.874.874,0,1,0-1.748,0v1.368a.874.874,0,1,0,1.748,0Z" transform="translate(-140.53 -66.966)"/>
          <path id="Trazado_986926" data-name="Trazado 986926" d="M167.249,330.361a.874.874,0,0,0-.874.874v.7a.874.874,0,0,0,.874.874h.7a1.543,1.543,0,0,0-.7-2.447" transform="translate(-140.53 -279.017)"/>
          <path id="Trazado_986927" data-name="Trazado 986927" d="M219.519,334.861h-1.352a.874.874,0,0,0,0,1.748h1.352a.874.874,0,0,0,0-1.748" transform="translate(-183.538 -282.818)"/>
          <path id="Trazado_986928" data-name="Trazado 986928" d="M191.956,334.861H190.6a.874.874,0,1,0,0,1.748h1.352a.874.874,0,0,0,0-1.748" transform="translate(-160.256 -282.818)"/>
          <path id="Trazado_986929" data-name="Trazado 986929" d="M274.64,336.609a.874.874,0,1,0,0-1.748h-1.352a.874.874,0,0,0,0,1.748Z" transform="translate(-230.096 -282.818)"/>
          <path id="Trazado_986930" data-name="Trazado 986930" d="M302.2,336.609a.874.874,0,0,0,0-1.748h-1.352a.874.874,0,0,0,0,1.748Z" transform="translate(-253.377 -282.818)"/>
          <path id="Trazado_986931" data-name="Trazado 986931" d="M247.081,336.609a.874.874,0,0,0,0-1.748h-1.352a.874.874,0,0,0,0,1.748Z" transform="translate(-206.818 -282.818)"/>
          <path id="Trazado_986932" data-name="Trazado 986932" d="M128.343,168.227a.874.874,0,0,0,.874-.874V165a2.054,2.054,0,0,0-2.052-2.051h-1.48V160.29a.874.874,0,1,0-1.748,0v7.063a.874.874,0,0,0,1.748,0V164.7h1.48a.3.3,0,0,1,.3.3v2.354a.874.874,0,0,0,.874.874" transform="translate(-104.685 -134.627)"/>
          <path id="Trazado_986933" data-name="Trazado 986933" d="M213.33,274.441a2.525,2.525,0,0,0-2.522-2.522h-1.026a.874.874,0,0,0-1.731.167v5.886a.874.874,0,0,0,1.748,0v-4.305h1.01a.775.775,0,0,1,.774.774.874.874,0,1,0,1.748,0" transform="translate(-175.731 -229.057)"/>
        </g>
      </g>
    </g>
  </g>
</svg>
