<svg xmlns="http://www.w3.org/2000/svg" xmlns:xlink="http://www.w3.org/1999/xlink" width="108" height="108" viewBox="0 0 108 108">
  <defs>
    <filter id="Trazado_904820" x="0" y="0" width="108" height="108" filterUnits="userSpaceOnUse">
      <feOffset dy="3" input="SourceAlpha"/>
      <feGaussianBlur stdDeviation="3" result="blur"/>
      <feFlood flood-opacity="0.161"/>
      <feComposite operator="in" in2="blur"/>
      <feComposite in="SourceGraphic"/>
    </filter>
    <clipPath id="clip-path">
      <rect id="Rectángulo_408383" data-name="Rectángulo 408383" width="43.709" height="57.865" fill="none"/>
    </clipPath>
  </defs>
  <g id="Grupo_1145314" data-name="Grupo 1145314" transform="translate(9 6)">
    <g transform="matrix(1, 0, 0, 1, -9, -6)" filter="url(#Trazado_904820)">
      <g id="Trazado_904820-2" data-name="Trazado 904820" transform="translate(9 6)" fill="#ecf4fa">
        <path d="M 45 88.5 C 39.12687683105469 88.5 33.43022537231445 87.35007476806641 28.06830024719238 85.08217620849609 C 22.88852500915527 82.89131164550781 18.23629951477051 79.75458526611328 14.2408504486084 75.75914764404297 C 10.24541282653809 71.76370239257812 7.108687400817871 67.11147308349609 4.917825222015381 61.93170166015625 C 2.649924993515015 56.56977462768555 1.5 50.87312316894531 1.5 45 C 1.5 39.12687683105469 2.649924993515015 33.43022537231445 4.917825222015381 28.06830024719238 C 7.108687400817871 22.88852500915527 10.24541282653809 18.23629951477051 14.2408504486084 14.2408504486084 C 18.23629951477051 10.24541282653809 22.88852500915527 7.108687400817871 28.06830024719238 4.917825222015381 C 33.43022537231445 2.649924993515015 39.12687683105469 1.5 45 1.5 C 50.87312316894531 1.5 56.56977462768555 2.649924993515015 61.93170166015625 4.917825222015381 C 67.11147308349609 7.108687400817871 71.76370239257812 10.24541282653809 75.75914764404297 14.2408504486084 C 79.75458526611328 18.23629951477051 82.89131164550781 22.88852500915527 85.08217620849609 28.06830024719238 C 87.35007476806641 33.43022537231445 88.5 39.12687683105469 88.5 45 C 88.5 50.87312316894531 87.35007476806641 56.56977462768555 85.08217620849609 61.93170166015625 C 82.89131164550781 67.11147308349609 79.75458526611328 71.76370239257812 75.75914764404297 75.75914764404297 C 71.76370239257812 79.75458526611328 67.11147308349609 82.89131164550781 61.93170166015625 85.08217620849609 C 56.56977462768555 87.35007476806641 50.87312316894531 88.5 45 88.5 Z" stroke="none"/>
        <path d="M 45 3 C 39.32871246337891 3 33.82865524291992 4.110054016113281 28.65262985229492 6.299339294433594 C 23.65165710449219 8.414573669433594 19.15968322753906 11.44334411621094 15.301513671875 15.301513671875 C 11.44334411621094 19.15968322753906 8.414573669433594 23.65165710449219 6.299339294433594 28.65262985229492 C 4.110054016113281 33.82865524291992 3 39.32871246337891 3 45 C 3 50.67128753662109 4.110054016113281 56.17134475708008 6.299339294433594 61.34737396240234 C 8.414573669433594 66.34834289550781 11.44334411621094 70.84031677246094 15.301513671875 74.698486328125 C 19.15968322753906 78.55665588378906 23.65165710449219 81.58542633056641 28.65262985229492 83.70066070556641 C 33.82865524291992 85.88994598388672 39.32871246337891 87 45 87 C 50.67128753662109 87 56.17134475708008 85.88994598388672 61.34737396240234 83.70066070556641 C 66.34834289550781 81.58542633056641 70.84031677246094 78.55665588378906 74.698486328125 74.698486328125 C 78.55665588378906 70.84031677246094 81.58542633056641 66.34834289550781 83.70066070556641 61.34737396240234 C 85.88994598388672 56.17134475708008 87 50.67128753662109 87 45 C 87 39.32871246337891 85.88994598388672 33.82865524291992 83.70066070556641 28.65262985229492 C 81.58542633056641 23.65165710449219 78.55665588378906 19.15968322753906 74.698486328125 15.301513671875 C 70.84031677246094 11.44334411621094 66.34834289550781 8.414573669433594 61.34737396240234 6.299339294433594 C 56.17134475708008 4.110054016113281 50.67128753662109 3 45 3 M 45 0 C 69.85281372070312 0 90 20.14718627929688 90 45 C 90 69.85281372070312 69.85281372070312 90 45 90 C 20.14718627929688 90 0 69.85281372070312 0 45 C 0 20.14718627929688 20.14718627929688 0 45 0 Z" stroke="none" fill="#2a5673"/>
      </g>
    </g>
    <g id="Grupo_1145537" data-name="Grupo 1145537" transform="translate(22.879 16.135)">
      <path id="Trazado_986934" data-name="Trazado 986934" d="M44.409,82.9h4L34.819,120.349l-3.558-1.208Z" transform="translate(-26.55 -70.409)" fill="#97e4f9"/>
      <g id="Grupo_1145504" data-name="Grupo 1145504">
        <g id="Grupo_1145503" data-name="Grupo 1145503" clip-path="url(#clip-path)">
          <path id="Trazado_986935" data-name="Trazado 986935" d="M58.666,82.9h-4L53.182,87a6.885,6.885,0,0,0,.985,1.06.916.916,0,0,1,.264,1L43.343,119.759l1.737.59Z" transform="translate(-36.812 -70.409)" fill="#0acefa"/>
          <path id="Trazado_986936" data-name="Trazado 986936" d="M25.116,306.648a3.442,3.442,0,1,1-4.833.034,3.417,3.417,0,0,1,4.833-.034" transform="translate(-16.362 -259.603)" fill="#d6e4ea"/>
          <path id="Trazado_986937" data-name="Trazado 986937" d="M162.171,119.141l-3.558,1.208L145.027,82.9h4Z" transform="translate(-123.173 -70.409)" fill="#97e4f9"/>
          <path id="Trazado_986938" data-name="Trazado 986938" d="M162.171,119.141,149.023,82.9h-4l2.336,6.439a6.778,6.778,0,0,0,1.237-.6.456.456,0,0,1,.669.231l11.173,30.753Z" transform="translate(-123.173 -70.409)" fill="#0acefa"/>
          <path id="Trazado_986939" data-name="Trazado 986939" d="M231.133,306.7a3.394,3.394,0,1,1-4.833-.034,3.418,3.418,0,0,1,4.833.034" transform="translate(-191.362 -259.622)" fill="#d6e4ea"/>
          <rect id="Rectángulo_408381" data-name="Rectángulo 408381" width="4.567" height="9.133" transform="translate(19.571 0.848)" fill="#8f818f"/>
          <path id="Trazado_986940" data-name="Trazado 986940" d="M134.442,37.838a6.834,6.834,0,0,0-4.567,0v3.946h4.567Z" transform="translate(-110.304 -31.802)" fill="#786e79"/>
          <path id="Trazado_986941" data-name="Trazado 986941" d="M122.545,53.975a4.587,4.587,0,1,1-6.448.038,4.56,4.56,0,0,1,6.448-.038" transform="translate(-97.452 -44.723)" fill="#fcdd2e"/>
          <path id="Trazado_986942" data-name="Trazado 986942" d="M125.218,56.836a4.566,4.566,0,0,1-6.257,6.257,4.567,4.567,0,1,0,6.257-6.257" transform="translate(-101.035 -48.271)" fill="#f9c301"/>
          <rect id="Rectángulo_408382" data-name="Rectángulo 408382" width="4.567" height="3.425" transform="translate(19.571 31.102)" fill="#c2d0da"/>
          <path id="Trazado_986943" data-name="Trazado 986943" d="M257.029,206.928a1.723,1.723,0,1,1-2.414.022,1.707,1.707,0,0,1,2.414-.022" transform="translate(-215.812 -175.331)" fill="#8f818f"/>
          <path id="Trazado_986944" data-name="Trazado 986944" d="M16.108,206.923a1.692,1.692,0,1,1-2.415-.022,1.708,1.708,0,0,1,2.415.022" transform="translate(-11.215 -175.308)" fill="#8f818f"/>
          <path id="Trazado_986945" data-name="Trazado 986945" d="M36.34,321.116a1.149,1.149,0,1,1-1.611.014,1.14,1.14,0,0,1,1.611-.014" transform="translate(-29.207 -272.449)"/>
          <path id="Trazado_986946" data-name="Trazado 986946" d="M242.378,321.152a1.129,1.129,0,1,1-1.611-.014,1.139,1.139,0,0,1,1.611.014" transform="translate(-204.208 -272.468)"/>
          <path id="Trazado_986947" data-name="Trazado 986947" d="M138.882,77.573a1.128,1.128,0,0,0,.817-.817,1.145,1.145,0,0,0-1.4-1.4,1.127,1.127,0,0,0-.817.817,1.146,1.146,0,0,0,1.4,1.4" transform="translate(-116.738 -63.974)"/>
          <path id="Trazado_986948" data-name="Trazado 986948" d="M40.668,30.338a2.666,2.666,0,0,0-.661-.084,2.558,2.558,0,0,0-2.415,1.712H33.817l-2.631-7.25A21.882,21.882,0,0,0,43.709,4.957a.848.848,0,1,0-1.7,0A20.183,20.183,0,0,1,30.606,23.116L27.152,13.6a5.546,5.546,0,0,0,0-2.237,5.334,5.334,0,0,0-2.167-3.305V.848A.848.848,0,0,0,24.138,0H19.571a.848.848,0,0,0-.848.848V8.075a5.421,5.421,0,0,0-2.171,5.532L13.1,23.116A20.184,20.184,0,0,1,1.7,4.957a.848.848,0,1,0-1.7,0A21.883,21.883,0,0,0,12.522,24.716l-.692,1.907a.848.848,0,1,0,1.594.579l.659-1.818q.959.365,1.959.643L8.8,45.987a4.174,4.174,0,0,0-1.5-.668c-.141-.032-.283-.055-.426-.073L12.056,30.97a.848.848,0,1,0-1.593-.578l-.572,1.575H6.117A2.558,2.558,0,0,0,3.7,30.254a2.67,2.67,0,0,0-.661.084,2.515,2.515,0,0,0-1.815,1.815,2.574,2.574,0,0,0,.454,2.23,2.545,2.545,0,0,0,2.023.991,2.669,2.669,0,0,0,.661-.084,2.514,2.514,0,0,0,1.759-1.629H9.277L5.012,45.418a4.253,4.253,0,0,0-2.02,1.4,4.3,4.3,0,0,0-.828,3.646A4.226,4.226,0,0,0,4,53.081L2.571,56.706a.848.848,0,0,0,1.577.623l1.436-3.637a4.483,4.483,0,0,0,.744.064,4.255,4.255,0,0,0,3.336-1.6,4.3,4.3,0,0,0,.828-3.646,4.189,4.189,0,0,0-.409-1.084l4.992-13.761h3.648v.865a.848.848,0,0,0,.848.848h4.567a.847.847,0,0,0,.848-.848v-.865h3.648l4.992,13.761a4.189,4.189,0,0,0-.409,1.084,4.277,4.277,0,0,0,4.164,5.248,4.445,4.445,0,0,0,.726-.061l1.332,3.616a.848.848,0,0,0,.8.555.835.835,0,0,0,.293-.052.847.847,0,0,0,.5-1.088L39.692,53.09a4.221,4.221,0,0,0,1.853-2.631A4.278,4.278,0,0,0,38.7,45.418L37.238,41.4a.848.848,0,0,0-1.593.578l1.186,3.271c-.143.018-.284.041-.426.073a4.185,4.185,0,0,0-1.5.668L27.666,26.026q1-.276,1.958-.643L34.276,38.2a.848.848,0,1,0,1.594-.578l-1.439-3.964h3.155a2.516,2.516,0,0,0,1.759,1.629,2.69,2.69,0,0,0,.661.084,2.543,2.543,0,0,0,2.023-.991,2.572,2.572,0,0,0,.454-2.23,2.515,2.515,0,0,0-1.815-1.815M4.535,33.055a.83.83,0,0,1-.592.592.955.955,0,0,1-.241.031.861.861,0,0,1-.684-.335.876.876,0,0,1-.149-.771.83.83,0,0,1,.592-.592A.982.982,0,0,1,3.7,31.95a.862.862,0,0,1,.684.335.874.874,0,0,1,.149.77M20.419,1.7H23.29V7.266c-.1-.027-.2-.051-.3-.072a5.655,5.655,0,0,0-1.134-.116,5.43,5.43,0,0,0-1.436.194Zm-1.448,8.448a3.708,3.708,0,0,1,2.883-1.37,3.968,3.968,0,0,1,.795.082A3.641,3.641,0,0,1,25.492,11.7a3.724,3.724,0,0,1-3.637,4.514,3.975,3.975,0,0,1-.795-.082,3.643,3.643,0,0,1-2.843-2.842,3.71,3.71,0,0,1,.755-3.144m1.856,7.667a5.672,5.672,0,0,0,1.027.1,5.4,5.4,0,0,0,1.026-.1L25.418,24.8a20.287,20.287,0,0,1-7.128,0Zm-3.272-2a5.339,5.339,0,0,0,1.673,1.432l-2.606,7.181a19.931,19.931,0,0,1-1.961-.638ZM8.34,51.093a2.567,2.567,0,0,1-2.012.967,2.806,2.806,0,0,1-.606-.068,2.523,2.523,0,0,1-1.9-1.9,2.582,2.582,0,0,1,2.509-3.183,2.771,2.771,0,0,1,.606.068,2.523,2.523,0,0,1,1.9,1.9,2.576,2.576,0,0,1-.5,2.216M23.29,33.679H20.419V31.95H23.29ZM36.775,46.973a2.771,2.771,0,0,1,.606-.068,2.582,2.582,0,0,1,2.509,3.183,2.523,2.523,0,0,1-1.9,1.9,2.77,2.77,0,0,1-.606.068,2.583,2.583,0,0,1-2.509-3.183,2.523,2.523,0,0,1,1.9-1.9M28.018,31.967H24.985V31.1a.848.848,0,0,0-.848-.848H19.571a.848.848,0,0,0-.848.848v.865H15.691L17.7,26.415a21.9,21.9,0,0,0,8.3,0Zm-.932-7.54-2.611-7.195a6.723,6.723,0,0,0,1.67-1.44l2.9,8a19.931,19.931,0,0,1-1.961.638m13.6,8.917a.877.877,0,0,1-.925.3.83.83,0,0,1-.592-.592.874.874,0,0,1,.149-.77.862.862,0,0,1,.684-.335.982.982,0,0,1,.241.031.83.83,0,0,1,.592.592.874.874,0,0,1-.149.771"/>
        </g>
      </g>
    </g>
  </g>
</svg>
