<svg xmlns="http://www.w3.org/2000/svg" width="610" height="611" viewBox="0 0 610 611">
  <g id="Grupo_1145542" data-name="Grupo 1145542" transform="translate(-495 -4278)">
    <path id="Trazado_983077" data-name="Trazado 983077" d="M231.62,16.226A118.236,118.236,0,1,0,349.855,134.463,118.236,118.236,0,0,0,231.62,16.226M230.6,238.37a21.2,21.2,0,1,1,21.2-21.2,21.2,21.2,0,0,1-21.2,21.2" transform="translate(571.867 4300)" fill="#fce8a6"/>
    <path id="Trazado_983078" data-name="Trazado 983078" d="M320.084,44.792a3.355,3.355,0,0,1-4.745,0c-50.779-50.777-133.4-50.779-184.176,0a3.356,3.356,0,1,1-4.747-4.745c53.395-53.393,140.273-53.393,193.668,0a3.355,3.355,0,0,1,0,4.745" transform="translate(580.034 4289)" fill="#f8c623"/>
    <path id="Trazado_983079" data-name="Trazado 983079" d="M326.075,193.618A117.122,117.122,0,1,0,443.2,310.739,117.123,117.123,0,0,0,326.075,193.618m-66.167,95.4a20.669,20.669,0,1,1,20.667-20.669,20.669,20.669,0,0,1-20.667,20.669" transform="translate(636.653 4418.259)" fill="#e2e9f3"/>
    <path id="Trazado_983080" data-name="Trazado 983080" d="M339.794,398.766a3.356,3.356,0,0,1-2.373-5.728,129.383,129.383,0,0,0,0-182.767,3.355,3.355,0,1,1,4.745-4.745c53.006,53.006,53.006,139.251,0,192.257a3.34,3.34,0,0,1-2.373.983" transform="translate(723.08 4425.665)" fill="#a1bada"/>
    <path id="Trazado_983081" data-name="Trazado 983081" d="M133.02,191.81A117.551,117.551,0,1,0,250.573,309.362,117.551,117.551,0,0,0,133.02,191.81m66.8,92.012a20.83,20.83,0,1,1,20.831-20.83,20.831,20.831,0,0,1-20.831,20.83" transform="translate(505.488 4419.033)" fill="#c9e1f0"/>
    <path id="Trazado_983082" data-name="Trazado 983082" d="M30.793,390.389a3.357,3.357,0,0,1-2.67-1.317A136.781,136.781,0,0,1,53.757,197.337a3.355,3.355,0,0,1,4.074,5.332A130.068,130.068,0,0,0,33.458,384.994a3.357,3.357,0,0,1-2.665,5.395" transform="translate(495 4422.311)" fill="#4e9ed2"/>
    <path id="Trazado_983083" data-name="Trazado 983083" d="M350.186,250.111A119.141,119.141,0,1,0,231.045,369.251,119.277,119.277,0,0,0,350.186,250.111M231.045,353.193A103.082,103.082,0,1,1,334.129,250.111,103.2,103.2,0,0,1,231.045,353.193" transform="translate(570.863 4377.788)" fill="#fff"/>
    <path id="Trazado_983086" data-name="Trazado 983086" d="M204.286,142.042A14.989,14.989,0,1,1,189.3,127.051a14.988,14.988,0,0,1,14.989,14.991" transform="translate(613.168 4375.131)" fill="#f8c623"/>
    <path id="Trazado_983087" data-name="Trazado 983087" d="M146.02,240.184a14.73,14.73,0,1,1-14.729-14.729,14.729,14.729,0,0,1,14.729,14.729" transform="translate(574.02 4441.842)" fill="#4e9ed2"/>
    <path id="Trazado_983088" data-name="Trazado 983088" d="M259.839,244.062a14.615,14.615,0,1,1-14.613-14.615,14.613,14.613,0,0,1,14.613,14.615" transform="translate(651.336 4444.548)" fill="#a1bada"/>
    <path id="Trazado_987016" data-name="Trazado 987016" d="M24.443,11.337H19.67L18.774,14h-2.83L20.567,1.045h3.059L28.213,14H25.278ZM23.687,9.1l-1.617-5.1L20.4,9.1ZM37.679,5.448a5.14,5.14,0,0,1,1.16,3.639A5.771,5.771,0,0,1,37.7,12.945a3.685,3.685,0,0,1-2.931,1.327,3.059,3.059,0,0,1-1.9-.571,3.683,3.683,0,0,1-.809-.923v4.992H29.584V4.42h2.4V5.835a4.021,4.021,0,0,1,.861-.984,3.165,3.165,0,0,1,1.986-.642A3.767,3.767,0,0,1,37.679,5.448ZM36.255,9.21a3.77,3.77,0,0,0-.505-1.96A1.759,1.759,0,0,0,34.111,6.4a1.865,1.865,0,0,0-1.872,1.292,4.9,4.9,0,0,0-.264,1.74,2.776,2.776,0,0,0,.888,2.347,2.021,2.021,0,0,0,1.248.4,1.809,1.809,0,0,0,1.6-.809A3.771,3.771,0,0,0,36.255,9.21ZM40.7,1.045h2.5V14H40.7ZM48.226,4.42V14h-2.54V4.42Zm0-3.454V3.277h-2.54V.966ZM58.94,7.856H56.374a2.223,2.223,0,0,0-.36-.967,1.511,1.511,0,0,0-1.31-.58,1.725,1.725,0,0,0-1.731,1.257,5.255,5.255,0,0,0-.246,1.775,4.832,4.832,0,0,0,.246,1.7,1.671,1.671,0,0,0,1.688,1.2,1.488,1.488,0,0,0,1.248-.475,2.362,2.362,0,0,0,.448-1.23h2.558a4.191,4.191,0,0,1-.826,2.162A4.016,4.016,0,0,1,54.6,14.334a4.082,4.082,0,0,1-3.4-1.371,5.548,5.548,0,0,1-1.09-3.56,5.63,5.63,0,0,1,1.2-3.841,4.191,4.191,0,0,1,3.322-1.371A5,5,0,0,1,57.582,5,3.761,3.761,0,0,1,58.94,7.856Zm2.083-2.4a4.09,4.09,0,0,1,3.41-1.266,6.059,6.059,0,0,1,2.795.624A2.4,2.4,0,0,1,68.45,7.171v4.395q0,.457.018,1.107a1.392,1.392,0,0,0,.149.668.9.9,0,0,0,.369.29V14H66.261a2.79,2.79,0,0,1-.158-.545q-.044-.255-.07-.58a5.146,5.146,0,0,1-1.2.958,3.6,3.6,0,0,1-1.828.466,3.143,3.143,0,0,1-2.149-.743,2.649,2.649,0,0,1-.848-2.1,2.732,2.732,0,0,1,1.362-2.558,6.049,6.049,0,0,1,2.2-.615l.853-.105a3.91,3.91,0,0,0,.993-.22.753.753,0,0,0,.536-.712.845.845,0,0,0-.409-.813,2.553,2.553,0,0,0-1.2-.224,1.563,1.563,0,0,0-1.257.439,1.827,1.827,0,0,0-.352.879H60.32A3.676,3.676,0,0,1,61.023,5.457Zm1.863,6.732a1.309,1.309,0,0,0,.861.29A2.551,2.551,0,0,0,65.237,12a2.024,2.024,0,0,0,.708-1.731V9.342a2.722,2.722,0,0,1-.479.242,4.006,4.006,0,0,1-.664.171l-.562.105a3.632,3.632,0,0,0-1.134.343,1.149,1.149,0,0,0-.58,1.063A1.1,1.1,0,0,0,62.886,12.189ZM78.961,7.856H76.4a2.223,2.223,0,0,0-.36-.967,1.511,1.511,0,0,0-1.31-.58,1.725,1.725,0,0,0-1.731,1.257,5.255,5.255,0,0,0-.246,1.775,4.832,4.832,0,0,0,.246,1.7,1.671,1.671,0,0,0,1.688,1.2,1.488,1.488,0,0,0,1.248-.475,2.362,2.362,0,0,0,.448-1.23h2.558a4.191,4.191,0,0,1-.826,2.162,4.016,4.016,0,0,1-3.489,1.644,4.082,4.082,0,0,1-3.4-1.371,5.548,5.548,0,0,1-1.09-3.56,5.63,5.63,0,0,1,1.2-3.841,4.191,4.191,0,0,1,3.322-1.371A5,5,0,0,1,77.6,5,3.761,3.761,0,0,1,78.961,7.856Zm4.3-3.437V14h-2.54V4.42Zm0-3.454V3.277h-2.54V.966ZM93.674,5.633a5.59,5.59,0,0,1,1.213,3.595,5.553,5.553,0,0,1-1.213,3.608,5.274,5.274,0,0,1-7.365,0A5.553,5.553,0,0,1,85.1,9.228a5.59,5.59,0,0,1,1.213-3.595,5.22,5.22,0,0,1,7.365,0Zm-3.691.6a2,2,0,0,0-1.692.778A3.6,3.6,0,0,0,87.7,9.228a3.619,3.619,0,0,0,.593,2.224,2.216,2.216,0,0,0,3.379,0,3.639,3.639,0,0,0,.589-2.224,3.619,3.619,0,0,0-.589-2.219A1.99,1.99,0,0,0,89.983,6.23Zm-1.477-3.1L90.194.5h2.795L90.317,3.128Zm12.683,3.146A1.744,1.744,0,0,0,99.44,7.355a3.713,3.713,0,0,0-.246,1.459V14H96.7V4.438h2.417v1.4a4.252,4.252,0,0,1,.914-1.063,3.177,3.177,0,0,1,1.96-.58,3.7,3.7,0,0,1,2.43.778,3.163,3.163,0,0,1,.945,2.58V14H102.8V8.173a2.659,2.659,0,0,0-.2-1.16A1.422,1.422,0,0,0,101.189,6.274Zm19.688,4.913a3.178,3.178,0,0,1-.888,1.731,4.349,4.349,0,0,1-3.445,1.4,4.858,4.858,0,0,1-3.226-1.178,4.75,4.75,0,0,1-1.4-3.832,5.326,5.326,0,0,1,1.261-3.814,4.312,4.312,0,0,1,3.274-1.327,5.021,5.021,0,0,1,2.153.448,3.772,3.772,0,0,1,1.582,1.415,4.828,4.828,0,0,1,.729,1.978A12.771,12.771,0,0,1,121,9.9h-6.557a2.381,2.381,0,0,0,.905,2.021,2.132,2.132,0,0,0,1.248.36,1.8,1.8,0,0,0,1.257-.439,2.087,2.087,0,0,0,.466-.659ZM118.4,8.252a2.181,2.181,0,0,0-.6-1.507,1.87,1.87,0,0,0-1.34-.514,1.7,1.7,0,0,0-1.349.545,2.72,2.72,0,0,0-.6,1.477Zm8.8-1.978a1.744,1.744,0,0,0-1.749,1.081,3.713,3.713,0,0,0-.246,1.459V14h-2.5V4.438h2.417v1.4a4.252,4.252,0,0,1,.914-1.063,3.177,3.177,0,0,1,1.96-.58,3.7,3.7,0,0,1,2.43.778,3.163,3.163,0,0,1,.945,2.58V14H128.8V8.173a2.659,2.659,0,0,0-.2-1.16A1.422,1.422,0,0,0,127.2,6.274ZM27.044,39.216v1.872l-1.187.044a3.184,3.184,0,0,1-2.426-.615,1.832,1.832,0,0,1-.422-1.327v-5.9H21.674V31.508H23.01V28.836h2.479v2.672h1.556v1.784H25.489v5.063a1.14,1.14,0,0,0,.149.734,1.645,1.645,0,0,0,.914.145q.114,0,.242,0T27.044,39.216Zm9.809-1.028a3.178,3.178,0,0,1-.888,1.731,4.349,4.349,0,0,1-3.445,1.4,4.858,4.858,0,0,1-3.226-1.178,4.75,4.75,0,0,1-1.4-3.832,5.326,5.326,0,0,1,1.261-3.814,4.312,4.312,0,0,1,3.274-1.327,5.021,5.021,0,0,1,2.153.448,3.772,3.772,0,0,1,1.582,1.415,4.828,4.828,0,0,1,.729,1.978,12.771,12.771,0,0,1,.079,1.9H30.419a2.381,2.381,0,0,0,.905,2.021,2.132,2.132,0,0,0,1.248.36,1.8,1.8,0,0,0,1.257-.439,2.087,2.087,0,0,0,.466-.659Zm-2.479-2.936a2.181,2.181,0,0,0-.6-1.507,1.87,1.87,0,0,0-1.34-.514,1.7,1.7,0,0,0-1.349.545,2.72,2.72,0,0,0-.6,1.477Zm12.577-.4H44.385a2.223,2.223,0,0,0-.36-.967,1.511,1.511,0,0,0-1.31-.58,1.725,1.725,0,0,0-1.731,1.257,5.255,5.255,0,0,0-.246,1.775,4.832,4.832,0,0,0,.246,1.7,1.671,1.671,0,0,0,1.688,1.2,1.488,1.488,0,0,0,1.248-.475,2.362,2.362,0,0,0,.448-1.23h2.558A4.191,4.191,0,0,1,46.1,39.69a4.016,4.016,0,0,1-3.489,1.644,4.082,4.082,0,0,1-3.4-1.371,5.548,5.548,0,0,1-1.09-3.56,5.63,5.63,0,0,1,1.2-3.841,4.191,4.191,0,0,1,3.322-1.371A5,5,0,0,1,45.594,32,3.761,3.761,0,0,1,46.952,34.856Zm6.231-1.582a1.744,1.744,0,0,0-1.749,1.081,3.713,3.713,0,0,0-.246,1.459V41h-2.5V31.438h2.417v1.4a4.252,4.252,0,0,1,.914-1.063,3.177,3.177,0,0,1,1.96-.58,3.7,3.7,0,0,1,2.43.778,3.163,3.163,0,0,1,.945,2.58V41H54.792V35.173a2.659,2.659,0,0,0-.2-1.16A1.422,1.422,0,0,0,53.183,33.274Zm14.476-.642a5.953,5.953,0,0,1,0,7.2,4.456,4.456,0,0,1-3.683,1.5,4.456,4.456,0,0,1-3.683-1.5,5.953,5.953,0,0,1,0-7.2,4.426,4.426,0,0,1,3.683-1.521A4.426,4.426,0,0,1,67.659,32.633Zm-3.691.6a2,2,0,0,0-1.692.778,3.6,3.6,0,0,0-.593,2.219,3.619,3.619,0,0,0,.593,2.224,2.216,2.216,0,0,0,3.379,0,3.639,3.639,0,0,0,.589-2.224,3.619,3.619,0,0,0-.589-2.219A1.99,1.99,0,0,0,63.967,33.23Zm6.75-5.186h2.5V41h-2.5Zm12.938,4.588a5.953,5.953,0,0,1,0,7.2,5.274,5.274,0,0,1-7.365,0,5.953,5.953,0,0,1,0-7.2,5.22,5.22,0,0,1,7.365,0Zm-3.691.6a2,2,0,0,0-1.692.778,3.6,3.6,0,0,0-.593,2.219,3.619,3.619,0,0,0,.593,2.224,2.216,2.216,0,0,0,3.379,0,3.639,3.639,0,0,0,.589-2.224,3.619,3.619,0,0,0-.589-2.219A1.99,1.99,0,0,0,79.963,33.23Zm9.4,9.448a2.117,2.117,0,0,0,1.362.343,1.83,1.83,0,0,0,1.811-.905,4.585,4.585,0,0,0,.3-1.951V39.55a3.055,3.055,0,0,1-.773.923,3.11,3.11,0,0,1-1.942.571,3.676,3.676,0,0,1-2.949-1.3,5.241,5.241,0,0,1-1.1-3.511,5.919,5.919,0,0,1,1.063-3.59,3.514,3.514,0,0,1,3.015-1.455,3.3,3.3,0,0,1,1.257.22A3.01,3.01,0,0,1,92.883,32.8V31.42h2.435v9.088a5.09,5.09,0,0,1-.624,2.795q-1.072,1.617-4.113,1.617a5.6,5.6,0,0,1-3-.721A2.659,2.659,0,0,1,86.3,42.046h2.725A1.128,1.128,0,0,0,89.368,42.679Zm-.422-4.948a1.833,1.833,0,0,0,1.828,1.213,1.935,1.935,0,0,0,1.485-.664,3.072,3.072,0,0,0,.606-2.114,3.235,3.235,0,0,0-.576-2.074,1.882,1.882,0,0,0-1.542-.712,1.818,1.818,0,0,0-1.819,1.239,4.395,4.395,0,0,0-.264,1.626A3.71,3.71,0,0,0,88.946,37.73Zm8.745-6.311h2.54V41h-2.54Zm-.167-1.292L99.211,27.5h2.795l-2.672,2.628Zm5.493,2.329a4.09,4.09,0,0,1,3.41-1.266,6.059,6.059,0,0,1,2.795.624,2.4,2.4,0,0,1,1.222,2.355v4.395q0,.457.018,1.107a1.392,1.392,0,0,0,.149.668.9.9,0,0,0,.369.29V41h-2.725a2.79,2.79,0,0,1-.158-.545q-.044-.255-.07-.58a5.146,5.146,0,0,1-1.2.958A3.6,3.6,0,0,1,105,41.3a3.143,3.143,0,0,1-2.149-.743,2.649,2.649,0,0,1-.848-2.1,2.732,2.732,0,0,1,1.362-2.558,6.049,6.049,0,0,1,2.2-.615l.853-.105a3.91,3.91,0,0,0,.993-.22.753.753,0,0,0,.536-.712.845.845,0,0,0-.409-.813,2.553,2.553,0,0,0-1.2-.224,1.563,1.563,0,0,0-1.257.439,1.827,1.827,0,0,0-.352.879h-2.417A3.676,3.676,0,0,1,103.017,32.457Zm1.863,6.732a1.309,1.309,0,0,0,.861.29,2.551,2.551,0,0,0,1.49-.475,2.024,2.024,0,0,0,.708-1.731v-.932a2.722,2.722,0,0,1-.479.242,4.006,4.006,0,0,1-.664.171l-.562.105a3.632,3.632,0,0,0-1.134.343,1.149,1.149,0,0,0-.58,1.063A1.1,1.1,0,0,0,104.88,39.189Zm20.988-1a3.178,3.178,0,0,1-.888,1.731,4.349,4.349,0,0,1-3.445,1.4,4.858,4.858,0,0,1-3.226-1.178,4.75,4.75,0,0,1-1.4-3.832,5.326,5.326,0,0,1,1.261-3.814,4.312,4.312,0,0,1,3.274-1.327,5.021,5.021,0,0,1,2.153.448,3.772,3.772,0,0,1,1.582,1.415,4.828,4.828,0,0,1,.729,1.978,12.771,12.771,0,0,1,.079,1.9h-6.557a2.381,2.381,0,0,0,.905,2.021,2.132,2.132,0,0,0,1.248.36,1.8,1.8,0,0,0,1.257-.439,2.087,2.087,0,0,0,.466-.659Zm-2.479-2.936a2.181,2.181,0,0,0-.6-1.507,1.87,1.87,0,0,0-1.34-.514,1.7,1.7,0,0,0-1.349.545,2.72,2.72,0,0,0-.6,1.477ZM30.239,58.42V68H27.7V58.42Zm0-3.454v2.312H27.7V54.966Zm6.935,5.309a1.744,1.744,0,0,0-1.749,1.081,3.713,3.713,0,0,0-.246,1.459V68h-2.5V58.438H35.1v1.4a4.252,4.252,0,0,1,.914-1.063,3.177,3.177,0,0,1,1.96-.58,3.7,3.7,0,0,1,2.43.778,3.163,3.163,0,0,1,.945,2.58V68H38.782V62.173a2.659,2.659,0,0,0-.2-1.16A1.422,1.422,0,0,0,37.174,60.274Zm11,0a1.744,1.744,0,0,0-1.749,1.081,3.713,3.713,0,0,0-.246,1.459V68h-2.5V58.438h2.417v1.4a4.252,4.252,0,0,1,.914-1.063,3.177,3.177,0,0,1,1.96-.58,3.7,3.7,0,0,1,2.43.778,3.163,3.163,0,0,1,.945,2.58V68H49.777V62.173a2.659,2.659,0,0,0-.2-1.16A1.422,1.422,0,0,0,48.169,60.274Zm14.476-.642a5.953,5.953,0,0,1,0,7.2,4.456,4.456,0,0,1-3.683,1.5,4.456,4.456,0,0,1-3.683-1.5,5.953,5.953,0,0,1,0-7.2,4.426,4.426,0,0,1,3.683-1.521A4.426,4.426,0,0,1,62.645,59.633Zm-3.691.6a2,2,0,0,0-1.692.778,4.456,4.456,0,0,0,0,4.443,2.216,2.216,0,0,0,3.379,0,4.484,4.484,0,0,0,0-4.443A1.99,1.99,0,0,0,58.953,60.23ZM64.71,58.42h2.813l2,7.066,2.039-7.066h2.689L70.792,68H68.146Zm11.312,1.037a4.09,4.09,0,0,1,3.41-1.266,6.059,6.059,0,0,1,2.795.624,2.4,2.4,0,0,1,1.222,2.355v4.395q0,.457.018,1.107a1.392,1.392,0,0,0,.149.668.9.9,0,0,0,.369.29V68H81.26a2.79,2.79,0,0,1-.158-.545q-.044-.255-.07-.58a5.146,5.146,0,0,1-1.2.958,3.6,3.6,0,0,1-1.828.466,3.143,3.143,0,0,1-2.149-.743,2.649,2.649,0,0,1-.848-2.1,2.732,2.732,0,0,1,1.362-2.558,6.049,6.049,0,0,1,2.2-.615l.853-.105a3.91,3.91,0,0,0,.993-.22.753.753,0,0,0,.536-.712.845.845,0,0,0-.409-.813,2.553,2.553,0,0,0-1.2-.224,1.563,1.563,0,0,0-1.257.439,1.827,1.827,0,0,0-.352.879H75.318A3.676,3.676,0,0,1,76.021,59.457Zm1.863,6.732a1.309,1.309,0,0,0,.861.29A2.551,2.551,0,0,0,80.236,66a2.024,2.024,0,0,0,.708-1.731v-.932a2.722,2.722,0,0,1-.479.242,4.006,4.006,0,0,1-.664.171l-.562.105A3.632,3.632,0,0,0,78.1,64.2a1.149,1.149,0,0,0-.58,1.063A1.1,1.1,0,0,0,77.885,66.189ZM93.96,61.856H91.394a2.223,2.223,0,0,0-.36-.967,1.511,1.511,0,0,0-1.31-.58,1.725,1.725,0,0,0-1.731,1.257,5.255,5.255,0,0,0-.246,1.775,4.832,4.832,0,0,0,.246,1.7,1.671,1.671,0,0,0,1.688,1.2,1.488,1.488,0,0,0,1.248-.475,2.362,2.362,0,0,0,.448-1.23h2.558a4.191,4.191,0,0,1-.826,2.162,4.016,4.016,0,0,1-3.489,1.644,4.082,4.082,0,0,1-3.4-1.371,5.548,5.548,0,0,1-1.09-3.56,5.63,5.63,0,0,1,1.2-3.841,4.191,4.191,0,0,1,3.322-1.371A5,5,0,0,1,92.6,59,3.761,3.761,0,0,1,93.96,61.856Zm4.3-3.437V68h-2.54V58.42Zm0-3.454v2.312h-2.54V54.966Zm10.415,4.667a5.953,5.953,0,0,1,0,7.2,5.274,5.274,0,0,1-7.365,0,5.953,5.953,0,0,1,0-7.2,5.22,5.22,0,0,1,7.365,0Zm-3.691.6a2,2,0,0,0-1.692.778,4.456,4.456,0,0,0,0,4.443,2.216,2.216,0,0,0,3.379,0,4.484,4.484,0,0,0,0-4.443A1.99,1.99,0,0,0,104.981,60.23Zm-1.477-3.1,1.688-2.628h2.795l-2.672,2.628Zm12.683,3.146a1.744,1.744,0,0,0-1.749,1.081,3.713,3.713,0,0,0-.246,1.459V68h-2.5V58.438h2.417v1.4a4.252,4.252,0,0,1,.914-1.063,3.177,3.177,0,0,1,1.96-.58,3.7,3.7,0,0,1,2.43.778,3.163,3.163,0,0,1,.945,2.58V68H117.8V62.173a2.659,2.659,0,0,0-.2-1.16A1.422,1.422,0,0,0,116.188,60.274Z" transform="translate(729 4382)" fill="#212429"/>
    <path id="Trazado_987017" data-name="Trazado 987017" d="M24.443,11.337H19.67L18.774,14h-2.83L20.567,1.045h3.059L28.213,14H25.278ZM23.687,9.1l-1.617-5.1L20.4,9.1ZM37.679,5.448a5.14,5.14,0,0,1,1.16,3.639A5.771,5.771,0,0,1,37.7,12.945a3.685,3.685,0,0,1-2.931,1.327,3.059,3.059,0,0,1-1.9-.571,3.683,3.683,0,0,1-.809-.923v4.992H29.584V4.42h2.4V5.835a4.021,4.021,0,0,1,.861-.984,3.165,3.165,0,0,1,1.986-.642A3.767,3.767,0,0,1,37.679,5.448ZM36.255,9.21a3.77,3.77,0,0,0-.505-1.96A1.759,1.759,0,0,0,34.111,6.4a1.865,1.865,0,0,0-1.872,1.292,4.9,4.9,0,0,0-.264,1.74,2.776,2.776,0,0,0,.888,2.347,2.021,2.021,0,0,0,1.248.4,1.809,1.809,0,0,0,1.6-.809A3.771,3.771,0,0,0,36.255,9.21ZM40.7,1.045h2.5V14H40.7ZM48.226,4.42V14h-2.54V4.42Zm0-3.454V3.277h-2.54V.966ZM58.94,7.856H56.374a2.223,2.223,0,0,0-.36-.967,1.511,1.511,0,0,0-1.31-.58,1.725,1.725,0,0,0-1.731,1.257,5.255,5.255,0,0,0-.246,1.775,4.832,4.832,0,0,0,.246,1.7,1.671,1.671,0,0,0,1.688,1.2,1.488,1.488,0,0,0,1.248-.475,2.362,2.362,0,0,0,.448-1.23h2.558a4.191,4.191,0,0,1-.826,2.162A4.016,4.016,0,0,1,54.6,14.334a4.082,4.082,0,0,1-3.4-1.371,5.548,5.548,0,0,1-1.09-3.56,5.63,5.63,0,0,1,1.2-3.841,4.191,4.191,0,0,1,3.322-1.371A5,5,0,0,1,57.582,5,3.761,3.761,0,0,1,58.94,7.856Zm2.083-2.4a4.09,4.09,0,0,1,3.41-1.266,6.059,6.059,0,0,1,2.795.624A2.4,2.4,0,0,1,68.45,7.171v4.395q0,.457.018,1.107a1.392,1.392,0,0,0,.149.668.9.9,0,0,0,.369.29V14H66.261a2.79,2.79,0,0,1-.158-.545q-.044-.255-.07-.58a5.146,5.146,0,0,1-1.2.958,3.6,3.6,0,0,1-1.828.466,3.143,3.143,0,0,1-2.149-.743,2.649,2.649,0,0,1-.848-2.1,2.732,2.732,0,0,1,1.362-2.558,6.049,6.049,0,0,1,2.2-.615l.853-.105a3.91,3.91,0,0,0,.993-.22.753.753,0,0,0,.536-.712.845.845,0,0,0-.409-.813,2.553,2.553,0,0,0-1.2-.224,1.563,1.563,0,0,0-1.257.439,1.827,1.827,0,0,0-.352.879H60.32A3.676,3.676,0,0,1,61.023,5.457Zm1.863,6.732a1.309,1.309,0,0,0,.861.29A2.551,2.551,0,0,0,65.237,12a2.024,2.024,0,0,0,.708-1.731V9.342a2.722,2.722,0,0,1-.479.242,4.006,4.006,0,0,1-.664.171l-.562.105a3.632,3.632,0,0,0-1.134.343,1.149,1.149,0,0,0-.58,1.063A1.1,1.1,0,0,0,62.886,12.189ZM78.961,7.856H76.4a2.223,2.223,0,0,0-.36-.967,1.511,1.511,0,0,0-1.31-.58,1.725,1.725,0,0,0-1.731,1.257,5.255,5.255,0,0,0-.246,1.775,4.832,4.832,0,0,0,.246,1.7,1.671,1.671,0,0,0,1.688,1.2,1.488,1.488,0,0,0,1.248-.475,2.362,2.362,0,0,0,.448-1.23h2.558a4.191,4.191,0,0,1-.826,2.162,4.016,4.016,0,0,1-3.489,1.644,4.082,4.082,0,0,1-3.4-1.371,5.548,5.548,0,0,1-1.09-3.56,5.63,5.63,0,0,1,1.2-3.841,4.191,4.191,0,0,1,3.322-1.371A5,5,0,0,1,77.6,5,3.761,3.761,0,0,1,78.961,7.856Zm4.3-3.437V14h-2.54V4.42Zm0-3.454V3.277h-2.54V.966ZM93.674,5.633a5.59,5.59,0,0,1,1.213,3.595,5.553,5.553,0,0,1-1.213,3.608,5.274,5.274,0,0,1-7.365,0A5.553,5.553,0,0,1,85.1,9.228a5.59,5.59,0,0,1,1.213-3.595,5.22,5.22,0,0,1,7.365,0Zm-3.691.6a2,2,0,0,0-1.692.778A3.6,3.6,0,0,0,87.7,9.228a3.619,3.619,0,0,0,.593,2.224,2.216,2.216,0,0,0,3.379,0,3.639,3.639,0,0,0,.589-2.224,3.619,3.619,0,0,0-.589-2.219A1.99,1.99,0,0,0,89.983,6.23Zm-1.477-3.1L90.194.5h2.795L90.317,3.128Zm12.683,3.146A1.744,1.744,0,0,0,99.44,7.355a3.713,3.713,0,0,0-.246,1.459V14H96.7V4.438h2.417v1.4a4.252,4.252,0,0,1,.914-1.063,3.177,3.177,0,0,1,1.96-.58,3.7,3.7,0,0,1,2.43.778,3.163,3.163,0,0,1,.945,2.58V14H102.8V8.173a2.659,2.659,0,0,0-.2-1.16A1.422,1.422,0,0,0,101.189,6.274Zm19.688,4.913a3.178,3.178,0,0,1-.888,1.731,4.349,4.349,0,0,1-3.445,1.4,4.858,4.858,0,0,1-3.226-1.178,4.75,4.75,0,0,1-1.4-3.832,5.326,5.326,0,0,1,1.261-3.814,4.312,4.312,0,0,1,3.274-1.327,5.021,5.021,0,0,1,2.153.448,3.772,3.772,0,0,1,1.582,1.415,4.828,4.828,0,0,1,.729,1.978A12.771,12.771,0,0,1,121,9.9h-6.557a2.381,2.381,0,0,0,.905,2.021,2.132,2.132,0,0,0,1.248.36,1.8,1.8,0,0,0,1.257-.439,2.087,2.087,0,0,0,.466-.659ZM118.4,8.252a2.181,2.181,0,0,0-.6-1.507,1.87,1.87,0,0,0-1.34-.514,1.7,1.7,0,0,0-1.349.545,2.72,2.72,0,0,0-.6,1.477Zm8.8-1.978a1.744,1.744,0,0,0-1.749,1.081,3.713,3.713,0,0,0-.246,1.459V14h-2.5V4.438h2.417v1.4a4.252,4.252,0,0,1,.914-1.063,3.177,3.177,0,0,1,1.96-.58,3.7,3.7,0,0,1,2.43.778,3.163,3.163,0,0,1,.945,2.58V14H128.8V8.173a2.659,2.659,0,0,0-.2-1.16A1.422,1.422,0,0,0,127.2,6.274ZM33.852,38.188a3.178,3.178,0,0,1-.888,1.731,4.349,4.349,0,0,1-3.445,1.4,4.858,4.858,0,0,1-3.226-1.178,4.75,4.75,0,0,1-1.4-3.832,5.326,5.326,0,0,1,1.261-3.814,4.312,4.312,0,0,1,3.274-1.327,5.021,5.021,0,0,1,2.153.448,3.772,3.772,0,0,1,1.582,1.415,4.828,4.828,0,0,1,.729,1.978,12.771,12.771,0,0,1,.079,1.9H27.418a2.381,2.381,0,0,0,.905,2.021,2.132,2.132,0,0,0,1.248.36,1.8,1.8,0,0,0,1.257-.439,2.087,2.087,0,0,0,.466-.659Zm-2.479-2.936a2.181,2.181,0,0,0-.6-1.507,1.87,1.87,0,0,0-1.34-.514,1.7,1.7,0,0,0-1.349.545,2.72,2.72,0,0,0-.6,1.477Zm12.577-.4H41.384a2.223,2.223,0,0,0-.36-.967,1.511,1.511,0,0,0-1.31-.58,1.725,1.725,0,0,0-1.731,1.257,5.255,5.255,0,0,0-.246,1.775,4.832,4.832,0,0,0,.246,1.7,1.671,1.671,0,0,0,1.688,1.2,1.488,1.488,0,0,0,1.248-.475,2.362,2.362,0,0,0,.448-1.23h2.558A4.191,4.191,0,0,1,43.1,39.69a4.016,4.016,0,0,1-3.489,1.644,4.082,4.082,0,0,1-3.4-1.371,5.548,5.548,0,0,1-1.09-3.56,5.63,5.63,0,0,1,1.2-3.841,4.191,4.191,0,0,1,3.322-1.371A5,5,0,0,1,42.592,32,3.761,3.761,0,0,1,43.95,34.856Zm9.712-2.224a5.953,5.953,0,0,1,0,7.2,4.456,4.456,0,0,1-3.683,1.5,4.456,4.456,0,0,1-3.683-1.5,5.953,5.953,0,0,1,0-7.2,4.426,4.426,0,0,1,3.683-1.521A4.426,4.426,0,0,1,53.662,32.633Zm-3.691.6a2,2,0,0,0-1.692.778,3.6,3.6,0,0,0-.593,2.219,3.619,3.619,0,0,0,.593,2.224,2.216,2.216,0,0,0,3.379,0,3.639,3.639,0,0,0,.589-2.224,3.619,3.619,0,0,0-.589-2.219A1.99,1.99,0,0,0,49.971,33.23Zm11.206.044a1.744,1.744,0,0,0-1.749,1.081,3.713,3.713,0,0,0-.246,1.459V41h-2.5V31.438H59.1v1.4a4.252,4.252,0,0,1,.914-1.063,3.177,3.177,0,0,1,1.96-.58,3.7,3.7,0,0,1,2.43.778,3.163,3.163,0,0,1,.945,2.58V41H62.785V35.173a2.659,2.659,0,0,0-.2-1.16A1.422,1.422,0,0,0,61.177,33.274Zm14.476-.642a5.953,5.953,0,0,1,0,7.2,5.274,5.274,0,0,1-7.365,0,5.953,5.953,0,0,1,0-7.2,5.22,5.22,0,0,1,7.365,0Zm-3.691.6a2,2,0,0,0-1.692.778,3.6,3.6,0,0,0-.593,2.219,3.619,3.619,0,0,0,.593,2.224,2.216,2.216,0,0,0,3.379,0,3.639,3.639,0,0,0,.589-2.224,3.619,3.619,0,0,0-.589-2.219A1.99,1.99,0,0,0,71.961,33.23Zm12.076.826a1.227,1.227,0,0,0-1.239-.694,1.479,1.479,0,0,0-1.441.694,2.675,2.675,0,0,0-.2,1.178V41h-2.54V31.438h2.435v1.4a4.031,4.031,0,0,1,.879-1.063,3.478,3.478,0,0,1,3.665-.079,2.812,2.812,0,0,1,.826,1.151A3.185,3.185,0,0,1,87.641,31.6a3.728,3.728,0,0,1,1.723-.4,3.335,3.335,0,0,1,1.248.246,2.784,2.784,0,0,1,1.116.861,2.752,2.752,0,0,1,.545,1.23,8.5,8.5,0,0,1,.088,1.415L92.343,41H89.776V34.9A2,2,0,0,0,89.6,34a1.249,1.249,0,0,0-1.23-.668,1.44,1.44,0,0,0-1.433.861,2.7,2.7,0,0,0-.2,1.1V41H84.213V35.3A3.2,3.2,0,0,0,84.037,34.057ZM94.7,31.42h2.54V41H94.7Zm-.167-1.292L96.219,27.5h2.795l-2.672,2.628Zm5.493,2.329a4.09,4.09,0,0,1,3.41-1.266,6.059,6.059,0,0,1,2.795.624,2.4,2.4,0,0,1,1.222,2.355v4.395q0,.457.018,1.107a1.392,1.392,0,0,0,.149.668.9.9,0,0,0,.369.29V41h-2.725a2.79,2.79,0,0,1-.158-.545q-.044-.255-.07-.58a5.146,5.146,0,0,1-1.2.958,3.6,3.6,0,0,1-1.828.466,3.143,3.143,0,0,1-2.149-.743,2.649,2.649,0,0,1-.848-2.1,2.732,2.732,0,0,1,1.362-2.558,6.049,6.049,0,0,1,2.2-.615l.853-.105a3.91,3.91,0,0,0,.993-.22.753.753,0,0,0,.536-.712.845.845,0,0,0-.409-.813,2.553,2.553,0,0,0-1.2-.224,1.563,1.563,0,0,0-1.257.439,1.827,1.827,0,0,0-.352.879H99.321A3.676,3.676,0,0,1,100.024,32.457Zm1.863,6.732a1.309,1.309,0,0,0,.861.29,2.551,2.551,0,0,0,1.49-.475,2.024,2.024,0,0,0,.708-1.731v-.932a2.722,2.722,0,0,1-.479.242,4.006,4.006,0,0,1-.664.171l-.562.105a3.632,3.632,0,0,0-1.134.343,1.149,1.149,0,0,0-.58,1.063A1.1,1.1,0,0,0,101.888,39.189Zm16.682-.7,1.978-7.066h2.663l-3.287,9.422a13.23,13.23,0,0,1-1.5,3.379,2.856,2.856,0,0,1-2.215.655q-.334,0-.536,0t-.606-.031v-2l.316.018a3.948,3.948,0,0,0,.7-.026,1.262,1.262,0,0,0,.563-.2,1.352,1.352,0,0,0,.409-.624,1.319,1.319,0,0,0,.154-.58l-3.516-10h2.786ZM28.183,59.448a5.14,5.14,0,0,1,1.16,3.639A5.771,5.771,0,0,1,28.2,66.945a3.685,3.685,0,0,1-2.931,1.327,3.059,3.059,0,0,1-1.9-.571,3.683,3.683,0,0,1-.809-.923v4.992H20.088V58.42h2.4v1.415a4.021,4.021,0,0,1,.861-.984,3.165,3.165,0,0,1,1.986-.642A3.767,3.767,0,0,1,28.183,59.448ZM26.759,63.21a3.77,3.77,0,0,0-.505-1.96,1.759,1.759,0,0,0-1.639-.853,1.865,1.865,0,0,0-1.872,1.292,4.9,4.9,0,0,0-.264,1.74,2.776,2.776,0,0,0,.888,2.347,2.021,2.021,0,0,0,1.248.4,1.809,1.809,0,0,0,1.6-.809A3.771,3.771,0,0,0,26.759,63.21Zm4.447-8.165h2.5V68h-2.5Zm5.309,4.412a4.09,4.09,0,0,1,3.41-1.266,6.059,6.059,0,0,1,2.795.624,2.4,2.4,0,0,1,1.222,2.355v4.395q0,.457.018,1.107a1.392,1.392,0,0,0,.149.668.9.9,0,0,0,.369.29V68H41.753a2.79,2.79,0,0,1-.158-.545q-.044-.255-.07-.58a5.146,5.146,0,0,1-1.2.958A3.6,3.6,0,0,1,38.5,68.3a3.143,3.143,0,0,1-2.149-.743,2.649,2.649,0,0,1-.848-2.1,2.732,2.732,0,0,1,1.362-2.558,6.049,6.049,0,0,1,2.2-.615l.853-.105a3.91,3.91,0,0,0,.993-.22.753.753,0,0,0,.536-.712.845.845,0,0,0-.409-.813,2.553,2.553,0,0,0-1.2-.224,1.563,1.563,0,0,0-1.257.439,1.827,1.827,0,0,0-.352.879H35.812A3.676,3.676,0,0,1,36.515,59.457Zm1.863,6.732a1.309,1.309,0,0,0,.861.29A2.551,2.551,0,0,0,40.729,66a2.024,2.024,0,0,0,.708-1.731v-.932a2.722,2.722,0,0,1-.479.242,4.006,4.006,0,0,1-.664.171l-.562.105A3.632,3.632,0,0,0,38.6,64.2a1.149,1.149,0,0,0-.58,1.063A1.1,1.1,0,0,0,38.378,66.189Zm12.3-5.915a1.744,1.744,0,0,0-1.749,1.081,3.713,3.713,0,0,0-.246,1.459V68h-2.5V58.438H48.6v1.4a4.252,4.252,0,0,1,.914-1.063,3.177,3.177,0,0,1,1.96-.58,3.7,3.7,0,0,1,2.43.778,3.163,3.163,0,0,1,.945,2.58V68H52.282V62.173a2.659,2.659,0,0,0-.2-1.16A1.422,1.422,0,0,0,50.674,60.274Zm9.062-1.854V68H57.2V58.42Zm0-3.454v2.312H57.2V54.966ZM65.132,68h-2.5V60.274h-1.4V58.508h1.371v-.615a3.3,3.3,0,0,1,.677-2.276,3.242,3.242,0,0,1,2.47-.7q.229,0,.466.018l.492.035V57q-.176-.009-.343-.013t-.4,0q-.589,0-.721.325a2.72,2.72,0,0,0-.114,1.02v.176h1.644v1.767H65.132Zm5.625-9.536V68h-2.5V58.464Zm-2.5-1.213V54.966h2.452v2.285Zm13.184,4.605H78.878a2.223,2.223,0,0,0-.36-.967,1.511,1.511,0,0,0-1.31-.58,1.725,1.725,0,0,0-1.731,1.257,5.255,5.255,0,0,0-.246,1.775,4.832,4.832,0,0,0,.246,1.7,1.671,1.671,0,0,0,1.688,1.2,1.488,1.488,0,0,0,1.248-.475,2.362,2.362,0,0,0,.448-1.23h2.558a4.191,4.191,0,0,1-.826,2.162A4.016,4.016,0,0,1,77.1,68.334a4.082,4.082,0,0,1-3.4-1.371,5.548,5.548,0,0,1-1.09-3.56,5.63,5.63,0,0,1,1.2-3.841,4.191,4.191,0,0,1,3.322-1.371A5,5,0,0,1,80.086,59,3.761,3.761,0,0,1,81.444,61.856Zm2.083-2.4a4.09,4.09,0,0,1,3.41-1.266,6.059,6.059,0,0,1,2.795.624,2.4,2.4,0,0,1,1.222,2.355v4.395q0,.457.018,1.107a1.392,1.392,0,0,0,.149.668.9.9,0,0,0,.369.29V68H88.766a2.79,2.79,0,0,1-.158-.545q-.044-.255-.07-.58a5.146,5.146,0,0,1-1.2.958,3.6,3.6,0,0,1-1.828.466,3.143,3.143,0,0,1-2.149-.743,2.649,2.649,0,0,1-.848-2.1,2.732,2.732,0,0,1,1.362-2.558,6.049,6.049,0,0,1,2.2-.615l.853-.105a3.91,3.91,0,0,0,.993-.22.753.753,0,0,0,.536-.712.845.845,0,0,0-.409-.813,2.553,2.553,0,0,0-1.2-.224,1.563,1.563,0,0,0-1.257.439,1.827,1.827,0,0,0-.352.879H82.824A3.676,3.676,0,0,1,83.527,59.457Zm1.863,6.732a1.309,1.309,0,0,0,.861.29A2.551,2.551,0,0,0,87.742,66a2.024,2.024,0,0,0,.708-1.731v-.932a2.722,2.722,0,0,1-.479.242,4.006,4.006,0,0,1-.664.171l-.562.105a3.632,3.632,0,0,0-1.134.343,1.149,1.149,0,0,0-.58,1.063A1.1,1.1,0,0,0,85.391,66.189Zm16.075-4.333H98.9a2.223,2.223,0,0,0-.36-.967,1.511,1.511,0,0,0-1.31-.58A1.725,1.725,0,0,0,95.5,61.566a5.255,5.255,0,0,0-.246,1.775,4.832,4.832,0,0,0,.246,1.7,1.671,1.671,0,0,0,1.688,1.2,1.488,1.488,0,0,0,1.248-.475,2.362,2.362,0,0,0,.448-1.23h2.558a4.191,4.191,0,0,1-.826,2.162,4.016,4.016,0,0,1-3.489,1.644,4.082,4.082,0,0,1-3.4-1.371,5.548,5.548,0,0,1-1.09-3.56,5.63,5.63,0,0,1,1.2-3.841,4.191,4.191,0,0,1,3.322-1.371,5,5,0,0,1,2.949.809A3.761,3.761,0,0,1,101.466,61.856Zm4.3-3.437V68h-2.54V58.42Zm0-3.454v2.312h-2.54V54.966Zm10.415,4.667a5.953,5.953,0,0,1,0,7.2,5.274,5.274,0,0,1-7.365,0,5.953,5.953,0,0,1,0-7.2,5.22,5.22,0,0,1,7.365,0Zm-3.691.6a2,2,0,0,0-1.692.778,4.456,4.456,0,0,0,0,4.443,2.216,2.216,0,0,0,3.379,0,4.484,4.484,0,0,0,0-4.443A1.99,1.99,0,0,0,112.487,60.23Zm-1.477-3.1L112.7,54.5h2.795l-2.672,2.628Zm12.683,3.146a1.744,1.744,0,0,0-1.749,1.081,3.713,3.713,0,0,0-.246,1.459V68h-2.5V58.438h2.417v1.4a4.252,4.252,0,0,1,.914-1.063,3.177,3.177,0,0,1,1.96-.58,3.7,3.7,0,0,1,2.43.778,3.163,3.163,0,0,1,.945,2.58V68H125.3V62.173a2.659,2.659,0,0,0-.2-1.16A1.422,1.422,0,0,0,123.693,60.274ZM35.842,92.188a3.178,3.178,0,0,1-.888,1.731,4.349,4.349,0,0,1-3.445,1.4,4.858,4.858,0,0,1-3.226-1.178,4.75,4.75,0,0,1-1.4-3.832,5.326,5.326,0,0,1,1.261-3.814,4.312,4.312,0,0,1,3.274-1.327,5.021,5.021,0,0,1,2.153.448,3.772,3.772,0,0,1,1.582,1.415,4.828,4.828,0,0,1,.729,1.978,12.771,12.771,0,0,1,.079,1.9H29.409a2.381,2.381,0,0,0,.905,2.021,2.132,2.132,0,0,0,1.248.36,1.8,1.8,0,0,0,1.257-.439,2.087,2.087,0,0,0,.466-.659Zm-2.479-2.936a2.181,2.181,0,0,0-.6-1.507,1.87,1.87,0,0,0-1.34-.514,1.7,1.7,0,0,0-1.349.545,2.72,2.72,0,0,0-.6,1.477Zm10.89-3.393a3.086,3.086,0,0,1,1.292,2.479h-2.5a1.482,1.482,0,0,0-.272-.765,1.714,1.714,0,0,0-1.406-.51,2.021,2.021,0,0,0-1.165.255.734.734,0,0,0-.347.6.654.654,0,0,0,.369.624,15.98,15.98,0,0,0,2.61.694A4.8,4.8,0,0,1,45.071,90.3a2.415,2.415,0,0,1,.738,1.8,2.911,2.911,0,0,1-1.059,2.325,4.976,4.976,0,0,1-3.274.9,4.929,4.929,0,0,1-3.335-.954,3.1,3.1,0,0,1-1.077-2.43H39.6a1.673,1.673,0,0,0,.343.949,2.317,2.317,0,0,0,1.723.5,2.626,2.626,0,0,0,1.173-.22.737.737,0,0,0,.083-1.3,14.3,14.3,0,0,0-2.61-.756A5.437,5.437,0,0,1,38.022,90.1a2.191,2.191,0,0,1-.668-1.723A2.988,2.988,0,0,1,38.4,86.1a4.183,4.183,0,0,1,2.931-.954A5.427,5.427,0,0,1,44.253,85.859Zm7.8,7.356v1.872l-1.187.044a3.184,3.184,0,0,1-2.426-.615,1.832,1.832,0,0,1-.422-1.327v-5.9H46.679V85.508h1.336V82.836h2.479v2.672h1.556v1.784H50.494v5.063a1.14,1.14,0,0,0,.149.734,1.645,1.645,0,0,0,.914.145q.114,0,.242,0T52.049,93.216Zm6.425-5.484a2.078,2.078,0,0,0-2.03.984,3.829,3.829,0,0,0-.29,1.705V95H53.631V85.42h2.391v1.67a5.3,5.3,0,0,1,1.011-1.31,2.752,2.752,0,0,1,1.828-.589q.07,0,.119,0l.215.013v2.566q-.237-.026-.422-.035T58.474,87.731Zm2.549-1.274a4.09,4.09,0,0,1,3.41-1.266,6.059,6.059,0,0,1,2.795.624,2.4,2.4,0,0,1,1.222,2.355v4.395q0,.457.018,1.107a1.392,1.392,0,0,0,.149.668.9.9,0,0,0,.369.29V95H66.261a2.79,2.79,0,0,1-.158-.545q-.044-.255-.07-.58a5.146,5.146,0,0,1-1.2.958,3.6,3.6,0,0,1-1.828.466,3.143,3.143,0,0,1-2.149-.743,2.649,2.649,0,0,1-.848-2.1,2.732,2.732,0,0,1,1.362-2.558,6.049,6.049,0,0,1,2.2-.615l.853-.105a3.91,3.91,0,0,0,.993-.22.753.753,0,0,0,.536-.712.845.845,0,0,0-.409-.813,2.553,2.553,0,0,0-1.2-.224,1.563,1.563,0,0,0-1.257.439,1.827,1.827,0,0,0-.352.879H60.32A3.676,3.676,0,0,1,61.023,86.457Zm1.863,6.732a1.309,1.309,0,0,0,.861.29A2.551,2.551,0,0,0,65.237,93a2.024,2.024,0,0,0,.708-1.731v-.932a2.722,2.722,0,0,1-.479.242,4.006,4.006,0,0,1-.664.171l-.562.105a3.632,3.632,0,0,0-1.134.343,1.149,1.149,0,0,0-.58,1.063A1.1,1.1,0,0,0,62.886,93.189Zm12.173.026v1.872l-1.187.044a3.184,3.184,0,0,1-2.426-.615,1.832,1.832,0,0,1-.422-1.327v-5.9H69.689V85.508h1.336V82.836H73.5v2.672h1.556v1.784H73.5v5.063a1.14,1.14,0,0,0,.149.734,1.645,1.645,0,0,0,.914.145q.114,0,.242,0T75.059,93.216Zm9.809-1.028a3.178,3.178,0,0,1-.888,1.731,4.349,4.349,0,0,1-3.445,1.4,4.858,4.858,0,0,1-3.226-1.178,4.75,4.75,0,0,1-1.4-3.832,5.326,5.326,0,0,1,1.261-3.814,4.312,4.312,0,0,1,3.274-1.327,5.021,5.021,0,0,1,2.153.448,3.772,3.772,0,0,1,1.582,1.415,4.828,4.828,0,0,1,.729,1.978,12.771,12.771,0,0,1,.079,1.9H78.434a2.381,2.381,0,0,0,.905,2.021,2.132,2.132,0,0,0,1.248.36,1.8,1.8,0,0,0,1.257-.439,2.087,2.087,0,0,0,.466-.659Zm-2.479-2.936a2.181,2.181,0,0,0-.6-1.507,1.87,1.87,0,0,0-1.34-.514,1.7,1.7,0,0,0-1.349.545,2.72,2.72,0,0,0-.6,1.477Zm-3.252-5.124L80.825,81.5H83.62l-2.672,2.628ZM89.385,96.679a2.117,2.117,0,0,0,1.362.343,1.83,1.83,0,0,0,1.811-.905,4.585,4.585,0,0,0,.3-1.951V93.55a3.055,3.055,0,0,1-.773.923,3.11,3.11,0,0,1-1.942.571,3.676,3.676,0,0,1-2.949-1.3,5.241,5.241,0,0,1-1.1-3.511,5.919,5.919,0,0,1,1.063-3.59,3.514,3.514,0,0,1,3.015-1.455,3.3,3.3,0,0,1,1.257.22A3.01,3.01,0,0,1,92.9,86.8V85.42h2.435v9.088a5.09,5.09,0,0,1-.624,2.795Q93.639,98.92,90.6,98.92a5.6,5.6,0,0,1-3-.721,2.659,2.659,0,0,1-1.283-2.153h2.725A1.128,1.128,0,0,0,89.385,96.679Zm-.422-4.948a1.833,1.833,0,0,0,1.828,1.213,1.935,1.935,0,0,0,1.485-.664,3.072,3.072,0,0,0,.606-2.114,3.235,3.235,0,0,0-.576-2.074,1.882,1.882,0,0,0-1.542-.712,1.818,1.818,0,0,0-1.819,1.239,4.395,4.395,0,0,0-.264,1.626A3.71,3.71,0,0,0,88.963,91.73Zm11.285-6.311V95h-2.54V85.42Zm0-3.454v2.312h-2.54V81.966Zm10.714,6.891H108.4a2.223,2.223,0,0,0-.36-.967,1.511,1.511,0,0,0-1.31-.58,1.725,1.725,0,0,0-1.731,1.257,5.255,5.255,0,0,0-.246,1.775,4.832,4.832,0,0,0,.246,1.7,1.671,1.671,0,0,0,1.688,1.2,1.488,1.488,0,0,0,1.248-.475,2.362,2.362,0,0,0,.448-1.23h2.558a4.191,4.191,0,0,1-.826,2.162,4.016,4.016,0,0,1-3.489,1.644,4.082,4.082,0,0,1-3.4-1.371,5.548,5.548,0,0,1-1.09-3.56,5.63,5.63,0,0,1,1.2-3.841,4.191,4.191,0,0,1,3.322-1.371A5,5,0,0,1,109.6,86,3.761,3.761,0,0,1,110.962,88.856Zm2.083-2.4a4.09,4.09,0,0,1,3.41-1.266,6.059,6.059,0,0,1,2.795.624,2.4,2.4,0,0,1,1.222,2.355v4.395q0,.457.018,1.107a1.392,1.392,0,0,0,.149.668.9.9,0,0,0,.369.29V95h-2.725a2.79,2.79,0,0,1-.158-.545q-.044-.255-.07-.58a5.146,5.146,0,0,1-1.2.958,3.6,3.6,0,0,1-1.828.466,3.143,3.143,0,0,1-2.149-.743,2.649,2.649,0,0,1-.848-2.1,2.732,2.732,0,0,1,1.362-2.558,6.049,6.049,0,0,1,2.2-.615l.853-.105a3.91,3.91,0,0,0,.993-.22.753.753,0,0,0,.536-.712.845.845,0,0,0-.409-.813,2.553,2.553,0,0,0-1.2-.224,1.563,1.563,0,0,0-1.257.439,1.827,1.827,0,0,0-.352.879h-2.417A3.676,3.676,0,0,1,113.045,86.457Zm1.863,6.732a1.309,1.309,0,0,0,.861.29A2.551,2.551,0,0,0,117.26,93a2.024,2.024,0,0,0,.708-1.731v-.932a2.722,2.722,0,0,1-.479.242,4.006,4.006,0,0,1-.664.171l-.562.105a3.632,3.632,0,0,0-1.134.343,1.149,1.149,0,0,0-.58,1.063A1.1,1.1,0,0,0,114.909,93.189Z" transform="translate(545 4690)" fill="#212429"/>
    <path id="Trazado_987018" data-name="Trazado 987018" d="M24.443,11.337H19.67L18.774,14h-2.83L20.567,1.045h3.059L28.213,14H25.278ZM23.687,9.1l-1.617-5.1L20.4,9.1ZM37.679,5.448a5.14,5.14,0,0,1,1.16,3.639A5.771,5.771,0,0,1,37.7,12.945a3.685,3.685,0,0,1-2.931,1.327,3.059,3.059,0,0,1-1.9-.571,3.683,3.683,0,0,1-.809-.923v4.992H29.584V4.42h2.4V5.835a4.021,4.021,0,0,1,.861-.984,3.165,3.165,0,0,1,1.986-.642A3.767,3.767,0,0,1,37.679,5.448ZM36.255,9.21a3.77,3.77,0,0,0-.505-1.96A1.759,1.759,0,0,0,34.111,6.4a1.865,1.865,0,0,0-1.872,1.292,4.9,4.9,0,0,0-.264,1.74,2.776,2.776,0,0,0,.888,2.347,2.021,2.021,0,0,0,1.248.4,1.809,1.809,0,0,0,1.6-.809A3.771,3.771,0,0,0,36.255,9.21ZM40.7,1.045h2.5V14H40.7ZM48.226,4.42V14h-2.54V4.42Zm0-3.454V3.277h-2.54V.966ZM58.94,7.856H56.374a2.223,2.223,0,0,0-.36-.967,1.511,1.511,0,0,0-1.31-.58,1.725,1.725,0,0,0-1.731,1.257,5.255,5.255,0,0,0-.246,1.775,4.832,4.832,0,0,0,.246,1.7,1.671,1.671,0,0,0,1.688,1.2,1.488,1.488,0,0,0,1.248-.475,2.362,2.362,0,0,0,.448-1.23h2.558a4.191,4.191,0,0,1-.826,2.162A4.016,4.016,0,0,1,54.6,14.334a4.082,4.082,0,0,1-3.4-1.371,5.548,5.548,0,0,1-1.09-3.56,5.63,5.63,0,0,1,1.2-3.841,4.191,4.191,0,0,1,3.322-1.371A5,5,0,0,1,57.582,5,3.761,3.761,0,0,1,58.94,7.856Zm2.083-2.4a4.09,4.09,0,0,1,3.41-1.266,6.059,6.059,0,0,1,2.795.624A2.4,2.4,0,0,1,68.45,7.171v4.395q0,.457.018,1.107a1.392,1.392,0,0,0,.149.668.9.9,0,0,0,.369.29V14H66.261a2.79,2.79,0,0,1-.158-.545q-.044-.255-.07-.58a5.146,5.146,0,0,1-1.2.958,3.6,3.6,0,0,1-1.828.466,3.143,3.143,0,0,1-2.149-.743,2.649,2.649,0,0,1-.848-2.1,2.732,2.732,0,0,1,1.362-2.558,6.049,6.049,0,0,1,2.2-.615l.853-.105a3.91,3.91,0,0,0,.993-.22.753.753,0,0,0,.536-.712.845.845,0,0,0-.409-.813,2.553,2.553,0,0,0-1.2-.224,1.563,1.563,0,0,0-1.257.439,1.827,1.827,0,0,0-.352.879H60.32A3.676,3.676,0,0,1,61.023,5.457Zm1.863,6.732a1.309,1.309,0,0,0,.861.29A2.551,2.551,0,0,0,65.237,12a2.024,2.024,0,0,0,.708-1.731V9.342a2.722,2.722,0,0,1-.479.242,4.006,4.006,0,0,1-.664.171l-.562.105a3.632,3.632,0,0,0-1.134.343,1.149,1.149,0,0,0-.58,1.063A1.1,1.1,0,0,0,62.886,12.189ZM78.961,7.856H76.4a2.223,2.223,0,0,0-.36-.967,1.511,1.511,0,0,0-1.31-.58,1.725,1.725,0,0,0-1.731,1.257,5.255,5.255,0,0,0-.246,1.775,4.832,4.832,0,0,0,.246,1.7,1.671,1.671,0,0,0,1.688,1.2,1.488,1.488,0,0,0,1.248-.475,2.362,2.362,0,0,0,.448-1.23h2.558a4.191,4.191,0,0,1-.826,2.162,4.016,4.016,0,0,1-3.489,1.644,4.082,4.082,0,0,1-3.4-1.371,5.548,5.548,0,0,1-1.09-3.56,5.63,5.63,0,0,1,1.2-3.841,4.191,4.191,0,0,1,3.322-1.371A5,5,0,0,1,77.6,5,3.761,3.761,0,0,1,78.961,7.856Zm4.3-3.437V14h-2.54V4.42Zm0-3.454V3.277h-2.54V.966ZM93.674,5.633a5.59,5.59,0,0,1,1.213,3.595,5.553,5.553,0,0,1-1.213,3.608,5.274,5.274,0,0,1-7.365,0A5.553,5.553,0,0,1,85.1,9.228a5.59,5.59,0,0,1,1.213-3.595,5.22,5.22,0,0,1,7.365,0Zm-3.691.6a2,2,0,0,0-1.692.778A3.6,3.6,0,0,0,87.7,9.228a3.619,3.619,0,0,0,.593,2.224,2.216,2.216,0,0,0,3.379,0,3.639,3.639,0,0,0,.589-2.224,3.619,3.619,0,0,0-.589-2.219A1.99,1.99,0,0,0,89.983,6.23Zm-1.477-3.1L90.194.5h2.795L90.317,3.128Zm12.683,3.146A1.744,1.744,0,0,0,99.44,7.355a3.713,3.713,0,0,0-.246,1.459V14H96.7V4.438h2.417v1.4a4.252,4.252,0,0,1,.914-1.063,3.177,3.177,0,0,1,1.96-.58,3.7,3.7,0,0,1,2.43.778,3.163,3.163,0,0,1,.945,2.58V14H102.8V8.173a2.659,2.659,0,0,0-.2-1.16A1.422,1.422,0,0,0,101.189,6.274Zm19.688,4.913a3.178,3.178,0,0,1-.888,1.731,4.349,4.349,0,0,1-3.445,1.4,4.858,4.858,0,0,1-3.226-1.178,4.75,4.75,0,0,1-1.4-3.832,5.326,5.326,0,0,1,1.261-3.814,4.312,4.312,0,0,1,3.274-1.327,5.021,5.021,0,0,1,2.153.448,3.772,3.772,0,0,1,1.582,1.415,4.828,4.828,0,0,1,.729,1.978A12.771,12.771,0,0,1,121,9.9h-6.557a2.381,2.381,0,0,0,.905,2.021,2.132,2.132,0,0,0,1.248.36,1.8,1.8,0,0,0,1.257-.439,2.087,2.087,0,0,0,.466-.659ZM118.4,8.252a2.181,2.181,0,0,0-.6-1.507,1.87,1.87,0,0,0-1.34-.514,1.7,1.7,0,0,0-1.349.545,2.72,2.72,0,0,0-.6,1.477Zm8.8-1.978a1.744,1.744,0,0,0-1.749,1.081,3.713,3.713,0,0,0-.246,1.459V14h-2.5V4.438h2.417v1.4a4.252,4.252,0,0,1,.914-1.063,3.177,3.177,0,0,1,1.96-.58,3.7,3.7,0,0,1,2.43.778,3.163,3.163,0,0,1,.945,2.58V14H128.8V8.173a2.659,2.659,0,0,0-.2-1.16A1.422,1.422,0,0,0,127.2,6.274Zm-94.324,36.4a2.117,2.117,0,0,0,1.362.343,1.83,1.83,0,0,0,1.811-.905,4.585,4.585,0,0,0,.3-1.951V39.55a3.055,3.055,0,0,1-.773.923,3.11,3.11,0,0,1-1.942.571,3.676,3.676,0,0,1-2.949-1.3,5.241,5.241,0,0,1-1.1-3.511,5.919,5.919,0,0,1,1.063-3.59,3.514,3.514,0,0,1,3.015-1.455,3.3,3.3,0,0,1,1.257.22A3.01,3.01,0,0,1,36.387,32.8V31.42h2.435v9.088A5.09,5.09,0,0,1,38.2,43.3q-1.072,1.617-4.113,1.617a5.6,5.6,0,0,1-3-.721A2.659,2.659,0,0,1,29.8,42.046h2.725A1.128,1.128,0,0,0,32.872,42.679ZM32.45,37.73a1.833,1.833,0,0,0,1.828,1.213,1.935,1.935,0,0,0,1.485-.664,3.072,3.072,0,0,0,.606-2.114,3.235,3.235,0,0,0-.576-2.074,1.882,1.882,0,0,0-1.542-.712,1.818,1.818,0,0,0-1.819,1.239,4.395,4.395,0,0,0-.264,1.626A3.71,3.71,0,0,0,32.45,37.73Zm16.91.457a3.178,3.178,0,0,1-.888,1.731,4.349,4.349,0,0,1-3.445,1.4A4.858,4.858,0,0,1,41.8,40.139a4.75,4.75,0,0,1-1.4-3.832,5.326,5.326,0,0,1,1.261-3.814,4.312,4.312,0,0,1,3.274-1.327,5.021,5.021,0,0,1,2.153.448,3.772,3.772,0,0,1,1.582,1.415,4.828,4.828,0,0,1,.729,1.978,12.771,12.771,0,0,1,.079,1.9H42.926a2.381,2.381,0,0,0,.905,2.021,2.132,2.132,0,0,0,1.248.36,1.8,1.8,0,0,0,1.257-.439,2.087,2.087,0,0,0,.466-.659Zm-2.479-2.936a2.181,2.181,0,0,0-.6-1.507,1.87,1.87,0,0,0-1.34-.514,1.7,1.7,0,0,0-1.349.545,2.72,2.72,0,0,0-.6,1.477Zm10.89-3.393a3.086,3.086,0,0,1,1.292,2.479h-2.5a1.482,1.482,0,0,0-.272-.765,1.714,1.714,0,0,0-1.406-.51,2.021,2.021,0,0,0-1.165.255.734.734,0,0,0-.347.6.654.654,0,0,0,.369.624,15.98,15.98,0,0,0,2.61.694A4.8,4.8,0,0,1,58.588,36.3a2.415,2.415,0,0,1,.738,1.8,2.911,2.911,0,0,1-1.059,2.325,4.976,4.976,0,0,1-3.274.9,4.929,4.929,0,0,1-3.335-.954,3.1,3.1,0,0,1-1.077-2.43h2.54a1.673,1.673,0,0,0,.343.949,2.317,2.317,0,0,0,1.723.5,2.626,2.626,0,0,0,1.173-.22.737.737,0,0,0,.083-1.3,14.3,14.3,0,0,0-2.61-.756A5.437,5.437,0,0,1,51.54,36.1a2.191,2.191,0,0,1-.668-1.723A2.988,2.988,0,0,1,51.913,32.1a4.183,4.183,0,0,1,2.931-.954A5.427,5.427,0,0,1,57.771,31.859Zm7.8,7.356v1.872l-1.187.044a3.184,3.184,0,0,1-2.426-.615,1.832,1.832,0,0,1-.422-1.327v-5.9H60.2V31.508h1.336V28.836h2.479v2.672h1.556v1.784H64.011v5.063a1.14,1.14,0,0,0,.149.734,1.645,1.645,0,0,0,.914.145q.114,0,.242,0T65.567,39.216Zm4.184-7.8V41H67.21V31.42Zm0-3.454v2.312H67.21V27.966Zm10.415,4.667a5.953,5.953,0,0,1,0,7.2,5.274,5.274,0,0,1-7.365,0,5.953,5.953,0,0,1,0-7.2,5.22,5.22,0,0,1,7.365,0Zm-3.691.6a2,2,0,0,0-1.692.778,3.6,3.6,0,0,0-.593,2.219,3.619,3.619,0,0,0,.593,2.224,2.216,2.216,0,0,0,3.379,0,3.639,3.639,0,0,0,.589-2.224,3.619,3.619,0,0,0-.589-2.219A1.99,1.99,0,0,0,76.474,33.23ZM75,30.128,76.685,27.5H79.48l-2.672,2.628ZM87.68,33.274a1.744,1.744,0,0,0-1.749,1.081,3.713,3.713,0,0,0-.246,1.459V41h-2.5V31.438h2.417v1.4a4.252,4.252,0,0,1,.914-1.063,3.177,3.177,0,0,1,1.96-.58,3.7,3.7,0,0,1,2.43.778,3.163,3.163,0,0,1,.945,2.58V41H89.289V35.173a2.659,2.659,0,0,0-.2-1.16A1.422,1.422,0,0,0,87.68,33.274Zm20.206-5.212V41h-2.435V39.673a3.533,3.533,0,0,1-1.222,1.239,3.43,3.43,0,0,1-1.705.387A3.56,3.56,0,0,1,99.7,39.941a5.215,5.215,0,0,1-1.147-3.485A6,6,0,0,1,99.682,32.6a3.674,3.674,0,0,1,3.019-1.406,3.09,3.09,0,0,1,1.547.382,3.043,3.043,0,0,1,1.1,1.059v-4.57Zm-6.75,8.209a3.767,3.767,0,0,0,.527,2.118,1.756,1.756,0,0,0,1.582.8,1.849,1.849,0,0,0,1.617-.791,3.5,3.5,0,0,0,.554-2.048,3.141,3.141,0,0,0-.888-2.514,1.91,1.91,0,0,0-1.266-.457,1.759,1.759,0,0,0-1.613.831A3.848,3.848,0,0,0,101.136,36.271Zm17.227,1.916a3.178,3.178,0,0,1-.888,1.731,4.349,4.349,0,0,1-3.445,1.4,4.858,4.858,0,0,1-3.226-1.178,4.75,4.75,0,0,1-1.4-3.832,5.326,5.326,0,0,1,1.261-3.814,4.312,4.312,0,0,1,3.274-1.327,5.021,5.021,0,0,1,2.153.448,3.772,3.772,0,0,1,1.582,1.415,4.828,4.828,0,0,1,.729,1.978,12.771,12.771,0,0,1,.079,1.9h-6.557a2.381,2.381,0,0,0,.905,2.021,2.132,2.132,0,0,0,1.248.36,1.8,1.8,0,0,0,1.257-.439,2.087,2.087,0,0,0,.466-.659Zm-2.479-2.936a2.181,2.181,0,0,0-.6-1.507,1.87,1.87,0,0,0-1.34-.514,1.7,1.7,0,0,0-1.349.545,2.72,2.72,0,0,0-.6,1.477Zm-75.7,24.2a5.14,5.14,0,0,1,1.16,3.639A5.771,5.771,0,0,1,40.2,66.945a3.685,3.685,0,0,1-2.931,1.327,3.059,3.059,0,0,1-1.9-.571,3.683,3.683,0,0,1-.809-.923v4.992H32.085V58.42h2.4v1.415a4.021,4.021,0,0,1,.861-.984,3.165,3.165,0,0,1,1.986-.642A3.767,3.767,0,0,1,40.18,59.448ZM38.756,63.21a3.77,3.77,0,0,0-.505-1.96,1.759,1.759,0,0,0-1.639-.853,1.865,1.865,0,0,0-1.872,1.292,4.9,4.9,0,0,0-.264,1.74,2.776,2.776,0,0,0,.888,2.347,2.021,2.021,0,0,0,1.248.4,1.809,1.809,0,0,0,1.6-.809A3.771,3.771,0,0,0,38.756,63.21Zm9.211-2.479a2.078,2.078,0,0,0-2.03.984,3.829,3.829,0,0,0-.29,1.705V68H43.124V58.42h2.391v1.67a5.3,5.3,0,0,1,1.011-1.31,2.752,2.752,0,0,1,1.828-.589q.07,0,.119,0l.215.013v2.566q-.237-.026-.422-.035T47.967,60.731Zm10.178-1.1a5.953,5.953,0,0,1,0,7.2,4.456,4.456,0,0,1-3.683,1.5,4.456,4.456,0,0,1-3.683-1.5,5.953,5.953,0,0,1,0-7.2,4.426,4.426,0,0,1,3.683-1.521A4.426,4.426,0,0,1,58.145,59.633Zm-3.691.6a2,2,0,0,0-1.692.778,4.456,4.456,0,0,0,0,4.443,2.216,2.216,0,0,0,3.379,0,4.484,4.484,0,0,0,0-4.443A1.99,1.99,0,0,0,54.453,60.23Zm10.591,5.256,1.978-7.066h2.663L66.4,67.842a13.23,13.23,0,0,1-1.5,3.379,2.856,2.856,0,0,1-2.215.655q-.334,0-.536,0t-.606-.031v-2l.316.018a3.948,3.948,0,0,0,.7-.026,1.262,1.262,0,0,0,.563-.2A1.352,1.352,0,0,0,63.528,69a1.319,1.319,0,0,0,.154-.58l-3.516-10h2.786Zm14.317-.3a3.178,3.178,0,0,1-.888,1.731,4.349,4.349,0,0,1-3.445,1.4A4.858,4.858,0,0,1,71.8,67.139a4.75,4.75,0,0,1-1.4-3.832,5.326,5.326,0,0,1,1.261-3.814,4.312,4.312,0,0,1,3.274-1.327,5.021,5.021,0,0,1,2.153.448,3.772,3.772,0,0,1,1.582,1.415,4.828,4.828,0,0,1,.729,1.978,12.771,12.771,0,0,1,.079,1.9H72.928a2.381,2.381,0,0,0,.905,2.021,2.132,2.132,0,0,0,1.248.36,1.8,1.8,0,0,0,1.257-.439,2.087,2.087,0,0,0,.466-.659Zm-2.479-2.936a2.181,2.181,0,0,0-.6-1.507,1.87,1.87,0,0,0-1.34-.514,1.7,1.7,0,0,0-1.349.545,2.72,2.72,0,0,0-.6,1.477Zm12.577-.4H86.894a2.223,2.223,0,0,0-.36-.967,1.511,1.511,0,0,0-1.31-.58,1.725,1.725,0,0,0-1.731,1.257,5.255,5.255,0,0,0-.246,1.775,4.832,4.832,0,0,0,.246,1.7,1.671,1.671,0,0,0,1.688,1.2,1.488,1.488,0,0,0,1.248-.475,2.362,2.362,0,0,0,.448-1.23h2.558a4.191,4.191,0,0,1-.826,2.162,4.016,4.016,0,0,1-3.489,1.644,4.082,4.082,0,0,1-3.4-1.371,5.548,5.548,0,0,1-1.09-3.56,5.63,5.63,0,0,1,1.2-3.841,4.191,4.191,0,0,1,3.322-1.371A5,5,0,0,1,88.1,59,3.761,3.761,0,0,1,89.46,61.856Zm6.108,4.359v1.872l-1.187.044a3.184,3.184,0,0,1-2.426-.615,1.832,1.832,0,0,1-.422-1.327v-5.9H90.2V58.508h1.336V55.836h2.479v2.672h1.556v1.784H94.013v5.063a1.14,1.14,0,0,0,.149.734,1.645,1.645,0,0,0,.914.145q.114,0,.242,0T95.568,66.216Zm9.6-6.583a5.953,5.953,0,0,1,0,7.2,5.274,5.274,0,0,1-7.365,0,5.953,5.953,0,0,1,0-7.2,5.22,5.22,0,0,1,7.365,0Zm-3.691.6a2,2,0,0,0-1.692.778,4.456,4.456,0,0,0,0,4.443,2.216,2.216,0,0,0,3.379,0,4.484,4.484,0,0,0,0-4.443A1.99,1.99,0,0,0,101.475,60.23Zm13.3-1.371a3.086,3.086,0,0,1,1.292,2.479h-2.5a1.482,1.482,0,0,0-.272-.765,1.714,1.714,0,0,0-1.406-.51,2.021,2.021,0,0,0-1.165.255.734.734,0,0,0-.347.6.654.654,0,0,0,.369.624,15.98,15.98,0,0,0,2.61.694A4.8,4.8,0,0,1,115.59,63.3a2.415,2.415,0,0,1,.738,1.8,2.911,2.911,0,0,1-1.059,2.325,6.354,6.354,0,0,1-6.609-.053,3.1,3.1,0,0,1-1.077-2.43h2.54a1.673,1.673,0,0,0,.343.949,2.317,2.317,0,0,0,1.723.5,2.626,2.626,0,0,0,1.173-.22.737.737,0,0,0,.083-1.3,14.3,14.3,0,0,0-2.61-.756,5.437,5.437,0,0,1-2.294-1.011,2.191,2.191,0,0,1-.668-1.723,2.988,2.988,0,0,1,1.042-2.281,4.183,4.183,0,0,1,2.931-.954A5.427,5.427,0,0,1,114.772,58.859Z" transform="translate(913 4701)" fill="#212429"/>
    <path id="Trazado_987021" data-name="Trazado 987021" d="M33,0A33,33,0,1,1,0,33,33,33,0,0,1,33,0Z" transform="translate(767 4278)" fill="#886c12"/>
    <path id="Trazado_987020" data-name="Trazado 987020" d="M33,0A33,33,0,1,1,0,33,33,33,0,0,1,33,0Z" transform="translate(606 4823)" fill="#2a5673"/>
    <path id="Trazado_987019" data-name="Trazado 987019" d="M33,0A33,33,0,1,1,0,33,33,33,0,0,1,33,0Z" transform="translate(930 4823)" fill="#586577"/>
  </g>
</svg>
