<svg xmlns="http://www.w3.org/2000/svg" xmlns:xlink="http://www.w3.org/1999/xlink" width="108" height="108" viewBox="0 0 108 108">
  <defs>
    <filter id="Trazado_904820" x="0" y="0" width="108" height="108" filterUnits="userSpaceOnUse">
      <feOffset dy="3" input="SourceAlpha"/>
      <feGaussianBlur stdDeviation="3" result="blur"/>
      <feFlood flood-opacity="0.161"/>
      <feComposite operator="in" in2="blur"/>
      <feComposite in="SourceGraphic"/>
    </filter>
    <clipPath id="clip-path">
      <rect id="Rectángulo_408366" data-name="Rectángulo 408366" width="57" height="57" transform="translate(0 -0.5)" fill="none"/>
    </clipPath>
  </defs>
  <g id="Grupo_1145531" data-name="Grupo 1145531" transform="translate(-1291 -685)">
    <g id="Grupo_1145530" data-name="Grupo 1145530" transform="translate(1300 691)">
      <g transform="matrix(1, 0, 0, 1, -9, -6)" filter="url(#Trazado_904820)">
        <g id="Trazado_904820-2" data-name="Trazado 904820" transform="translate(9 6)" fill="#ecf4fa">
          <path d="M 45 88.5 C 39.12687683105469 88.5 33.43022537231445 87.35007476806641 28.06830024719238 85.08217620849609 C 22.88852500915527 82.89131164550781 18.23629951477051 79.75458526611328 14.2408504486084 75.75914764404297 C 10.24541282653809 71.76370239257812 7.108687400817871 67.11147308349609 4.917825222015381 61.93170166015625 C 2.649924993515015 56.56977462768555 1.5 50.87312316894531 1.5 45 C 1.5 39.12687683105469 2.649924993515015 33.43022537231445 4.917825222015381 28.06830024719238 C 7.108687400817871 22.88852500915527 10.24541282653809 18.23629951477051 14.2408504486084 14.2408504486084 C 18.23629951477051 10.24541282653809 22.88852500915527 7.108687400817871 28.06830024719238 4.917825222015381 C 33.43022537231445 2.649924993515015 39.12687683105469 1.5 45 1.5 C 50.87312316894531 1.5 56.56977462768555 2.649924993515015 61.93170166015625 4.917825222015381 C 67.11147308349609 7.108687400817871 71.76370239257812 10.24541282653809 75.75914764404297 14.2408504486084 C 79.75458526611328 18.23629951477051 82.89131164550781 22.88852500915527 85.08217620849609 28.06830024719238 C 87.35007476806641 33.43022537231445 88.5 39.12687683105469 88.5 45 C 88.5 50.87312316894531 87.35007476806641 56.56977462768555 85.08217620849609 61.93170166015625 C 82.89131164550781 67.11147308349609 79.75458526611328 71.76370239257812 75.75914764404297 75.75914764404297 C 71.76370239257812 79.75458526611328 67.11147308349609 82.89131164550781 61.93170166015625 85.08217620849609 C 56.56977462768555 87.35007476806641 50.87312316894531 88.5 45 88.5 Z" stroke="none"/>
          <path d="M 45 3 C 39.32871246337891 3 33.82865524291992 4.110054016113281 28.65262985229492 6.299339294433594 C 23.65165710449219 8.414573669433594 19.15968322753906 11.44334411621094 15.301513671875 15.301513671875 C 11.44334411621094 19.15968322753906 8.414573669433594 23.65165710449219 6.299339294433594 28.65262985229492 C 4.110054016113281 33.82865524291992 3 39.32871246337891 3 45 C 3 50.67128753662109 4.110054016113281 56.17134475708008 6.299339294433594 61.34737396240234 C 8.414573669433594 66.34834289550781 11.44334411621094 70.84031677246094 15.301513671875 74.698486328125 C 19.15968322753906 78.55665588378906 23.65165710449219 81.58542633056641 28.65262985229492 83.70066070556641 C 33.82865524291992 85.88994598388672 39.32871246337891 87 45 87 C 50.67128753662109 87 56.17134475708008 85.88994598388672 61.34737396240234 83.70066070556641 C 66.34834289550781 81.58542633056641 70.84031677246094 78.55665588378906 74.698486328125 74.698486328125 C 78.55665588378906 70.84031677246094 81.58542633056641 66.34834289550781 83.70066070556641 61.34737396240234 C 85.88994598388672 56.17134475708008 87 50.67128753662109 87 45 C 87 39.32871246337891 85.88994598388672 33.82865524291992 83.70066070556641 28.65262985229492 C 81.58542633056641 23.65165710449219 78.55665588378906 19.15968322753906 74.698486328125 15.301513671875 C 70.84031677246094 11.44334411621094 66.34834289550781 8.414573669433594 61.34737396240234 6.299339294433594 C 56.17134475708008 4.110054016113281 50.67128753662109 3 45 3 M 45 0 C 69.85281372070312 0 90 20.14718627929688 90 45 C 90 69.85281372070312 69.85281372070312 90 45 90 C 20.14718627929688 90 0 69.85281372070312 0 45 C 0 20.14718627929688 20.14718627929688 0 45 0 Z" stroke="none" fill="#2a5673"/>
        </g>
      </g>
    </g>
    <g id="Grupo_1145477" data-name="Grupo 1145477" transform="translate(1314 711.093)">
      <path id="Trazado_986825" data-name="Trazado 986825" d="M5.626,6.5,50.942,61.277,60.956,19.891Z" transform="translate(-4.79 -5.335)" fill="#fc8086"/>
      <g id="Grupo_1145472" data-name="Grupo 1145472" transform="translate(0 0.407)">
        <g id="Grupo_1145471" data-name="Grupo 1145471" clip-path="url(#clip-path)">
          <path id="Trazado_986826" data-name="Trazado 986826" d="M158.439,58.867a17.171,17.171,0,0,0-11,17.758L159.663,91.4q.411.122.831.223a17.176,17.176,0,0,0,15.536-3.938l4.563-18.857a17.323,17.323,0,0,0-3.3-5.4Z" transform="translate(-125.479 -50.332)" fill="#fa4954"/>
          <path id="Trazado_986827" data-name="Trazado 986827" d="M5.626,6.5,16.872,9.225A11.515,11.515,0,0,1,13,15.419Z" transform="translate(-4.791 -5.742)" fill="#97e4f9"/>
          <path id="Trazado_986828" data-name="Trazado 986828" d="M271.324,297.857,268.6,309.1l-7.376-8.916a11.552,11.552,0,0,1,10.1-2.331" transform="translate(-222.451 -253.569)" fill="#97e4f9"/>
        </g>
      </g>
      <g id="Grupo_1145474" data-name="Grupo 1145474" transform="translate(0 0.407)">
        <g id="Grupo_1145473" data-name="Grupo 1145473" clip-path="url(#clip-path)">
          <path id="Trazado_986829" data-name="Trazado 986829" d="M195.97,85.733A14.174,14.174,0,1,1,181.8,71.559,14.174,14.174,0,0,1,195.97,85.733" transform="translate(-142.739 -61.14)" fill="#fcdd2e"/>
          <path id="Trazado_986830" data-name="Trazado 986830" d="M56.878,14.666a.834.834,0,0,0-.517-.376L24.631,6.612a.835.835,0,1,0-.393,1.623l11.269,2.727A15.112,15.112,0,0,0,29.841,13.7a15.038,15.038,0,0,0-5.419,15.217L9.367,10.717a12.261,12.261,0,0,0,3.3-5.282L20.418,7.31a.835.835,0,0,0,.392-1.623L1.031.9a.835.835,0,0,0-.84,1.344l7.372,8.91,0,0,0,0L45.508,57.018a.835.835,0,0,0,1.455-.336l3.182-13.151a.835.835,0,0,0-1.623-.393l-.271,1.12a12.278,12.278,0,0,0-9.346,2.158L33,39.281a15.039,15.039,0,0,0,17.4-3.9l-.96,3.969a.836.836,0,0,0,.615,1.008.851.851,0,0,0,.2.023.836.836,0,0,0,.811-.638l2.58-10.665h0L56.977,15.3a.838.838,0,0,0-.1-.631M11.042,5.041A10.606,10.606,0,0,1,8.3,9.428L3.078,3.115ZM47.857,45.887,45.732,54.67l-5.76-6.962a10.622,10.622,0,0,1,7.885-1.82m-8.79-7a13.4,13.4,0,0,1-3.149-.377,13.339,13.339,0,0,1,5.479-26.1.835.835,0,0,0,.638.816.851.851,0,0,0,.2.024.835.835,0,0,0,.742-.458,13.338,13.338,0,0,1,9.212,15.095.834.834,0,0,0-.384,1.577,13.291,13.291,0,0,1-12.736,9.421M53.642,21.98a15.149,15.149,0,0,0-4.749-7.78l6.265,1.516Z" transform="translate(0 -0.951)"/>
        </g>
      </g>
      <g id="Grupo_1145476" data-name="Grupo 1145476" transform="translate(0 0.407)">
        <g id="Grupo_1145475" data-name="Grupo 1145475" clip-path="url(#clip-path)">
          <path id="Trazado_986831" data-name="Trazado 986831" d="M272.659,94.533a.835.835,0,0,0-1.008.615l-.357,1.475a.835.835,0,0,0,.615,1.008.849.849,0,0,0,.2.024.835.835,0,0,0,.811-.639l.357-1.475a.835.835,0,0,0-.615-1.008" transform="translate(-231.004 -80.684)"/>
          <path id="Trazado_986832" data-name="Trazado 986832" d="M265.046,125.99a.836.836,0,0,0-1.009.615l-.357,1.474a.835.835,0,0,0,.615,1.008.822.822,0,0,0,.2.024.835.835,0,0,0,.811-.639l.357-1.475a.835.835,0,0,0-.615-1.008" transform="translate(-224.52 -107.471)"/>
          <path id="Trazado_986833" data-name="Trazado 986833" d="M259.219,158.3a.835.835,0,0,0-1.646-.238l-.157.649a.835.835,0,0,0,.619,1.009l.65.154a.835.835,0,0,0,.534-1.575" transform="translate(-219.186 -134.259)"/>
          <path id="Trazado_986834" data-name="Trazado 986834" d="M317.063,175.757l-1.47-.349a.835.835,0,1,0-.386,1.625l1.469.349a.835.835,0,0,0,.387-1.625" transform="translate(-267.871 -149.554)"/>
          <path id="Trazado_986835" data-name="Trazado 986835" d="M285.715,168.307l-1.47-.349a.835.835,0,1,0-.386,1.625l1.47.349a.835.835,0,0,0,.386-1.625" transform="translate(-241.177 -143.21)"/>
        </g>
      </g>
    </g>
  </g>
</svg>
