<svg xmlns="http://www.w3.org/2000/svg" xmlns:xlink="http://www.w3.org/1999/xlink" width="108" height="108" viewBox="0 0 108 108">
  <defs>
    <filter id="Trazado_904820" x="0" y="0" width="108" height="108" filterUnits="userSpaceOnUse">
      <feOffset dy="3" input="SourceAlpha"/>
      <feGaussianBlur stdDeviation="3" result="blur"/>
      <feFlood flood-opacity="0.161"/>
      <feComposite operator="in" in2="blur"/>
      <feComposite in="SourceGraphic"/>
    </filter>
    <clipPath id="clip-path">
      <rect id="Rectángulo_408369" data-name="Rectángulo 408369" width="57" height="57" transform="translate(0 -0.047)" fill="none"/>
    </clipPath>
  </defs>
  <g id="Grupo_1145543" data-name="Grupo 1145543" transform="translate(-201 -1327)">
    <g id="Grupo_1145312" data-name="Grupo 1145312" transform="translate(210 1333)">
      <g transform="matrix(1, 0, 0, 1, -9, -6)" filter="url(#Trazado_904820)">
        <g id="Trazado_904820-2" data-name="Trazado 904820" transform="translate(9 6)" fill="#fef8e7">
          <path d="M 45 88.5 C 39.12687683105469 88.5 33.43022537231445 87.35007476806641 28.06830024719238 85.08217620849609 C 22.88852500915527 82.89131164550781 18.23629951477051 79.75458526611328 14.2408504486084 75.75914764404297 C 10.24541282653809 71.76370239257812 7.108687400817871 67.11147308349609 4.917825222015381 61.93170166015625 C 2.649924993515015 56.56977462768555 1.5 50.87312316894531 1.5 45 C 1.5 39.12687683105469 2.649924993515015 33.43022537231445 4.917825222015381 28.06830024719238 C 7.108687400817871 22.88852500915527 10.24541282653809 18.23629951477051 14.2408504486084 14.2408504486084 C 18.23629951477051 10.24541282653809 22.88852500915527 7.108687400817871 28.06830024719238 4.917825222015381 C 33.43022537231445 2.649924993515015 39.12687683105469 1.5 45 1.5 C 50.87312316894531 1.5 56.56977462768555 2.649924993515015 61.93170166015625 4.917825222015381 C 67.11147308349609 7.108687400817871 71.76370239257812 10.24541282653809 75.75914764404297 14.2408504486084 C 79.75458526611328 18.23629951477051 82.89131164550781 22.88852500915527 85.08217620849609 28.06830024719238 C 87.35007476806641 33.43022537231445 88.5 39.12687683105469 88.5 45 C 88.5 50.87312316894531 87.35007476806641 56.56977462768555 85.08217620849609 61.93170166015625 C 82.89131164550781 67.11147308349609 79.75458526611328 71.76370239257812 75.75914764404297 75.75914764404297 C 71.76370239257812 79.75458526611328 67.11147308349609 82.89131164550781 61.93170166015625 85.08217620849609 C 56.56977462768555 87.35007476806641 50.87312316894531 88.5 45 88.5 Z" stroke="none"/>
          <path d="M 45 3 C 39.32871246337891 3 33.82865524291992 4.110054016113281 28.65262985229492 6.299339294433594 C 23.65165710449219 8.414573669433594 19.15968322753906 11.44334411621094 15.301513671875 15.301513671875 C 11.44334411621094 19.15968322753906 8.414573669433594 23.65165710449219 6.299339294433594 28.65262985229492 C 4.110054016113281 33.82865524291992 3 39.32871246337891 3 45 C 3 50.67128753662109 4.110054016113281 56.17134475708008 6.299339294433594 61.34737396240234 C 8.414573669433594 66.34834289550781 11.44334411621094 70.84031677246094 15.301513671875 74.698486328125 C 19.15968322753906 78.55665588378906 23.65165710449219 81.58542633056641 28.65262985229492 83.70066070556641 C 33.82865524291992 85.88994598388672 39.32871246337891 87 45 87 C 50.67128753662109 87 56.17134475708008 85.88994598388672 61.34737396240234 83.70066070556641 C 66.34834289550781 81.58542633056641 70.84031677246094 78.55665588378906 74.698486328125 74.698486328125 C 78.55665588378906 70.84031677246094 81.58542633056641 66.34834289550781 83.70066070556641 61.34737396240234 C 85.88994598388672 56.17134475708008 87 50.67128753662109 87 45 C 87 39.32871246337891 85.88994598388672 33.82865524291992 83.70066070556641 28.65262985229492 C 81.58542633056641 23.65165710449219 78.55665588378906 19.15968322753906 74.698486328125 15.301513671875 C 70.84031677246094 11.44334411621094 66.34834289550781 8.414573669433594 61.34737396240234 6.299339294433594 C 56.17134475708008 4.110054016113281 50.67128753662109 3 45 3 M 45 0 C 69.85281372070312 0 90 20.14718627929688 90 45 C 90 69.85281372070312 69.85281372070312 90 45 90 C 20.14718627929688 90 0 69.85281372070312 0 45 C 0 20.14718627929688 20.14718627929688 0 45 0 Z" stroke="none" fill="#493a0a"/>
        </g>
      </g>
    </g>
    <g id="Grupo_1145479" data-name="Grupo 1145479" transform="translate(228 1350.724)">
      <g id="Grupo_1145478" data-name="Grupo 1145478" transform="translate(0 0.323)" clip-path="url(#clip-path)">
        <path id="Trazado_986836" data-name="Trazado 986836" d="M50.761,13.371A26.44,26.44,0,1,0,13.37,50.762l-3.2,3.2,7.122,7.122,43.8-43.8-7.122-7.122ZM34.736,29.4a3.777,3.777,0,0,0-5.342,5.342l-8.9,8.9A16.367,16.367,0,0,1,43.639,20.493Z" transform="translate(-4.789 -4.973)" fill="#fcdd2e"/>
        <path id="Trazado_986837" data-name="Trazado 986837" d="M86.289,15.019l1.648-1.648a26.439,26.439,0,0,0-37.391,0q-.651.65-1.246,1.336a26.442,26.442,0,0,1,35.115.35,1.356,1.356,0,0,0,1.873-.038" transform="translate(-41.965 -4.973)" fill="#f9c301"/>
        <path id="Trazado_986838" data-name="Trazado 986838" d="M102.452,38.716l3.432,3.431a1.353,1.353,0,0,1,0,1.913L65.621,84.322l2.734,2.735,43.8-43.8-7.122-7.122Z" transform="translate(-55.857 -30.941)" fill="#f9c301"/>
        <path id="Trazado_986839" data-name="Trazado 986839" d="M13.366,109.83l-.868.867L6.56,104.759l2.613-2.613a.836.836,0,0,0,0-1.183,25.506,25.506,0,0,1-1.73-34.3A.837.837,0,0,0,6.148,65.6a27.281,27.281,0,0,0,1.258,35.941l-2.622,2.622a.837.837,0,0,0,0,1.183l7.122,7.122a.837.837,0,0,0,1.184,0l1.459-1.459a.837.837,0,1,0-1.183-1.184" transform="translate(0 -55.765)"/>
        <path id="Trazado_986840" data-name="Trazado 986840" d="M74.879,80.218a.837.837,0,0,0,0-1.183,2.94,2.94,0,1,1,4.158-4.158.836.836,0,0,0,1.183,0l4.792-4.792A.837.837,0,0,0,83.829,68.9l-4.253,4.253a4.615,4.615,0,0,0-6.418,6.418L65.4,87.33a15.449,15.449,0,0,1-1.884-2.593.044.044,0,0,0,0-.009s-.006-.009-.008-.013A15.531,15.531,0,0,1,87.332,65.4l-.7.7a.837.837,0,1,0,1.183,1.183l2.735-2.735a.837.837,0,1,0-1.183-1.183l-.847.847a17.14,17.14,0,0,0-2.439-1.848l.135-.228a.837.837,0,0,0-1.441-.852l-.156.264a17.076,17.076,0,0,0-2.4-.972l.311-1.16a.837.837,0,1,0-1.617-.433L80.6,60.145a17.278,17.278,0,0,0-3-.373l0-.334a.837.837,0,0,0-.828-.846h-.009a.837.837,0,0,0-.836.828l0,.37a17.332,17.332,0,0,0-2.6.354l-.312-1.162a.837.837,0,1,0-1.617.433l.31,1.16a17.081,17.081,0,0,0-2.743,1.146l-.175-.312a.837.837,0,0,0-1.459.822l.191.339A17.185,17.185,0,0,0,65.4,64.213l-.847-.847a.837.837,0,1,0-1.183,1.183l.847.847a17.223,17.223,0,0,0-1.765,2.31l-.311-.184a.837.837,0,1,0-.852,1.441l.333.2A17.144,17.144,0,0,0,60.578,71.7l-1.16-.311a.837.837,0,0,0-.433,1.617l1.163.312a17.245,17.245,0,0,0-.367,2.825l-.34,0a.837.837,0,1,0-.017,1.674l.36,0a17.271,17.271,0,0,0,.365,2.776l-1.163.311a.837.837,0,1,0,.433,1.617l1.16-.31a17.136,17.136,0,0,0,1.075,2.6l-.241.135a.837.837,0,1,0,.822,1.458l.255-.143a17.144,17.144,0,0,0,1.726,2.249l-.847.847a.837.837,0,1,0,1.183,1.183Z" transform="translate(-49.681 -49.862)"/>
        <path id="Trazado_986841" data-name="Trazado 986841" d="M106.795,11.906,99.673,4.784a.838.838,0,0,0-1.184,0L95.867,7.407A27.277,27.277,0,0,0,58.9,7.029a.837.837,0,1,0,1.122,1.242,25.575,25.575,0,0,1,35.259.9.836.836,0,0,0,1.183,0L99.081,6.56,105.02,12.5l-4.692,4.692-.832-.832a.837.837,0,1,0-1.184,1.183l.833.833-4.158,4.158-.832-.832a.837.837,0,1,0-1.184,1.183l.833.833-4.158,4.158-.833-.833a.837.837,0,0,0-1.183,1.183l.832.833L84.3,33.215l-.832-.832a.837.837,0,1,0-1.183,1.183l.832.832-4.158,4.158-.832-.832a.837.837,0,0,0-1.184,1.183l.833.833L73.62,43.9l-.832-.833A.837.837,0,0,0,71.6,44.249l.833.833L68.278,49.24l-.833-.833a.837.837,0,1,0-1.183,1.184l.832.832-1.039,1.039a.837.837,0,1,0,1.183,1.183l1.63-1.63h0L106.795,13.09a.837.837,0,0,0,0-1.184" transform="translate(-49.904 -0.183)"/>
      </g>
    </g>
  </g>
</svg>
