<svg xmlns="http://www.w3.org/2000/svg" xmlns:xlink="http://www.w3.org/1999/xlink" width="108" height="108" viewBox="0 0 108 108">
  <defs>
    <filter id="Fondo" x="0" y="0" width="108" height="108" filterUnits="userSpaceOnUse">
      <feOffset dy="3" input="SourceAlpha"/>
      <feGaussianBlur stdDeviation="3" result="blur"/>
      <feFlood flood-opacity="0.161"/>
      <feComposite operator="in" in2="blur"/>
      <feComposite in="SourceGraphic"/>
    </filter>
    <clipPath id="clip-path">
      <rect id="Rect치ngulo_408371" data-name="Rect치ngulo 408371" width="60" height="64" transform="translate(0 -0.012)" fill="none"/>
    </clipPath>
  </defs>
  <g id="Icono" transform="translate(8.5 -689)">
    <g transform="matrix(1, 0, 0, 1, -8.5, 689)" filter="url(#Fondo)">
      <g id="Fondo-2" data-name="Fondo" transform="translate(9 6)" fill="#e6d567">
        <path d="M 45 88.5 C 39.12687683105469 88.5 33.43022537231445 87.35007476806641 28.06830024719238 85.08217620849609 C 22.88852500915527 82.89131164550781 18.23629951477051 79.75458526611328 14.2408504486084 75.75914764404297 C 10.24541282653809 71.76370239257812 7.108687400817871 67.11147308349609 4.917825222015381 61.93170166015625 C 2.649924993515015 56.56977462768555 1.5 50.87312316894531 1.5 45 C 1.5 39.12687683105469 2.649924993515015 33.43022537231445 4.917825222015381 28.06830024719238 C 7.108687400817871 22.88852500915527 10.24541282653809 18.23629951477051 14.2408504486084 14.2408504486084 C 18.23629951477051 10.24541282653809 22.88852500915527 7.108687400817871 28.06830024719238 4.917825222015381 C 33.43022537231445 2.649924993515015 39.12687683105469 1.5 45 1.5 C 50.87312316894531 1.5 56.56977462768555 2.649924993515015 61.93170166015625 4.917825222015381 C 67.11147308349609 7.108687400817871 71.76370239257812 10.24541282653809 75.75914764404297 14.2408504486084 C 79.75458526611328 18.23629951477051 82.89131164550781 22.88852500915527 85.08217620849609 28.06830024719238 C 87.35007476806641 33.43022537231445 88.5 39.12687683105469 88.5 45 C 88.5 50.87312316894531 87.35007476806641 56.56977462768555 85.08217620849609 61.93170166015625 C 82.89131164550781 67.11147308349609 79.75458526611328 71.76370239257812 75.75914764404297 75.75914764404297 C 71.76370239257812 79.75458526611328 67.11147308349609 82.89131164550781 61.93170166015625 85.08217620849609 C 56.56977462768555 87.35007476806641 50.87312316894531 88.5 45 88.5 Z" stroke="none"/>
        <path d="M 45 3 C 39.32871246337891 3 33.82865524291992 4.110054016113281 28.65262985229492 6.299339294433594 C 23.65165710449219 8.414573669433594 19.15968322753906 11.44334411621094 15.301513671875 15.301513671875 C 11.44334411621094 19.15968322753906 8.414573669433594 23.65165710449219 6.299339294433594 28.65262985229492 C 4.110054016113281 33.82865524291992 3 39.32871246337891 3 45 C 3 50.67128753662109 4.110054016113281 56.17134475708008 6.299339294433594 61.34737396240234 C 8.414573669433594 66.34834289550781 11.44334411621094 70.84031677246094 15.301513671875 74.698486328125 C 19.15968322753906 78.55665588378906 23.65165710449219 81.58542633056641 28.65262985229492 83.70066070556641 C 33.82865524291992 85.88994598388672 39.32871246337891 87 45 87 C 50.67128753662109 87 56.17134475708008 85.88994598388672 61.34737396240234 83.70066070556641 C 66.34834289550781 81.58542633056641 70.84031677246094 78.55665588378906 74.698486328125 74.698486328125 C 78.55665588378906 70.84031677246094 81.58542633056641 66.34834289550781 83.70066070556641 61.34737396240234 C 85.88994598388672 56.17134475708008 87 50.67128753662109 87 45 C 87 39.32871246337891 85.88994598388672 33.82865524291992 83.70066070556641 28.65262985229492 C 81.58542633056641 23.65165710449219 78.55665588378906 19.15968322753906 74.698486328125 15.301513671875 C 70.84031677246094 11.44334411621094 66.34834289550781 8.414573669433594 61.34737396240234 6.299339294433594 C 56.17134475708008 4.110054016113281 50.67128753662109 3 45 3 M 45 0 C 69.85281372070312 0 90 20.14718627929688 90 45 C 90 69.85281372070312 69.85281372070312 90 45 90 C 20.14718627929688 90 0 69.85281372070312 0 45 C 0 20.14718627929688 20.14718627929688 0 45 0 Z" stroke="none" fill="#bca724"/>
      </g>
    </g>
    <g id="Grupo_1145532" data-name="Grupo 1145532" transform="translate(15.109 708.437)">
      <path id="Trazado_986842" data-name="Trazado 986842" d="M34.821,56.443H63.9L34.821,5.625,5.746,56.443Z" transform="translate(-4.787 -4.603)" fill="#6df3bf"/>
      <rect id="Rect치ngulo_408370" data-name="Rect치ngulo 408370" width="5.815" height="5.815" transform="translate(30.034 46.026)" fill="#d6e4ea"/>
      <g id="Grupo_1145481" data-name="Grupo 1145481" transform="translate(0 0.169)">
        <g id="Grupo_1145480" data-name="Grupo 1145480" clip-path="url(#clip-path)">
          <path id="Trazado_986843" data-name="Trazado 986843" d="M198.03,56.443h3.159L172.114,5.625l-1.579,2.756c.8,1.4,25.408,44.412,27.5,48.062" transform="translate(-142.08 -4.771)" fill="#05e29a"/>
          <path id="Trazado_986844" data-name="Trazado 986844" d="M295.858,254.844a10.633,10.633,0,0,0-5.354,9.234h10.637l-5.283-9.234" transform="translate(-242.032 -212.407)" fill="#fba65c"/>
          <path id="Trazado_986845" data-name="Trazado 986845" d="M309.4,256.52c2.234,3.9,3.853,6.735,4.325,7.559h3.159l-5.283-9.234a10.684,10.684,0,0,0-2.2,1.676" transform="translate(-257.776 -212.407)" fill="#fb9538"/>
        </g>
      </g>
      <g id="Grupo_1145483" data-name="Grupo 1145483" transform="translate(0 0.169)">
        <g id="Grupo_1145482" data-name="Grupo 1145482" clip-path="url(#clip-path)">
          <path id="Trazado_986846" data-name="Trazado 986846" d="M11.029,254.844a10.633,10.633,0,0,1,5.354,9.234H5.746l5.283-9.234" transform="translate(-4.787 -212.407)" fill="#fba65c"/>
          <path id="Trazado_986847" data-name="Trazado 986847" d="M60.025,51.291l-20.481-35.8a.939.939,0,0,0-1.63.932l5.259,9.192-1.721,1.024a.939.939,0,0,0,.959,1.614l1.695-1.008,8.561,14.962a11.622,11.622,0,0,0-4.992,8.609H36.889V45.942A.938.938,0,0,0,35.95,45H31.073V35l.367-.218a.938.938,0,0,0-.367-1.738V4.469l4.664,8.152a.939.939,0,0,0,1.63-.933L30.95.473a.939.939,0,0,0-1.63,0L22.9,11.688a.939.939,0,0,0,1.63.933L29.2,4.469V33.043a.938.938,0,0,0-.367,1.738L29.2,35v15.82H12.6A11.618,11.618,0,0,0,7.6,42.209l8.561-14.962,1.695,1.008a.939.939,0,0,0,.96-1.614L17.1,25.618l5.259-9.192a.939.939,0,0,0-1.63-.932L.245,51.291a.938.938,0,0,0,.815,1.4H59.21a.938.938,0,0,0,.815-1.4m-25.013-.472H31.073V46.881h3.938ZM6.668,43.844a9.718,9.718,0,0,1,2.2,2.174l-.118.07A.938.938,0,1,0,9.714,47.7l.118-.07a9.712,9.712,0,0,1,.881,3.187H2.678Zm42.89,6.974a9.7,9.7,0,0,1,.88-3.186l.118.07a.939.939,0,0,0,.96-1.614l-.119-.07a9.7,9.7,0,0,1,2.2-2.174l3.99,6.974Z" transform="translate(-0.101 -0.085)"/>
        </g>
      </g>
      <g id="Grupo_1145485" data-name="Grupo 1145485" transform="translate(0 0.169)">
        <g id="Grupo_1145484" data-name="Grupo 1145484" clip-path="url(#clip-path)">
          <path id="Trazado_986848" data-name="Trazado 986848" d="M316.529,285.854a.939.939,0,0,0,.327,1.286l.671.41a.938.938,0,0,0,.959-1.613l-.671-.41a.938.938,0,0,0-1.286.327" transform="translate(-263.605 -237.861)"/>
          <path id="Trazado_986849" data-name="Trazado 986849" d="M269.156,258.768a.939.939,0,1,0,.96-1.613l-1.291-.768a.939.939,0,0,0-.96,1.614Z" transform="translate(-222.788 -213.582)"/>
          <path id="Trazado_986850" data-name="Trazado 986850" d="M244.662,244.2a.938.938,0,1,0,.959-1.613l-1.29-.768a.938.938,0,1,0-.959,1.613Z" transform="translate(-202.381 -201.446)"/>
          <path id="Trazado_986851" data-name="Trazado 986851" d="M221.126,228.021l-1.29-.767a.938.938,0,1,0-.959,1.613l1.29.768a.939.939,0,1,0,.959-1.614" transform="translate(-181.972 -189.31)"/>
          <path id="Trazado_986852" data-name="Trazado 986852" d="M196.63,213.451l-1.291-.767a.938.938,0,1,0-.959,1.613l1.29.768a.939.939,0,0,0,.96-1.614" transform="translate(-161.564 -177.171)"/>
          <path id="Trazado_986853" data-name="Trazado 986853" d="M147.642,184.314l-1.29-.767a.938.938,0,1,0-.959,1.613l1.29.768a.939.939,0,1,0,.959-1.614" transform="translate(-120.75 -152.896)"/>
          <path id="Trazado_986854" data-name="Trazado 986854" d="M123.146,169.746l-1.29-.768a.938.938,0,1,0-.959,1.613l1.29.768a.938.938,0,1,0,.959-1.613" transform="translate(-100.341 -140.758)"/>
          <path id="Trazado_986855" data-name="Trazado 986855" d="M29.462,285.528l-.671.41a.939.939,0,1,0,.96,1.613l.67-.41a.938.938,0,1,0-.959-1.613" transform="translate(-23.605 -237.861)"/>
          <path id="Trazado_986856" data-name="Trazado 986856" d="M75.356,256.389l-1.291.768a.939.939,0,1,0,.96,1.613L76.316,258a.939.939,0,0,0-.96-1.614" transform="translate(-61.325 -213.584)"/>
          <path id="Trazado_986857" data-name="Trazado 986857" d="M99.852,241.82l-1.29.768a.938.938,0,0,0,.959,1.613l1.29-.768a.938.938,0,1,0-.959-1.613" transform="translate(-81.734 -201.446)"/>
          <path id="Trazado_986858" data-name="Trazado 986858" d="M124.346,227.252l-1.29.768a.938.938,0,1,0,.959,1.613l1.29-.767a.939.939,0,1,0-.959-1.614" transform="translate(-102.141 -189.308)"/>
          <path id="Trazado_986859" data-name="Trazado 986859" d="M148.842,212.684l-1.291.767a.939.939,0,0,0,.96,1.614l1.29-.768a.938.938,0,1,0-.959-1.613" transform="translate(-122.549 -177.171)"/>
          <path id="Trazado_986860" data-name="Trazado 986860" d="M199.117,183.873a.939.939,0,0,0-1.287-.327l-1.29.767a.939.939,0,0,0,.959,1.614l1.291-.768a.939.939,0,0,0,.327-1.287" transform="translate(-163.363 -152.896)"/>
          <path id="Trazado_986861" data-name="Trazado 986861" d="M223.613,169.306a.939.939,0,0,0-1.287-.327l-1.29.768a.938.938,0,1,0,.959,1.613l1.29-.768a.938.938,0,0,0,.327-1.286" transform="translate(-183.772 -140.758)"/>
        </g>
      </g>
    </g>
  </g>
</svg>
