<svg xmlns="http://www.w3.org/2000/svg" xmlns:xlink="http://www.w3.org/1999/xlink" width="108" height="108" viewBox="0 0 108 108">
  <defs>
    <filter id="Fondo" x="0" y="0" width="108" height="108" filterUnits="userSpaceOnUse">
      <feOffset dy="3" input="SourceAlpha"/>
      <feGaussianBlur stdDeviation="3" result="blur"/>
      <feFlood flood-opacity="0.161"/>
      <feComposite operator="in" in2="blur"/>
      <feComposite in="SourceGraphic"/>
    </filter>
    <clipPath id="clip-path">
      <rect id="Rect치ngulo_408375" data-name="Rect치ngulo 408375" width="52" height="52" transform="translate(0 0)" fill="none"/>
    </clipPath>
  </defs>
  <g id="Icono" transform="translate(8.5 -689)">
    <g transform="matrix(1, 0, 0, 1, -8.5, 689)" filter="url(#Fondo)">
      <g id="Fondo-2" data-name="Fondo" transform="translate(9 6)" fill="#e6d567">
        <path d="M 45 88.5 C 39.12687683105469 88.5 33.43022537231445 87.35007476806641 28.06830024719238 85.08217620849609 C 22.88852500915527 82.89131164550781 18.23629951477051 79.75458526611328 14.2408504486084 75.75914764404297 C 10.24541282653809 71.76370239257812 7.108687400817871 67.11147308349609 4.917825222015381 61.93170166015625 C 2.649924993515015 56.56977462768555 1.5 50.87312316894531 1.5 45 C 1.5 39.12687683105469 2.649924993515015 33.43022537231445 4.917825222015381 28.06830024719238 C 7.108687400817871 22.88852500915527 10.24541282653809 18.23629951477051 14.2408504486084 14.2408504486084 C 18.23629951477051 10.24541282653809 22.88852500915527 7.108687400817871 28.06830024719238 4.917825222015381 C 33.43022537231445 2.649924993515015 39.12687683105469 1.5 45 1.5 C 50.87312316894531 1.5 56.56977462768555 2.649924993515015 61.93170166015625 4.917825222015381 C 67.11147308349609 7.108687400817871 71.76370239257812 10.24541282653809 75.75914764404297 14.2408504486084 C 79.75458526611328 18.23629951477051 82.89131164550781 22.88852500915527 85.08217620849609 28.06830024719238 C 87.35007476806641 33.43022537231445 88.5 39.12687683105469 88.5 45 C 88.5 50.87312316894531 87.35007476806641 56.56977462768555 85.08217620849609 61.93170166015625 C 82.89131164550781 67.11147308349609 79.75458526611328 71.76370239257812 75.75914764404297 75.75914764404297 C 71.76370239257812 79.75458526611328 67.11147308349609 82.89131164550781 61.93170166015625 85.08217620849609 C 56.56977462768555 87.35007476806641 50.87312316894531 88.5 45 88.5 Z" stroke="none"/>
        <path d="M 45 3 C 39.32871246337891 3 33.82865524291992 4.110054016113281 28.65262985229492 6.299339294433594 C 23.65165710449219 8.414573669433594 19.15968322753906 11.44334411621094 15.301513671875 15.301513671875 C 11.44334411621094 19.15968322753906 8.414573669433594 23.65165710449219 6.299339294433594 28.65262985229492 C 4.110054016113281 33.82865524291992 3 39.32871246337891 3 45 C 3 50.67128753662109 4.110054016113281 56.17134475708008 6.299339294433594 61.34737396240234 C 8.414573669433594 66.34834289550781 11.44334411621094 70.84031677246094 15.301513671875 74.698486328125 C 19.15968322753906 78.55665588378906 23.65165710449219 81.58542633056641 28.65262985229492 83.70066070556641 C 33.82865524291992 85.88994598388672 39.32871246337891 87 45 87 C 50.67128753662109 87 56.17134475708008 85.88994598388672 61.34737396240234 83.70066070556641 C 66.34834289550781 81.58542633056641 70.84031677246094 78.55665588378906 74.698486328125 74.698486328125 C 78.55665588378906 70.84031677246094 81.58542633056641 66.34834289550781 83.70066070556641 61.34737396240234 C 85.88994598388672 56.17134475708008 87 50.67128753662109 87 45 C 87 39.32871246337891 85.88994598388672 33.82865524291992 83.70066070556641 28.65262985229492 C 81.58542633056641 23.65165710449219 78.55665588378906 19.15968322753906 74.698486328125 15.301513671875 C 70.84031677246094 11.44334411621094 66.34834289550781 8.414573669433594 61.34737396240234 6.299339294433594 C 56.17134475708008 4.110054016113281 50.67128753662109 3 45 3 M 45 0 C 69.85281372070312 0 90 20.14718627929688 90 45 C 90 69.85281372070312 69.85281372070312 90 45 90 C 20.14718627929688 90 0 69.85281372070312 0 45 C 0 20.14718627929688 20.14718627929688 0 45 0 Z" stroke="none" fill="#bca724"/>
      </g>
    </g>
    <g id="Grupo_1145533" data-name="Grupo 1145533" transform="translate(20.163 714.381)">
      <rect id="Rect치ngulo_408374" data-name="Rect치ngulo 408374" width="44.074" height="44.074" transform="translate(4.149 3.996)" fill="#97e4f9"/>
      <g id="Grupo_1145488" data-name="Grupo 1145488" transform="translate(-0.055 0.212)">
        <g id="Grupo_1145487" data-name="Grupo 1145487" transform="translate(0 0)" clip-path="url(#clip-path)">
          <path id="Trazado_986862" data-name="Trazado 986862" d="M35.988,295.906H30.367v7.87h7.87v-5.621a2.249,2.249,0,0,0-2.249-2.249" transform="translate(-26.164 -255.919)" fill="#0acefa"/>
          <path id="Trazado_986863" data-name="Trazado 986863" d="M13.6,321.4H6.648a1.023,1.023,0,0,1-1.023-1.023v-6.95A1.023,1.023,0,0,1,6.648,312.4H13.6a1.022,1.022,0,0,1,1.023,1.023v6.95A1.022,1.022,0,0,1,13.6,321.4" transform="translate(-4.795 -270.166)" fill="#d6e4ea"/>
          <path id="Trazado_986864" data-name="Trazado 986864" d="M298.155,38.237h5.621v-7.87h-7.87v5.621a2.249,2.249,0,0,0,2.249,2.249" transform="translate(-255.499 -26.583)" fill="#0acefa"/>
          <path id="Trazado_986865" data-name="Trazado 986865" d="M303.776,295.906h-5.621a2.249,2.249,0,0,0-2.249,2.249v5.621h7.87Z" transform="translate(-255.499 -255.919)" fill="#0acefa"/>
          <path id="Trazado_986866" data-name="Trazado 986866" d="M38.237,30.367h-7.87v7.87h5.621a2.249,2.249,0,0,0,2.249-2.249Z" transform="translate(-26.164 -26.583)" fill="#0acefa"/>
          <path id="Trazado_986867" data-name="Trazado 986867" d="M320.374,321.4h-6.95a1.023,1.023,0,0,1-1.023-1.023v-6.95a1.022,1.022,0,0,1,1.023-1.023h6.95a1.023,1.023,0,0,1,1.023,1.023v6.95a1.023,1.023,0,0,1-1.023,1.023" transform="translate(-269.746 -270.166)" fill="#d6e4ea"/>
          <path id="Trazado_986868" data-name="Trazado 986868" d="M320.374,14.62h-6.95A1.022,1.022,0,0,1,312.4,13.6V6.648a1.023,1.023,0,0,1,1.023-1.023h6.95A1.023,1.023,0,0,1,321.4,6.648V13.6a1.022,1.022,0,0,1-1.023,1.023" transform="translate(-269.746 -5.214)" fill="#d6e4ea"/>
          <path id="Trazado_986869" data-name="Trazado 986869" d="M13.6,14.62H6.648A1.022,1.022,0,0,1,5.625,13.6V6.648A1.023,1.023,0,0,1,6.648,5.625H13.6A1.022,1.022,0,0,1,14.62,6.648V13.6A1.022,1.022,0,0,1,13.6,14.62" transform="translate(-4.795 -5.214)" fill="#d6e4ea"/>
          <path id="Trazado_986870" data-name="Trazado 986870" d="M32.168,47.447H10.528V43.625a1.8,1.8,0,0,0-1.8-1.8H4.906v-31.3H8.739a1.791,1.791,0,0,0,1.789-1.789V4.907H16.57a.767.767,0,1,0,0-1.534H10.528V1.789A1.791,1.791,0,0,0,8.739,0H1.789A1.791,1.791,0,0,0,0,1.789v6.95a1.791,1.791,0,0,0,1.789,1.789H3.372v31.3H1.8a1.8,1.8,0,0,0-1.8,1.8v6.929a1.8,1.8,0,0,0,1.8,1.8H8.729a1.8,1.8,0,0,0,1.8-1.8V48.981H32.168a.767.767,0,1,0,0-1.534M1.534,8.739V1.789a.256.256,0,0,1,.256-.256h6.95a.256.256,0,0,1,.256.256v6.95a.256.256,0,0,1-.256.256H1.789a.256.256,0,0,1-.256-.256M8.995,50.554a.266.266,0,0,1-.266.266H1.8a.266.266,0,0,1-.266-.266V43.625a.266.266,0,0,1,.266-.266H8.729a.266.266,0,0,1,.266.266Z" transform="translate(0.063 -0.356)"/>
          <path id="Trazado_986871" data-name="Trazado 986871" d="M173.579,10.528a1.791,1.791,0,0,0,1.789-1.789V1.789A1.791,1.791,0,0,0,173.579,0h-6.95a1.791,1.791,0,0,0-1.789,1.789V3.373H143.2a.767.767,0,0,0,0,1.534H164.84V8.739a1.791,1.791,0,0,0,1.789,1.789h3.832v31.3H166.63a1.791,1.791,0,0,0-1.789,1.789v3.832H158.8a.767.767,0,0,0,0,1.534h6.043v1.584a1.791,1.791,0,0,0,1.789,1.789h6.95a1.791,1.791,0,0,0,1.789-1.789v-6.95a1.791,1.791,0,0,0-1.789-1.789H172v-31.3Zm.256,33.087v6.95a.256.256,0,0,1-.256.256h-6.95a.256.256,0,0,1-.256-.256v-6.95a.256.256,0,0,1,.256-.256h6.95a.256.256,0,0,1,.256.256M166.374,8.739V1.789a.256.256,0,0,1,.256-.256h6.95a.256.256,0,0,1,.256.256v6.95a.256.256,0,0,1-.256.256h-6.95a.256.256,0,0,1-.256-.256" transform="translate(-122.952 -0.356)"/>
        </g>
      </g>
    </g>
  </g>
</svg>
