<svg xmlns="http://www.w3.org/2000/svg" xmlns:xlink="http://www.w3.org/1999/xlink" width="108" height="108" viewBox="0 0 108 108">
  <defs>
    <filter id="Fondo" x="0" y="0" width="108" height="108" filterUnits="userSpaceOnUse">
      <feOffset dy="3" input="SourceAlpha"/>
      <feGaussianBlur stdDeviation="3" result="blur"/>
      <feFlood flood-opacity="0.161"/>
      <feComposite operator="in" in2="blur"/>
      <feComposite in="SourceGraphic"/>
    </filter>
    <clipPath id="clip-path">
      <rect id="Rectángulo_408376" data-name="Rectángulo 408376" width="63.333" height="59.688" fill="none"/>
    </clipPath>
  </defs>
  <g id="Icono" transform="translate(8.5 -689)">
    <g transform="matrix(1, 0, 0, 1, -8.5, 689)" filter="url(#Fondo)">
      <g id="Fondo-2" data-name="Fondo" transform="translate(9 6)" fill="#e6d567">
        <path d="M 45 88.5 C 39.12687683105469 88.5 33.43022537231445 87.35007476806641 28.06830024719238 85.08217620849609 C 22.88852500915527 82.89131164550781 18.23629951477051 79.75458526611328 14.2408504486084 75.75914764404297 C 10.24541282653809 71.76370239257812 7.108687400817871 67.11147308349609 4.917825222015381 61.93170166015625 C 2.649924993515015 56.56977462768555 1.5 50.87312316894531 1.5 45 C 1.5 39.12687683105469 2.649924993515015 33.43022537231445 4.917825222015381 28.06830024719238 C 7.108687400817871 22.88852500915527 10.24541282653809 18.23629951477051 14.2408504486084 14.2408504486084 C 18.23629951477051 10.24541282653809 22.88852500915527 7.108687400817871 28.06830024719238 4.917825222015381 C 33.43022537231445 2.649924993515015 39.12687683105469 1.5 45 1.5 C 50.87312316894531 1.5 56.56977462768555 2.649924993515015 61.93170166015625 4.917825222015381 C 67.11147308349609 7.108687400817871 71.76370239257812 10.24541282653809 75.75914764404297 14.2408504486084 C 79.75458526611328 18.23629951477051 82.89131164550781 22.88852500915527 85.08217620849609 28.06830024719238 C 87.35007476806641 33.43022537231445 88.5 39.12687683105469 88.5 45 C 88.5 50.87312316894531 87.35007476806641 56.56977462768555 85.08217620849609 61.93170166015625 C 82.89131164550781 67.11147308349609 79.75458526611328 71.76370239257812 75.75914764404297 75.75914764404297 C 71.76370239257812 79.75458526611328 67.11147308349609 82.89131164550781 61.93170166015625 85.08217620849609 C 56.56977462768555 87.35007476806641 50.87312316894531 88.5 45 88.5 Z" stroke="none"/>
        <path d="M 45 3 C 39.32871246337891 3 33.82865524291992 4.110054016113281 28.65262985229492 6.299339294433594 C 23.65165710449219 8.414573669433594 19.15968322753906 11.44334411621094 15.301513671875 15.301513671875 C 11.44334411621094 19.15968322753906 8.414573669433594 23.65165710449219 6.299339294433594 28.65262985229492 C 4.110054016113281 33.82865524291992 3 39.32871246337891 3 45 C 3 50.67128753662109 4.110054016113281 56.17134475708008 6.299339294433594 61.34737396240234 C 8.414573669433594 66.34834289550781 11.44334411621094 70.84031677246094 15.301513671875 74.698486328125 C 19.15968322753906 78.55665588378906 23.65165710449219 81.58542633056641 28.65262985229492 83.70066070556641 C 33.82865524291992 85.88994598388672 39.32871246337891 87 45 87 C 50.67128753662109 87 56.17134475708008 85.88994598388672 61.34737396240234 83.70066070556641 C 66.34834289550781 81.58542633056641 70.84031677246094 78.55665588378906 74.698486328125 74.698486328125 C 78.55665588378906 70.84031677246094 81.58542633056641 66.34834289550781 83.70066070556641 61.34737396240234 C 85.88994598388672 56.17134475708008 87 50.67128753662109 87 45 C 87 39.32871246337891 85.88994598388672 33.82865524291992 83.70066070556641 28.65262985229492 C 81.58542633056641 23.65165710449219 78.55665588378906 19.15968322753906 74.698486328125 15.301513671875 C 70.84031677246094 11.44334411621094 66.34834289550781 8.414573669433594 61.34737396240234 6.299339294433594 C 56.17134475708008 4.110054016113281 50.67128753662109 3 45 3 M 45 0 C 69.85281372070312 0 90 20.14718627929688 90 45 C 90 69.85281372070312 69.85281372070312 90 45 90 C 20.14718627929688 90 0 69.85281372070312 0 45 C 0 20.14718627929688 20.14718627929688 0 45 0 Z" stroke="none" fill="#bca724"/>
      </g>
    </g>
    <g id="Grupo_1145534" data-name="Grupo 1145534" transform="translate(13.335 709.759)">
      <path id="Trazado_986872" data-name="Trazado 986872" d="M68.786,46.712,43.8,64.863l9.543,29.369H84.226l9.543-29.369Z" transform="translate(-37.364 -39.845)" fill="#fc7272"/>
      <g id="Grupo_1145491" data-name="Grupo 1145491">
        <g id="Grupo_1145490" data-name="Grupo 1145490" clip-path="url(#clip-path)">
          <path id="Trazado_986873" data-name="Trazado 986873" d="M184.076,44.522l-6-6-6,6,4.286,4.286a2.425,2.425,0,0,0,3.429,0Z" transform="translate(-146.78 -32.859)" fill="#bf2525"/>
          <path id="Trazado_986874" data-name="Trazado 986874" d="M43.867,142.754l-7.859,3.2,3.2,7.859,5.613-2.287a2.425,2.425,0,0,0,1.331-3.161Z" transform="translate(-30.715 -121.769)" fill="#bf2525"/>
          <path id="Trazado_986875" data-name="Trazado 986875" d="M324.77,148.367a2.425,2.425,0,0,0,1.331,3.161l5.613,2.287,3.2-7.859-7.859-3.2Z" transform="translate(-276.875 -121.769)" fill="#bf2525"/>
          <path id="Trazado_986876" data-name="Trazado 986876" d="M277.276,313.99a2.425,2.425,0,0,0-2.595,2.242l-.44,6.045,8.463.616.616-8.463Z" transform="translate(-233.928 -267.828)" fill="#bf2525"/>
          <path id="Trazado_986877" data-name="Trazado 986877" d="M95.829,314.431l.616,8.464,8.464-.616-.44-6.045a2.425,2.425,0,0,0-2.595-2.242Z" transform="translate(-81.742 -267.828)" fill="#bf2525"/>
          <path id="Trazado_986878" data-name="Trazado 986878" d="M79.968,150.587H51.27a2.305,2.305,0,0,1-2.2-1.6L40.2,121.7a2.305,2.305,0,0,1,.84-2.584l9.812-7.129a.809.809,0,0,1,.95,1.308l-9.811,7.128a.692.692,0,0,0-.252.776l8.868,27.293a.692.692,0,0,0,.66.479h28.7a.692.692,0,0,0,.66-.479l4.23-13.019a.808.808,0,0,1,1.538.5l-4.23,13.019a2.305,2.305,0,0,1-2.2,1.6" transform="translate(-34.197 -95.392)"/>
          <path id="Trazado_986879" data-name="Trazado 986879" d="M177.538,71.182a.809.809,0,0,1-.769-1.059l2.312-7.114a.692.692,0,0,0-.252-.776L155.611,45.366a.692.692,0,0,0-.816,0l-8.4,6.1a.809.809,0,0,1-.951-1.308l8.4-6.1a2.305,2.305,0,0,1,2.717,0l23.217,16.868a2.305,2.305,0,0,1,.84,2.584l-2.312,7.114a.809.809,0,0,1-.769.559" transform="translate(-123.781 -37.203)"/>
          <path id="Trazado_986880" data-name="Trazado 986880" d="M176.3,17.979l-5.3-5.3a1.1,1.1,0,0,1,0-1.559l5.3-5.3a1.1,1.1,0,0,1,1.559,0l5.3,5.3a1.1,1.1,0,0,1,0,1.559l-5.3,5.3a1.1,1.1,0,0,1-1.559,0" transform="translate(-145.587 -4.692)" fill="#f4d0e2"/>
          <path id="Trazado_986881" data-name="Trazado 986881" d="M16.783,135.737l-6.939,2.827a1.1,1.1,0,0,1-1.437-.605L5.58,131.02a1.1,1.1,0,0,1,.605-1.437l6.939-2.827a1.1,1.1,0,0,1,1.437.605l2.827,6.939a1.1,1.1,0,0,1-.605,1.437" transform="translate(-4.69 -108.053)" fill="#f4d0e2"/>
          <path id="Trazado_986882" data-name="Trazado 986882" d="M4.737,134.759a1.914,1.914,0,0,1-1.769-1.191L.141,126.629a1.913,1.913,0,0,1,1.049-2.491l6.939-2.827a1.911,1.911,0,0,1,2.491,1.049l2.827,6.939A1.911,1.911,0,0,1,12.4,131.79l-6.939,2.827a1.907,1.907,0,0,1-.721.142m4.112-11.972a.289.289,0,0,0-.11.022L1.8,125.636a.294.294,0,0,0-.161.383l2.827,6.939a.294.294,0,0,0,.383.161l6.939-2.827a.293.293,0,0,0,.161-.383L9.122,122.97a.293.293,0,0,0-.158-.16.3.3,0,0,0-.115-.023m3.244,8.254h0Z" transform="translate(0 -103.357)"/>
          <path id="Trazado_986883" data-name="Trazado 986883" d="M344.584,135.737a1.1,1.1,0,0,1-.605-1.437l2.827-6.939a1.1,1.1,0,0,1,1.437-.605l6.939,2.827a1.1,1.1,0,0,1,.605,1.437l-2.827,6.939a1.1,1.1,0,0,1-1.437.605Z" transform="translate(-293.344 -108.053)" fill="#f4d0e2"/>
          <path id="Trazado_986884" data-name="Trazado 986884" d="M347.243,134.759a1.909,1.909,0,0,1-.721-.142l-6.939-2.827a1.911,1.911,0,0,1-1.049-2.491l2.827-6.939a1.911,1.911,0,0,1,2.491-1.049l6.939,2.827a1.913,1.913,0,0,1,1.049,2.491l-2.827,6.939a1.915,1.915,0,0,1-1.77,1.191m-7.05-4.467,6.939,2.827a.294.294,0,0,0,.383-.161l2.827-6.939a.294.294,0,0,0-.161-.383l-6.939-2.827a.294.294,0,0,0-.383.161l-2.827,6.939a.294.294,0,0,0,.161.383Z" transform="translate(-288.648 -103.357)"/>
          <path id="Trazado_986885" data-name="Trazado 986885" d="M291.715,332.022a1.1,1.1,0,0,1,1.18-1.019l7.473.544a1.1,1.1,0,0,1,1.02,1.18l-.544,7.473a1.1,1.1,0,0,1-1.18,1.02l-7.473-.544a1.1,1.1,0,0,1-1.019-1.18Z" transform="translate(-248.366 -282.343)" fill="#f4d0e2"/>
          <path id="Trazado_986886" data-name="Trazado 986886" d="M295.055,337.339c-.047,0-.094,0-.142-.005l-7.473-.544a1.911,1.911,0,0,1-1.767-2.045l.544-7.473a1.912,1.912,0,0,1,2.045-1.767l7.473.544a1.911,1.911,0,0,1,1.767,2.045l-.544,7.473a1.911,1.911,0,0,1-1.9,1.772m-6.932-10.222a.294.294,0,0,0-.293.273l-.544,7.473a.294.294,0,0,0,.272.315l7.473.544a.294.294,0,0,0,.315-.272l.544-7.473a.294.294,0,0,0-.272-.315l-7.473-.544h-.021m-1.1.214h0Z" transform="translate(-243.675 -277.651)"/>
          <path id="Trazado_986887" data-name="Trazado 986887" d="M80.8,332.022l.544,7.473a1.1,1.1,0,0,1-1.019,1.18l-7.473.544a1.1,1.1,0,0,1-1.18-1.02l-.544-7.473a1.1,1.1,0,0,1,1.02-1.18L79.623,331a1.1,1.1,0,0,1,1.18,1.019" transform="translate(-60.671 -282.343)" fill="#f4d0e2"/>
          <path id="Trazado_986888" data-name="Trazado 986888" d="M68.079,337.339a1.911,1.911,0,0,1-1.9-1.772l-.544-7.473a1.911,1.911,0,0,1,1.767-2.045l7.473-.544a1.913,1.913,0,0,1,2.045,1.767l.544,7.473a1.911,1.911,0,0,1-1.767,2.045l-7.473.544c-.047,0-.095.005-.142.005m6.932-10.222H74.99l-7.473.544a.294.294,0,0,0-.272.315l.544,7.473a.294.294,0,0,0,.315.272l7.473-.544a.294.294,0,0,0,.272-.315l-.544-7.473a.294.294,0,0,0-.293-.273" transform="translate(-55.98 -277.651)"/>
          <path id="Trazado_986889" data-name="Trazado 986889" d="M172.39,14.419a1.9,1.9,0,0,1-1.351-.56l-5.3-5.3a1.913,1.913,0,0,1,0-2.7l5.3-5.3a1.911,1.911,0,0,1,2.7,0l5.3,5.3a1.913,1.913,0,0,1,0,2.7l-5.3,5.3a1.9,1.9,0,0,1-1.351.56m0-12.8a.293.293,0,0,0-.208.086l-5.3,5.3a.3.3,0,0,0,0,.416l5.3,5.3a.293.293,0,0,0,.416,0l5.3-5.3a.3.3,0,0,0,0-.416l-5.3-5.3a.293.293,0,0,0-.208-.086" transform="translate(-140.9)"/>
        </g>
      </g>
    </g>
  </g>
</svg>
