<svg xmlns="http://www.w3.org/2000/svg" xmlns:xlink="http://www.w3.org/1999/xlink" width="108" height="108" viewBox="0 0 108 108">
  <defs>
    <filter id="Fondo" x="0" y="0" width="108" height="108" filterUnits="userSpaceOnUse">
      <feOffset dy="3" input="SourceAlpha"/>
      <feGaussianBlur stdDeviation="3" result="blur"/>
      <feFlood flood-opacity="0.161"/>
      <feComposite operator="in" in2="blur"/>
      <feComposite in="SourceGraphic"/>
    </filter>
    <clipPath id="clip-path">
      <rect id="Rectángulo_408377" data-name="Rectángulo 408377" width="67.969" height="59.69" fill="none"/>
    </clipPath>
  </defs>
  <g id="Icono" transform="translate(8.5 -689)">
    <g transform="matrix(1, 0, 0, 1, -8.5, 689)" filter="url(#Fondo)">
      <g id="Fondo-2" data-name="Fondo" transform="translate(9 6)" fill="#e6d567">
        <path d="M 45 88.5 C 39.12687683105469 88.5 33.43022537231445 87.35007476806641 28.06830024719238 85.08217620849609 C 22.88852500915527 82.89131164550781 18.23629951477051 79.75458526611328 14.2408504486084 75.75914764404297 C 10.24541282653809 71.76370239257812 7.108687400817871 67.11147308349609 4.917825222015381 61.93170166015625 C 2.649924993515015 56.56977462768555 1.5 50.87312316894531 1.5 45 C 1.5 39.12687683105469 2.649924993515015 33.43022537231445 4.917825222015381 28.06830024719238 C 7.108687400817871 22.88852500915527 10.24541282653809 18.23629951477051 14.2408504486084 14.2408504486084 C 18.23629951477051 10.24541282653809 22.88852500915527 7.108687400817871 28.06830024719238 4.917825222015381 C 33.43022537231445 2.649924993515015 39.12687683105469 1.5 45 1.5 C 50.87312316894531 1.5 56.56977462768555 2.649924993515015 61.93170166015625 4.917825222015381 C 67.11147308349609 7.108687400817871 71.76370239257812 10.24541282653809 75.75914764404297 14.2408504486084 C 79.75458526611328 18.23629951477051 82.89131164550781 22.88852500915527 85.08217620849609 28.06830024719238 C 87.35007476806641 33.43022537231445 88.5 39.12687683105469 88.5 45 C 88.5 50.87312316894531 87.35007476806641 56.56977462768555 85.08217620849609 61.93170166015625 C 82.89131164550781 67.11147308349609 79.75458526611328 71.76370239257812 75.75914764404297 75.75914764404297 C 71.76370239257812 79.75458526611328 67.11147308349609 82.89131164550781 61.93170166015625 85.08217620849609 C 56.56977462768555 87.35007476806641 50.87312316894531 88.5 45 88.5 Z" stroke="none"/>
        <path d="M 45 3 C 39.32871246337891 3 33.82865524291992 4.110054016113281 28.65262985229492 6.299339294433594 C 23.65165710449219 8.414573669433594 19.15968322753906 11.44334411621094 15.301513671875 15.301513671875 C 11.44334411621094 19.15968322753906 8.414573669433594 23.65165710449219 6.299339294433594 28.65262985229492 C 4.110054016113281 33.82865524291992 3 39.32871246337891 3 45 C 3 50.67128753662109 4.110054016113281 56.17134475708008 6.299339294433594 61.34737396240234 C 8.414573669433594 66.34834289550781 11.44334411621094 70.84031677246094 15.301513671875 74.698486328125 C 19.15968322753906 78.55665588378906 23.65165710449219 81.58542633056641 28.65262985229492 83.70066070556641 C 33.82865524291992 85.88994598388672 39.32871246337891 87 45 87 C 50.67128753662109 87 56.17134475708008 85.88994598388672 61.34737396240234 83.70066070556641 C 66.34834289550781 81.58542633056641 70.84031677246094 78.55665588378906 74.698486328125 74.698486328125 C 78.55665588378906 70.84031677246094 81.58542633056641 66.34834289550781 83.70066070556641 61.34737396240234 C 85.88994598388672 56.17134475708008 87 50.67128753662109 87 45 C 87 39.32871246337891 85.88994598388672 33.82865524291992 83.70066070556641 28.65262985229492 C 81.58542633056641 23.65165710449219 78.55665588378906 19.15968322753906 74.698486328125 15.301513671875 C 70.84031677246094 11.44334411621094 66.34834289550781 8.414573669433594 61.34737396240234 6.299339294433594 C 56.17134475708008 4.110054016113281 50.67128753662109 3 45 3 M 45 0 C 69.85281372070312 0 90 20.14718627929688 90 45 C 90 69.85281372070312 69.85281372070312 90 45 90 C 20.14718627929688 90 0 69.85281372070312 0 45 C 0 20.14718627929688 20.14718627929688 0 45 0 Z" stroke="none" fill="#bca724"/>
      </g>
    </g>
    <g id="Grupo_1145535" data-name="Grupo 1145535" transform="translate(11.033 709.406)">
      <path id="Trazado_986890" data-name="Trazado 986890" d="M83.913,51.24H67.484L54.619,73.5,67.484,95.758h25.73L106.08,73.5,93.214,51.24Z" transform="translate(-46.516 -43.639)" fill="#efbc30"/>
      <g id="Grupo_1145494" data-name="Grupo 1145494">
        <g id="Grupo_1145493" data-name="Grupo 1145493" clip-path="url(#clip-path)">
          <path id="Trazado_986891" data-name="Trazado 986891" d="M125.762,324.62l2.389,7.731,7.731-2.389-1.706-5.522a2.313,2.313,0,0,0-2.892-1.526Z" transform="translate(-108.134 -277.561)" fill="#ba8f24"/>
          <path id="Trazado_986892" data-name="Trazado 986892" d="M289.8,322.913a2.313,2.313,0,0,0-2.892,1.526l-1.706,5.522,7.731,2.389,2.389-7.731Z" transform="translate(-245.226 -277.561)" fill="#ba8f24"/>
          <path id="Trazado_986893" data-name="Trazado 986893" d="M295.323,42.689l-2.389-7.731L285.2,37.347l1.706,5.522A2.313,2.313,0,0,0,289.8,44.4Z" transform="translate(-245.226 -30.058)" fill="#ba8f24"/>
          <path id="Trazado_986894" data-name="Trazado 986894" d="M132.017,44.4a2.313,2.313,0,0,0,2.892-1.526l1.706-5.522-7.731-2.389L126.5,42.689Z" transform="translate(-108.764 -30.058)" fill="#ba8f24"/>
          <path id="Trazado_986895" data-name="Trazado 986895" d="M48.332,178.578a2.312,2.312,0,0,0-.02-3.27L44.2,171.246,38.514,177l5.756,5.687Z" transform="translate(-33.115 -147.242)" fill="#ba8f24"/>
          <path id="Trazado_986896" data-name="Trazado 986896" d="M376.307,182.689,382.063,177l-5.687-5.756-4.111,4.062a2.312,2.312,0,0,0-.02,3.27Z" transform="translate(-319.493 -147.242)" fill="#ba8f24"/>
          <path id="Trazado_986897" data-name="Trazado 986897" d="M231.578,56.667a.841.841,0,0,1-.729-.421l-5.226-9.052h-16.4a.841.841,0,0,1,0-1.682h16.884a.841.841,0,0,1,.728.421l5.469,9.473a.841.841,0,0,1-.728,1.262" transform="translate(-179.174 -39.132)"/>
          <path id="Trazado_986898" data-name="Trazado 986898" d="M138.548,174.953H112.363a.841.841,0,0,1-.728-.421l-4.972-8.612a.841.841,0,1,1,1.457-.841l4.729,8.192h25.214l12.607-21.836-5.094-8.823a.841.841,0,0,1,1.457-.841l5.337,9.243a.842.842,0,0,1,0,.841l-13.093,22.677a.841.841,0,0,1-.728.421" transform="translate(-91.614 -121.537)"/>
          <path id="Trazado_986899" data-name="Trazado 986899" d="M54.767,79.06a.841.841,0,0,1-.729-.421l-5.305-9.189a.841.841,0,0,1,0-.841L61.825,45.933a.841.841,0,0,1,.728-.421h9.3a.841.841,0,1,1,0,1.682H63.039L50.432,69.03,55.495,77.8a.841.841,0,0,1-.727,1.262" transform="translate(-41.805 -39.132)"/>
          <path id="Trazado_986900" data-name="Trazado 986900" d="M392.622,175.354l5.082-5.022a1.051,1.051,0,0,1,1.487.009l5.022,5.083a1.051,1.051,0,0,1-.009,1.487l-5.082,5.022a1.051,1.051,0,0,1-1.487-.009l-5.022-5.082a1.051,1.051,0,0,1,.009-1.487" transform="translate(-337.319 -146.195)" fill="#ede1c3"/>
          <path id="Trazado_986901" data-name="Trazado 986901" d="M400.13,170.251a1.823,1.823,0,0,1-.107,2.477l-5.082,5.022a1.822,1.822,0,0,1-2.577-.015l-5.022-5.082a1.824,1.824,0,0,1,.016-2.577l5.082-5.022a1.822,1.822,0,0,1,2.577.015l5.022,5.082q.048.048.092.1m-11.705,1.3.014.015,5.022,5.083a.28.28,0,0,0,.4,0l5.082-5.022a.279.279,0,0,0,.083-.2.277.277,0,0,0-.081-.2l-5.022-5.082a.28.28,0,0,0-.4,0l-5.082,5.022a.28.28,0,0,0-.016.381" transform="translate(-332.596 -141.466)"/>
          <path id="Trazado_986902" data-name="Trazado 986902" d="M299.4,342.316a1.051,1.051,0,0,1,1.315-.694l6.827,2.11a1.051,1.051,0,0,1,.694,1.315l-2.11,6.826a1.052,1.052,0,0,1-1.315.694l-6.827-2.11a1.051,1.051,0,0,1-.694-1.315Z" transform="translate(-255.576 -293.696)" fill="#ede1c3"/>
          <path id="Trazado_986903" data-name="Trazado 986903" d="M299.847,348.576l-6.826-2.11a1.822,1.822,0,0,1-1.2-2.279l2.11-6.826a1.824,1.824,0,0,1,2.279-1.2l6.827,2.11a1.822,1.822,0,0,1,1.2,2.279l-2.109,6.826a1.823,1.823,0,0,1-2.149,1.238c-.044-.01-.087-.022-.13-.035m-4.447-10.76-2.11,6.826a.28.28,0,0,0,.185.351l6.827,2.11a.281.281,0,0,0,.351-.185l2.11-6.826a.28.28,0,0,0-.185-.351l-6.826-2.109-.02-.005a.28.28,0,0,0-.331.19" transform="translate(-250.842 -288.968)"/>
          <path id="Trazado_986904" data-name="Trazado 986904" d="M116.05,342.316l2.11,6.827a1.051,1.051,0,0,1-.694,1.315l-6.827,2.11a1.052,1.052,0,0,1-1.315-.694l-2.11-6.826a1.051,1.051,0,0,1,.694-1.315l6.827-2.11a1.051,1.051,0,0,1,1.315.694" transform="translate(-92.146 -293.696)" fill="#ede1c3"/>
          <path id="Trazado_986905" data-name="Trazado 986905" d="M106,348.611a1.823,1.823,0,0,1-2.149-1.238l-2.109-6.826a1.822,1.822,0,0,1,1.2-2.279l6.827-2.11a1.824,1.824,0,0,1,2.279,1.2l2.11,6.826a1.822,1.822,0,0,1-1.2,2.279l-6.826,2.109q-.065.02-.131.035m4.246-10.985-.02.005-6.826,2.11a.28.28,0,0,0-.185.351l2.11,6.827a.281.281,0,0,0,.351.185l6.827-2.11a.28.28,0,0,0,.185-.351l-2.11-6.826a.281.281,0,0,0-.331-.19" transform="translate(-87.413 -288.968)"/>
          <path id="Trazado_986906" data-name="Trazado 986906" d="M17.394,175.354a1.051,1.051,0,0,1,.009,1.487l-5.022,5.082a1.051,1.051,0,0,1-1.487.009L5.812,176.91a1.051,1.051,0,0,1-.009-1.487l5.022-5.083a1.051,1.051,0,0,1,1.487-.009Z" transform="translate(-4.729 -146.195)" fill="#ede1c3"/>
          <path id="Trazado_986907" data-name="Trazado 986907" d="M.526,170.152l5.022-5.082a1.822,1.822,0,0,1,2.577-.015l5.082,5.022a1.824,1.824,0,0,1,.015,2.577L8.2,177.735a1.822,1.822,0,0,1-2.577.015L.541,172.729a1.823,1.823,0,0,1-.107-2.478q.044-.051.092-.1m11.6,1.021-5.082-5.022a.28.28,0,0,0-.4,0l-5.022,5.082a.281.281,0,0,0,0,.4l5.082,5.022a.28.28,0,0,0,.4,0l5.022-5.082.014-.015a.281.281,0,0,0-.016-.381" transform="translate(0 -141.466)"/>
          <path id="Trazado_986908" data-name="Trazado 986908" d="M116.784,15.8a1.051,1.051,0,0,1-1.315.694l-6.827-2.11a1.051,1.051,0,0,1-.694-1.315l2.11-6.826a1.052,1.052,0,0,1,1.315-.694l6.827,2.11a1.051,1.051,0,0,1,.694,1.315Z" transform="translate(-92.777 -4.733)" fill="#ede1c3"/>
          <path id="Trazado_986909" data-name="Trazado 986909" d="M106.868.082l6.826,2.11a1.822,1.822,0,0,1,1.2,2.279l-2.11,6.826a1.824,1.824,0,0,1-2.279,1.2l-6.827-2.11a1.822,1.822,0,0,1-1.2-2.279l2.109-6.826A1.823,1.823,0,0,1,106.738.047c.044.01.087.022.131.035m4.447,10.76,2.11-6.826a.28.28,0,0,0-.185-.351l-6.827-2.11a.281.281,0,0,0-.351.185l-2.11,6.826a.28.28,0,0,0,.185.351l6.826,2.109.02.005a.281.281,0,0,0,.331-.19" transform="translate(-88.044 0)"/>
          <path id="Trazado_986910" data-name="Trazado 986910" d="M299.4,15.8l-2.11-6.827a1.051,1.051,0,0,1,.694-1.315l6.827-2.11a1.052,1.052,0,0,1,1.315.694l2.11,6.826a1.051,1.051,0,0,1-.694,1.315l-6.827,2.11A1.051,1.051,0,0,1,299.4,15.8" transform="translate(-255.576 -4.733)" fill="#ede1c3"/>
          <path id="Trazado_986911" data-name="Trazado 986911" d="M299.978.047a1.823,1.823,0,0,1,2.149,1.238l2.109,6.826a1.822,1.822,0,0,1-1.2,2.279l-6.827,2.11a1.824,1.824,0,0,1-2.279-1.2l-2.11-6.826a1.822,1.822,0,0,1,1.2-2.279L299.847.082q.065-.02.13-.035m-4.246,10.985.02-.005,6.826-2.11a.28.28,0,0,0,.185-.351l-2.11-6.827a.281.281,0,0,0-.351-.185l-6.827,2.11a.28.28,0,0,0-.185.351l2.11,6.826a.281.281,0,0,0,.331.19" transform="translate(-250.842 0)"/>
        </g>
      </g>
    </g>
  </g>
</svg>
